<svg width="200" height="200" viewBox="0 0 200 200" fill="none" xmlns="http://www.w3.org/2000/svg">
<path d="M155 78C155 94.5685 130.376 108 100 108C69.6243 108 45 94.5685 45 78M155 78C155 61.4315 130.376 48 100 48C69.6243 48 45 61.4315 45 78M155 78V115C155 119.835 152.903 124.403 149.177 128.449M45 78V115C45 119.835 47.0972 124.403 50.8226 128.449M50.8226 128.449C59.8624 138.264 78.4891 145 100 145C121.511 145 140.138 138.264 149.177 128.449M50.8226 128.449C55.0937 142.416 75.4868 153 100 153C124.513 153 144.906 142.416 149.177 128.449" stroke="black" stroke-width="2"/>
<path fill-rule="evenodd" clip-rule="evenodd" d="M100 103C126.51 103 148 91.1355 148 76.5C148 61.8645 126.51 50 100 50C73.4903 50 52 61.8645 52 76.5C52 91.1355 73.4903 103 100 103ZM146 75C146 88.8071 125.405 100 100 100C74.5949 100 54 88.8071 54 75C54 61.1929 74.5949 50 100 50C125.405 50 146 61.1929 146 75Z" fill="#B6B6B6"/>
<path d="M100 50C74.5949 50 54 61.1929 54 75C54 88.8071 74.5949 100 100 100C125.405 100 146 88.8071 146 75C146 61.1929 125.405 50 100 50ZM100 50C73.4903 50 52 61.8645 52 76.5C52 91.1355 73.4903 103 100 103C126.51 103 148 91.1355 148 76.5C148 61.8645 126.51 50 100 50Z" stroke="#949494" stroke-width="2"/>
<path d="M110 62C110 62.5217 109.551 63.2633 108.21 63.934C106.928 64.5748 105.088 65 103 65C100.912 65 99.072 64.5748 97.7904 63.934C96.4489 63.2633 96 62.5217 96 62C96 61.4783 96.4489 60.7367 97.7904 60.066C99.072 59.4252 100.912 59 103 59C105.088 59 106.928 59.4252 108.21 60.066C109.551 60.7367 110 61.4783 110 62Z" fill="#B6B6B6" stroke="#949494" stroke-width="2"/>
<path d="M131 74C131 74.5217 130.551 75.2633 129.21 75.934C127.928 76.5748 126.088 77 124 77C121.912 77 120.072 76.5748 118.79 75.934C117.449 75.2633 117 74.5217 117 74C117 73.4783 117.449 72.7367 118.79 72.066C120.072 71.4252 121.912 71 124 71C126.088 71 127.928 71.4252 129.21 72.066C130.551 72.7367 131 73.4783 131 74Z" fill="#B6B6B6" stroke="#949494" stroke-width="2"/>
<path d="M86 73C86 73.5217 85.5511 74.2633 84.2096 74.934C82.928 75.5748 81.0876 76 79 76C76.9124 76 75.072 75.5748 73.7904 74.934C72.4489 74.2633 72 73.5217 72 73C72 72.4783 72.4489 71.7367 73.7904 71.066C75.072 70.4252 76.9124 70 79 70C81.0876 70 82.928 70.4252 84.2096 71.066C85.5511 71.7367 86 72.4783 86 73Z" fill="#B6B6B6" stroke="#949494" stroke-width="2"/>
<path d="M107 85C107 85.5217 106.551 86.2633 105.21 86.934C103.928 87.5748 102.088 88 100 88C97.9124 88 96.072 87.5748 94.7904 86.934C93.4489 86.2633 93 85.5217 93 85C93 84.4783 93.4489 83.7367 94.7904 83.066C96.072 82.4252 97.9124 82 100 82C102.088 82 103.928 82.4252 105.21 83.066C106.551 83.7367 107 84.4783 107 85Z" fill="#B6B6B6" stroke="#949494" stroke-width="2"/>
</svg>
