<svg width="200" height="200" viewBox="0 0 200 200" fill="none" xmlns="http://www.w3.org/2000/svg">
<path d="M87.002 145.778V120.778M113.002 120.778V145.778M140.002 85.7778C140.002 96.3381 122.093 104.778 100.002 104.778C77.9106 104.778 60.002 96.3381 60.002 85.7778C60.002 75.2176 77.9106 66.7778 100.002 66.7778C122.093 66.7778 140.002 75.2176 140.002 85.7778ZM60.5341 119.001L46.5983 111.623C45.6162 111.103 45.002 110.083 45.002 108.972V107.439C45.002 106.685 45.8038 106.202 46.4698 106.555L60.4056 113.933C61.3877 114.453 62.002 115.473 62.002 116.584V118.117C62.002 118.871 61.2001 119.353 60.5341 119.001Z" stroke="#949494" stroke-width="2"/>
<path fill-rule="evenodd" clip-rule="evenodd" d="M27.002 105.07C26.9998 104.973 26.9998 104.876 27.002 104.778V105.07ZM173.002 106.713C172.836 108.917 171.462 110.569 169.002 111.778L113.002 139.778C104.556 143.926 94.3768 144.07 86.002 139.778L31.002 110.778C28.4941 109.493 27.0578 107.472 27.002 105.07V110.778C26.9438 113.308 28.3931 116.441 31.002 117.778L86.002 145.778C94.3768 150.07 104.556 149.926 113.002 145.778L169.002 117.778C171.52 116.541 172.906 114.194 173.002 111.778V106.713ZM173.002 105.778V106.713C173.025 106.412 173.025 106.1 173.002 105.778Z" fill="#B6B6B6"/>
<path d="M27.002 86.7778C27.0577 89.197 28.508 91.4997 31.002 92.7778L86.002 120.778C94.3768 125.07 104.556 125.926 113.002 121.778L169.002 93.7778C171.328 92.6356 172.743 90.9977 173.002 88.7778M27.002 86.7778C26.9416 84.1515 28.2418 81.056 31.002 79.7778L87.002 54.7778C94.9733 51.0864 104.042 51.0617 112.002 54.7778L169.002 80.7778C171.991 82.173 173.332 85.952 173.002 88.7778M27.002 86.7778V104.778M173.002 88.7778V105.778M173.002 105.778C173.025 106.1 173.025 106.412 173.002 106.713M173.002 105.778V106.713M27.002 104.778C26.9998 104.876 26.9998 104.973 27.002 105.07M27.002 104.778V105.07M173.002 106.713V111.778C172.906 114.194 171.52 116.541 169.002 117.778L113.002 145.778C104.556 149.926 94.3768 150.07 86.002 145.778L31.002 117.778C28.3931 116.441 26.9438 113.308 27.002 110.778V105.07M173.002 106.713C172.836 108.917 171.462 110.569 169.002 111.778L113.002 139.778C104.556 143.926 94.3768 144.07 86.002 139.778L31.002 110.778C28.4941 109.493 27.0578 107.472 27.002 105.07" stroke="black" stroke-width="2"/>
</svg>
