<svg width="200" height="200" viewBox="0 0 200 200" fill="none" xmlns="http://www.w3.org/2000/svg">
<path d="M100 175C127.614 175 150 163.136 150 148.5C150 147.657 149.926 146.823 149.78 146C147.404 159.463 126.023 170 100 170C73.9765 170 52.5965 159.463 50.2196 146C50.0743 146.823 50 147.657 50 148.5C50 163.136 72.3858 175 100 175Z" fill="#B6B6B6"/>
<path d="M50.2196 146C52.5965 159.463 73.9765 170 100 170C126.023 170 147.404 159.463 149.78 146M50.2196 146C50.0743 146.823 50 147.657 50 148.5C50 163.136 72.3858 175 100 175C127.614 175 150 163.136 150 148.5C150 147.657 149.926 146.823 149.78 146M50.2196 146C50.2625 145.757 50.3117 145.514 50.367 145.273C54.2115 137.246 59.9462 130.296 66.9946 125M149.78 146C149.737 145.757 149.688 145.514 149.633 145.273C145.789 137.246 140.054 130.296 133.005 125M66.9946 125C76.1878 131.907 87.6159 136 100 136C112.384 136 123.812 131.907 133.005 125M66.9946 125C53.6388 114.965 45 98.9916 45 81C45 50.6243 69.6243 26 100 26C130.376 26 155 50.6243 155 81C155 98.9916 146.361 114.965 133.005 125" stroke="black" stroke-width="2"/>
<path fill-rule="evenodd" clip-rule="evenodd" d="M62.8812 61.541C57.4995 79.6403 58.5417 92.0418 62.9995 106C68.5712 118.86 90.7704 128.532 99.7517 117.694C102.654 114.191 102.719 109.393 102.781 104.757C102.791 104.018 102.801 103.282 102.823 102.557C103.105 92.9777 104.621 79.5165 105.878 69.7377C106.872 62.0036 106.916 53.5844 101.868 47.6413C93.2842 37.5363 78.9788 36.657 67.4348 52.1032C65.3303 54.9191 63.8832 58.1714 62.8812 61.541ZM82.0001 104C91.9412 104 100 93.9264 100 81.5C100 69.0736 91.9412 59 82.0001 59C72.0589 59 64.0001 69.0736 64.0001 81.5C64.0001 93.9264 72.0589 104 82.0001 104Z" fill="#B6B6B6" stroke="#949494" stroke-width="2"/>
<path fill-rule="evenodd" clip-rule="evenodd" d="M80 90C84.4183 90 88 86.4183 88 82C88 77.5817 84.4183 74 80 74C75.5817 74 72 77.5817 72 82C72 86.4183 75.5817 90 80 90ZM79 87C81.7614 87 84 84.7614 84 82C84 79.2386 81.7614 77 79 77C76.2386 77 74 79.2386 74 82C74 84.7614 76.2386 87 79 87Z" fill="#B6B6B6" stroke="black" stroke-width="2"/>
<circle cx="80" cy="150" r="8" stroke="#949494" stroke-width="2"/>
</svg>
