<svg width="200" height="200" viewBox="0 0 200 200" fill="none" xmlns="http://www.w3.org/2000/svg">
<path d="M113.061 87.2577L167.227 60.3638" stroke="#949494" stroke-width="2"/>
<path d="M105.106 70.2125L157.379 44.0762M108.136 148.622L55.106 121.728M112.303 136.122L59.2727 109.228M83.5151 75.1368L94.4999 69.0762M86.1666 79.3034C86.4696 79.3034 93.6161 75.5156 97.1515 73.6216M77.0757 171.728C76.2697 171.774 71.4401 160.83 71.7727 156.197M89.9545 172.106C92.8157 166.354 93.7807 162.816 94.8787 156.197M65.9713 130.453L98.1445 147.318C99.7855 148.179 99.7629 150.536 98.1057 151.364L93.7656 153.534C87.107 156.864 79.2402 156.721 72.7069 153.152L40.4744 135.546C39.4269 134.974 39.4215 133.472 40.4649 132.892L44.3822 130.716C51.075 126.997 59.1902 126.899 65.9713 130.453Z" stroke="#949494" stroke-width="2" stroke-linecap="round"/>
<path d="M62.303 52.7879L110.04 27.5933C114.319 25.3352 119.418 25.256 123.765 27.3803L158.771 44.4886C163.95 47.0194 167.244 52.2692 167.27 58.0328L167.564 123.016C167.59 128.731 164.398 133.974 159.31 136.575L90.6877 171.663C86.4142 173.848 81.3581 173.879 77.0581 171.746L47.8953 157.283C41.2561 153.991 36.6392 147.668 35.5243 140.342L34.6515 134.606M64.9545 67.1818L76.323 60.9499C76.7168 60.7588 77.1947 60.7345 77.6408 60.9499L95.2576 69.4545C96.5863 70.096 97.4207 71.45 97.4077 72.9254C97.3524 79.1734 97.3942 88.2586 97.4201 92.6147C97.4243 93.3136 96.9751 93.8604 96.3939 94.0582C92.7323 96.0843 85.7879 99.7576 85.7879 99.7576M77.8333 82.7121L71.7727 79.6818C70.7642 80.6903 70.3976 81.4256 70.4575 81.9545M77.8333 82.7121C74.803 84.6061 70.6898 84.0084 70.4575 81.9545M77.8333 82.7121V96.8916M70.4575 81.9545L70.4717 92.965M70.4717 92.965V97.8636C70.9518 99.7525 74.0455 101.273 77.8333 99.7576V96.8916M70.4717 92.965C68.9408 92.1404 67.4648 91.3389 66.1354 90.607C64.9356 89.9464 64.197 88.6824 64.197 87.3129V68.4594C64.197 67.3422 65.3648 66.6092 66.3708 67.0949L83.9876 75.5996C85.3163 76.241 86.1508 77.595 86.1377 79.0704C86.0825 85.3184 86.1243 94.4036 86.1502 98.7597C86.157 99.9023 84.947 100.636 83.935 100.105C82.4155 99.3087 80.247 98.169 77.8333 96.8916M35.9184 132.296L50.5898 125.063C55.6877 122.55 58.9504 117.395 59.0401 111.713L59.9004 57.2262C59.9613 53.372 63.9836 50.8683 67.4687 52.5154L104.383 69.9613C109.681 72.4652 113.061 77.7999 113.061 83.66V137.565C113.061 143.231 109.9 148.424 104.866 151.025L93.8858 156.701C87.1661 160.175 79.1586 160.077 72.5254 156.441L35.8308 136.327C34.2179 135.443 34.2686 133.109 35.9184 132.296Z" stroke="black" stroke-width="2"/>
<path d="M90.3333 112.636C90.3333 117.448 82.7018 121.349 73.2879 121.349C63.8739 121.349 56.2424 117.448 56.2424 112.636C56.2424 107.825 63.8739 103.924 73.2879 103.924C82.7018 103.924 90.3333 107.825 90.3333 112.636Z" fill="#B6B6B6"/>
<path d="M90.3333 112.636C90.3333 117.448 82.7018 121.349 73.2879 121.349C63.8739 121.349 56.2424 117.448 56.2424 112.636V136.879C56.2424 141.69 63.8739 145.591 73.2879 145.591C81.0213 145.591 87.5519 142.959 89.6371 139.352C88.4238 139.126 87.3753 138.606 86.3989 138.144C86.0667 137.987 85.8874 137.617 85.9765 137.261L86.1667 136.5L88.4074 135.22C88.6588 135.076 88.9676 135.093 89.2203 135.234C89.5956 135.444 89.9677 135.589 90.3333 135.677V125.261C89.007 124.831 87.6326 124.571 86.2449 124.366C85.4834 124.253 85.3391 123.218 86.0467 122.915L88.6267 121.809C88.752 121.756 88.8896 121.737 89.0247 121.755C89.4898 121.818 89.924 121.88 90.3333 121.947V121.349V112.636Z" fill="white"/>
<path d="M93.5513 126.777C95.298 127.923 95.8907 130.107 95.672 132.184C95.4128 134.646 94.0251 137.113 91.595 137.587C91.1343 137.677 90.6953 137.713 90.2585 137.701C89.0243 137.664 87.8075 137.233 86.1667 136.5L85.9765 137.261C85.8874 137.617 86.0667 137.987 86.3989 138.144C87.3753 138.606 88.4238 139.126 89.6371 139.352C91.1016 139.623 92.806 139.465 94.9133 138.256C99.0539 135.88 100.251 128.204 96.5146 124.814C94.4505 122.941 92.8677 122.36 90.3333 121.947C89.924 121.88 89.4898 121.818 89.0247 121.755C88.8896 121.737 88.752 121.756 88.6267 121.809L86.0467 122.915C85.3391 123.218 85.4834 124.253 86.2449 124.366C87.6326 124.571 89.007 124.831 90.3333 125.261C91.4467 125.623 92.5262 126.105 93.5513 126.777Z" fill="white"/>
<path d="M91.595 137.587C94.0251 137.113 95.4128 134.646 95.672 132.184C95.8907 130.107 95.298 127.923 93.5513 126.777C92.5262 126.105 91.4467 125.623 90.3333 125.261V135.677C89.9677 135.589 89.5956 135.444 89.2203 135.234C88.9676 135.093 88.6588 135.076 88.4074 135.22L86.1667 136.5C87.8075 137.233 89.0243 137.664 90.2585 137.701C90.6953 137.713 91.1343 137.677 91.595 137.587Z" fill="white"/>
<path d="M90.3333 112.636C90.3333 117.448 82.7018 121.349 73.2879 121.349C63.8739 121.349 56.2424 117.448 56.2424 112.636M90.3333 112.636C90.3333 107.825 82.7018 103.924 73.2879 103.924C63.8739 103.924 56.2424 107.825 56.2424 112.636M90.3333 112.636V121.349V121.947M56.2424 112.636V136.879C56.2424 141.69 63.8739 145.591 73.2879 145.591C81.0213 145.591 87.5519 142.959 89.6371 139.352M86.1667 136.5L88.4074 135.22C88.6588 135.076 88.9676 135.093 89.2203 135.234C89.5956 135.444 89.9677 135.589 90.3333 135.677M86.1667 136.5L85.9765 137.261C85.8874 137.617 86.0667 137.987 86.3989 138.144C87.3753 138.606 88.4238 139.126 89.6371 139.352M86.1667 136.5C87.8075 137.233 89.0243 137.664 90.2585 137.701C90.6953 137.713 91.1343 137.677 91.595 137.587C94.0251 137.113 95.4128 134.646 95.672 132.184V132.184C95.8907 130.107 95.298 127.923 93.5513 126.777C92.5262 126.105 91.4467 125.623 90.3333 125.261M95.6575 132.143C94.7082 134.475 92.6506 136.232 90.3333 135.677M90.3333 121.947C89.924 121.88 89.4898 121.818 89.0247 121.755C88.8896 121.737 88.752 121.756 88.6267 121.809L86.0467 122.915C85.3391 123.218 85.4834 124.253 86.2449 124.366C87.6326 124.571 89.007 124.831 90.3333 125.261M90.3333 121.947C92.8677 122.36 94.4505 122.941 96.5146 124.814C100.251 128.204 99.0539 135.88 94.9133 138.256C92.806 139.465 91.1016 139.623 89.6371 139.352M90.3333 125.261V135.677" stroke="#949494" stroke-width="2"/>
</svg>
