<svg width="200" height="200" viewBox="0 0 200 200" fill="none" xmlns="http://www.w3.org/2000/svg">
<path d="M88.8355 105.475L92.8076 97.531L87.8076 95.531L83.8355 103.475C83.4883 104.17 83.3076 104.935 83.3076 105.711V144.102C83.3076 145.636 84.0116 147.084 85.2174 148.032L87.2422 149.624C87.6172 149.919 88.0325 150.159 88.4754 150.336L92.8076 152.069L89.4272 147.909C88.703 147.018 88.3076 145.904 88.3076 144.756V107.711C88.3076 106.935 88.4883 106.17 88.8355 105.475Z" stroke="black" stroke-width="2" stroke-linejoin="round"/>
<path d="M30.3076 118.504V69.6511C30.3076 68.9164 31.0733 68.4326 31.7369 68.7479L76.454 90.002C78.197 90.8304 79.3076 92.588 79.3076 94.5178V144.899C79.3076 145.646 78.519 146.129 77.8537 145.79L33.038 122.96C31.3625 122.106 30.3076 120.385 30.3076 118.504Z" fill="#B6B6B6"/>
<path d="M117.308 100.569V174.569M126.808 98.5686V172.069M76.454 90.002L31.7369 68.7479C31.0733 68.4326 30.3076 68.9164 30.3076 69.6511V118.504C30.3076 120.385 31.3625 122.106 33.038 122.96L77.8537 145.79C78.519 146.129 79.3076 145.646 79.3076 144.899V94.5178C79.3076 92.588 78.197 90.8304 76.454 90.002Z" stroke="#949494" stroke-width="2" stroke-linejoin="round"/>
<path d="M110.389 151.809C111.496 154.564 111.273 157.397 110.007 159.068C109.746 159.413 109.44 159.708 109.093 159.943C108.886 160.084 108.663 160.202 108.427 160.297C105.872 161.324 102.608 159.188 101.137 155.526C99.9547 152.583 100.291 149.55 101.795 147.94C102.162 147.547 102.599 147.239 103.1 147.038C105.655 146.012 108.918 148.148 110.389 151.809Z" fill="#B6B6B6"/>
<path d="M103.1 147.038C105.655 146.012 108.918 148.148 110.389 151.809C111.496 154.564 111.273 157.397 110.007 159.068C109.746 159.413 109.44 159.708 109.093 159.943M103.1 147.038C102.599 147.239 102.162 147.547 101.795 147.94C100.291 149.55 99.9547 152.583 101.137 155.526C102.608 159.188 105.872 161.324 108.427 160.297C108.663 160.202 108.886 160.084 109.093 159.943M103.1 147.038C103.238 146.987 104.629 146.161 105.308 145.755C105.503 145.626 105.712 145.516 105.934 145.427C108.489 144.401 111.752 146.537 113.223 150.198C114.498 153.372 114.008 156.649 112.192 158.135L109.093 159.943" stroke="#949494" stroke-width="2"/>
<path d="M24.001 55.0685C23.9793 54.208 24.3185 53.3389 25.0218 52.7315C25.384 52.4188 25.8513 52.2214 26.277 52.0029C26.9915 51.6362 28.1257 51.0424 28.8076 50.6837L74.2799 27.2257C79.9535 24.2989 86.6834 24.2564 92.3935 27.1115L174.962 68.396C176.238 69.0335 176.778 70.3534 176.582 71.5685M24.001 55.0685C24.0274 56.1183 24.591 57.1553 25.6861 57.6888L97.2813 92.5685M24.001 55.0685L24.001 125.569C24.0274 126.618 25.2125 129.035 26.3076 129.569L97.2813 166.569M176.582 71.5685C176.438 72.4568 175.902 73.2892 174.971 73.7582L126.658 98.1078C121.082 100.919 114.512 100.963 108.898 98.2277L97.2813 92.5685M176.582 71.5685V145.569C176.438 146.457 175.902 147.289 174.971 147.758L126.658 172.108C121.082 174.919 114.512 174.963 108.898 172.228L97.2813 166.569M97.2813 92.5685V166.569M97.2813 92.5685V92.5685C99.9896 91.1565 99.9438 87.2655 97.2032 85.9175L27.2376 51.5056" stroke="black" stroke-width="2" stroke-linejoin="round"/>
</svg>
