<svg width="200" height="200" viewBox="0 0 200 200" fill="none" xmlns="http://www.w3.org/2000/svg">
<path d="M59.573 129.458L56.8314 128.772C55.0175 128.319 53.7478 126.694 53.7551 124.824C53.8707 95.2628 53.9714 42.9571 53.7423 36C53.7474 36.1772 54.2631 36.6133 54.7878 37.0715C55.4207 37.6243 56.2353 38 57.0756 38C58.0971 38 59.0308 38.5771 59.4876 39.4907L59.764 40.0435L59.7942 40.1038C60.3836 41.2826 61.541 42.0726 62.8536 42.1919L71.7423 43L75.5502 132.487C75.6504 134.841 73.6004 136.714 71.2652 136.403L63.716 135.396C62.0136 135.17 60.7423 133.717 60.7423 132L60.7248 130.362C60.4976 129.93 60.0951 129.588 59.573 129.458Z" fill="#B6B6B6"/>
<path d="M128.742 72C128.742 72 128.893 72.3388 129.112 72.8407C129.933 74.7243 132.905 75.9189 134.742 75C134.365 75.759 133.129 77.5163 133.742 78C133.742 78 135.429 79.8531 141.742 79C140.988 79.759 138.837 82 139.742 82H147.742L150.664 169.652C150.707 170.936 149.677 172 148.393 172H146.015C144.76 172 143.742 170.982 143.742 169.727V169L135.309 169.843C134.47 169.927 133.742 169.268 133.742 168.425V168C133.742 167.448 133.295 167 132.742 167C129.989 167 127.766 164.753 127.795 162L128.742 72Z" fill="#B6B6B6"/>
<path d="M53.7423 35C53.7602 35.0533 53.7276 35.5533 53.7423 36M60.7423 132V132C61.2555 130.974 60.6862 129.736 59.573 129.458L56.8314 128.772C55.0175 128.319 53.7478 126.694 53.7551 124.824C53.8707 95.2628 53.9714 42.9571 53.7423 36M60.7423 132V132C60.7423 133.717 62.0136 135.17 63.716 135.396L71.2652 136.403C73.6004 136.714 75.6504 134.841 75.5502 132.487L71.7423 43L62.8536 42.1919C61.541 42.0726 60.3836 41.2826 59.7942 40.1038L59.4876 39.4907C59.0308 38.5771 58.0971 38 57.0756 38V38C56.2353 38 55.4207 37.6243 54.7878 37.0715C54.2631 36.6133 53.7474 36.1772 53.7423 36M60.7423 132L59.7423 38M133.742 78C133.129 77.5163 134.365 75.759 134.742 75V75C132.905 75.9189 129.933 74.7243 129.112 72.8407C128.893 72.3388 128.742 72 128.742 72L127.795 162C127.766 164.753 129.989 167 132.742 167V167M133.742 78C133.742 78 135.429 79.8531 141.742 79C140.987 79.759 138.837 82 139.742 82M133.742 78L132.742 167M139.742 82C140.648 82 145.478 82 147.742 82L150.664 169.652C150.707 170.936 149.677 172 148.393 172H146.015C144.76 172 143.742 170.982 143.742 169.727V169M139.742 82L143.742 169M143.742 169L135.309 169.843C134.47 169.927 133.742 169.268 133.742 168.425V168C133.742 167.448 133.295 167 132.742 167V167" stroke="#949494" stroke-width="2" stroke-linejoin="round"/>
<path d="M147.918 80.9482V80.9482C148.912 81.4293 150.108 81.0133 150.589 80.019V80.019C151.07 79.0247 150.654 77.8287 149.66 77.3476V77.3476M147.918 80.9482L49.8003 33.4718C48.806 32.9906 48.39 31.7946 48.8711 30.8003V30.8003C49.3522 29.806 50.5483 29.39 51.5426 29.8711L149.66 77.3476M147.918 80.9482C145.717 79.8835 147.237 76.1752 149.66 77.3476" stroke="black" stroke-width="2"/>
</svg>
