<svg width="200" height="200" viewBox="0 0 200 200" fill="none" xmlns="http://www.w3.org/2000/svg">
<path d="M65.5 56.229V54.729L66.5 55.229V56.729L65.5 56.229Z" fill="#B6B6B6"/>
<path d="M69.5 58.229V56.729L70.5 57.229V58.729L69.5 58.229Z" fill="#B6B6B6"/>
<path d="M52.095 91.4894L52.4972 91.2308C49.6294 89.4031 49.5465 85.1277 52.5 83.229V91.229V91.2326C52.637 91.3198 52.7803 91.4014 52.9299 91.4768L97 113.707L97.6912 114.056C100.352 115.398 103.53 115.196 106 113.529V121.529C103.53 123.196 100.352 123.398 97.6912 122.056L97 121.707L52.5 99.26C49.4046 97.6986 49.1786 93.3642 52.095 91.4894Z" fill="#B6B6B6"/>
<path d="M56 80.979L52.5 83.229V91.229L56 88.979L58.5 87.229L59.5 87V78.5C58.3333 79.3333 56 80.9958 56 80.979Z" fill="#B6B6B6"/>
<path d="M121.5 103.229L106 113.529V121.529L121.5 111.729L122.5 111V102.5L121.5 103.229Z" fill="#B6B6B6"/>
<path d="M121.5 103.229L122.053 104.062C122.066 104.054 122.077 104.046 122.089 104.037L121.5 103.229ZM56 80.979L57 80.9799C57.0004 80.614 56.8008 80.277 56.4796 80.1015C56.1585 79.926 55.7671 79.9399 55.4593 80.1378L56 80.979ZM121.5 111.729L122.034 112.574C122.053 112.562 122.071 112.55 122.089 112.537L121.5 111.729ZM56 88.979L56.5408 89.8202C56.5518 89.8131 56.5627 89.8058 56.5735 89.7982L56 88.979ZM58.5 87.229L58.2768 86.2542C58.1511 86.283 58.0322 86.3358 57.9266 86.4098L58.5 87.229ZM106 113.529L105.447 112.696L105.441 112.7L106 113.529ZM104.5 74.729H105.5C105.5 74.3502 105.286 74.004 104.947 73.8346L104.5 74.729ZM92.5 68.729L92.9472 67.8346C92.6372 67.6796 92.2691 67.6961 91.9743 67.8784C91.6795 68.0606 91.5 68.3824 91.5 68.729H92.5ZM92.5 70.229H91.5C91.5 70.6078 91.714 70.954 92.0528 71.1234L92.5 70.229ZM104.5 76.229L104.053 77.1234C104.363 77.2784 104.731 77.2619 105.026 77.0797C105.321 76.8974 105.5 76.5756 105.5 76.229H104.5ZM61.5 52.729L61.9472 51.8346C61.6372 51.6796 61.2691 51.6961 60.9743 51.8784C60.6795 52.0606 60.5 52.3824 60.5 52.729H61.5ZM61.5 54.229H60.5C60.5 54.6078 60.714 54.954 61.0528 55.1234L61.5 54.229ZM62.5 53.229H63.5C63.5 52.8502 63.286 52.504 62.9472 52.3346L62.5 53.229ZM62.5 54.729L62.0528 55.6234C62.3628 55.7784 62.7309 55.7619 63.0258 55.5797C63.3206 55.3974 63.5 55.0756 63.5 54.729H62.5ZM65.5 54.729L65.9472 53.8346C65.6372 53.6796 65.2691 53.6961 64.9743 53.8784C64.6795 54.0606 64.5 54.3824 64.5 54.729H65.5ZM65.5 56.229H64.5C64.5 56.6078 64.714 56.954 65.0528 57.1234L65.5 56.229ZM66.5 55.229H67.5C67.5 54.8502 67.286 54.504 66.9472 54.3346L66.5 55.229ZM66.5 56.729L66.0528 57.6234C66.3628 57.7784 66.7309 57.7619 67.0257 57.5797C67.3206 57.3974 67.5 57.0756 67.5 56.729H66.5ZM69.5 56.729L69.9472 55.8346C69.6372 55.6796 69.2691 55.6961 68.9743 55.8784C68.6795 56.0606 68.5 56.3824 68.5 56.729H69.5ZM69.5 58.229H68.5C68.5 58.6078 68.714 58.954 69.0528 59.1234L69.5 58.229ZM70.5 57.229H71.5C71.5 56.8502 71.286 56.504 70.9472 56.3346L70.5 57.229ZM70.5 58.729L70.0528 59.6234C70.3628 59.7784 70.7309 59.7619 71.0258 59.5797C71.3206 59.3974 71.5 59.0756 71.5 58.729H70.5ZM57.6 89.029C58.0418 88.6976 58.1314 88.0708 57.8 87.629C57.4687 87.1872 56.8419 87.0976 56.4 87.429L57.6 89.029ZM52.095 91.4894L51.5542 90.6482L51.5542 90.6482L52.095 91.4894ZM120.553 105.062C121.013 104.756 121.139 104.136 120.833 103.676C120.527 103.216 119.907 103.09 119.447 103.396L120.553 105.062ZM120.532 113.576C121 113.282 121.141 112.664 120.847 112.197C120.553 111.729 119.935 111.588 119.468 111.882L120.532 113.576ZM97.6912 114.056L97.2408 114.948L97.6912 114.056ZM97 113.707L97.4504 112.814L97 113.707ZM52.9299 91.4768L53.3803 90.584H53.3803L52.9299 91.4768ZM97.6912 122.056L97.2408 122.948H97.2408L97.6912 122.056ZM52.5 99.26L52.0496 100.153L52.5 99.26ZM59.5 78.5H60.5C60.5 78.1254 60.2907 77.7822 59.9576 77.6108C59.6245 77.4394 59.2236 77.4685 58.9188 77.6863L59.5 78.5ZM59.5 87L59.7232 87.9748C60.1777 87.8707 60.5 87.4663 60.5 87H59.5ZM53.0408 84.0702L56.5408 81.8202L55.4593 80.1378L51.9593 82.3878L53.0408 84.0702ZM53.0408 92.0702L56.5408 89.8202L55.4593 88.1378L51.9593 90.3878L53.0408 92.0702ZM56.5735 89.7982L59.0735 88.0482L57.9266 86.4098L55.4266 88.1598L56.5735 89.7982ZM120.947 102.396L105.447 112.696L106.553 114.362L122.053 104.062L120.947 102.396ZM120.966 110.884L105.466 120.684L106.534 122.374L122.034 112.574L120.966 110.884ZM109 73.729V81.729H111V73.729H109ZM109 160.729V171.729H111V160.729H109ZM104.947 73.8346L92.9472 67.8346L92.0528 69.6234L104.053 75.6234L104.947 73.8346ZM91.5 68.729V70.229H93.5V68.729H91.5ZM105.5 76.229V74.729H103.5V76.229H105.5ZM92.0528 71.1234L98.0528 74.1234L98.9472 72.3346L92.9472 69.3346L92.0528 71.1234ZM98.0528 74.1234L104.053 77.1234L104.947 75.3346L98.9472 72.3346L98.0528 74.1234ZM60.5 52.729V54.229H62.5V52.729H60.5ZM62.9472 52.3346L61.9472 51.8346L61.0528 53.6234L62.0528 54.1234L62.9472 52.3346ZM61.0528 55.1234L62.0528 55.6234L62.9472 53.8346L61.9472 53.3346L61.0528 55.1234ZM61.5 53.229V54.729H63.5V53.229H61.5ZM64.5 54.729V56.229H66.5V54.729H64.5ZM66.9472 54.3346L65.9472 53.8346L65.0528 55.6234L66.0528 56.1234L66.9472 54.3346ZM65.0528 57.1234L66.0528 57.6234L66.9472 55.8346L65.9472 55.3346L65.0528 57.1234ZM65.5 55.229V56.729H67.5V55.229H65.5ZM68.5 56.729V58.229H70.5V56.729H68.5ZM70.9472 56.3346L69.9472 55.8346L69.0528 57.6234L70.0528 58.1234L70.9472 56.3346ZM69.0528 59.1234L70.0528 59.6234L70.9472 57.8346L69.9472 57.3346L69.0528 59.1234ZM69.5 57.229V58.729H71.5V57.229H69.5ZM56.6 89.779L57.6 89.029L56.4 87.429L55.4 88.179L56.6 89.779ZM52.6357 92.3306L53.038 92.072L51.9564 90.3896L51.5542 90.6482L52.6357 92.3306ZM53.04 92.0707L53.0428 92.0689L51.9572 90.3891L51.9544 90.3909L53.04 92.0707ZM119.447 103.396L105.447 112.696L106.553 114.362L120.553 105.062L119.447 103.396ZM119.468 111.882L105.468 120.682L106.532 122.376L120.532 113.576L119.468 111.882ZM105 113.529V121.529H107V113.529H105ZM98.1416 113.163L97.4504 112.814L96.5496 114.6L97.2408 114.948L98.1416 113.163ZM97.4504 112.814L53.3803 90.584L52.4796 92.3697L96.5496 114.6L97.4504 112.814ZM98.1416 121.163L97.4504 120.814L96.5496 122.6L97.2408 122.948L98.1416 121.163ZM96 113.707V121.707H98V113.707H96ZM97.4504 120.814L52.9504 98.3671L52.0496 100.153L96.5496 122.6L97.4504 120.814ZM51.5 91.229V91.2326H53.5V91.229H51.5ZM51.5 91.2326V99.26H53.5V91.2326H51.5ZM51.5 83.229V91.229H53.5V83.229H51.5ZM51.5542 90.6482C47.9871 92.9414 48.2634 98.243 52.0496 100.153L52.9504 98.3671C50.5457 97.1541 50.3702 93.787 52.6357 92.3306L51.5542 90.6482ZM105.441 120.7C103.271 122.165 100.479 122.342 98.1416 121.163L97.2408 122.948C100.225 124.454 103.789 124.228 106.559 122.358L105.441 120.7ZM51.9593 82.3878C48.3825 84.6872 48.4862 89.8603 51.9597 92.0741L53.0347 90.3875C50.7726 88.9459 50.7105 85.5682 53.0408 84.0702L51.9593 82.3878ZM51.9609 92.0748L51.9637 92.0766L53.0364 90.3886L53.0335 90.3868L51.9609 92.0748ZM51.9631 92.0763C52.1282 92.1813 52.3004 92.2793 52.4796 92.3697L53.3803 90.584C53.2602 90.5234 53.1457 90.4582 53.0369 90.389L51.9631 92.0763ZM105.441 112.7C103.271 114.165 100.479 114.342 98.1416 113.163L97.2408 114.948C100.225 116.454 103.789 116.228 106.559 114.358L105.441 112.7ZM123.5 102.5V73.729H121.5V102.5H123.5ZM122.089 104.037L123.089 103.308L121.911 101.692L120.911 102.421L122.089 104.037ZM123.5 173.229V111H121.5V173.229H123.5ZM123.5 111V102.5H121.5V111H123.5ZM121.911 110.192L120.911 110.921L122.089 112.537L123.089 111.808L121.911 110.192ZM58.5 78.5V87H60.5V78.5H58.5ZM59.2768 86.0252L58.2768 86.2542L58.7232 88.2038L59.7232 87.9748L59.2768 86.0252ZM55 80.978C55.013 81.1398 55.1345 81.4799 55.2516 81.6423C55.3873 81.7693 55.6687 81.9226 55.7993 81.9588C56.0346 82.007 56.2221 81.9546 56.2486 81.9478C56.3536 81.9209 56.431 81.8818 56.4393 81.8777C56.4826 81.8567 56.516 81.8364 56.5224 81.8325C56.5453 81.8187 56.5661 81.8051 56.577 81.7979C56.603 81.7808 56.6353 81.7588 56.6695 81.7352C56.7397 81.6869 56.8387 81.6178 56.9577 81.5341C57.1968 81.3662 57.5265 81.1328 57.8914 80.8737C58.6216 80.3553 59.4975 79.7307 60.0812 79.3137L58.9188 77.6863C58.3358 78.1026 57.4617 78.726 56.7336 79.2429C56.3693 79.5015 56.0428 79.7327 55.8079 79.8977C55.69 79.9806 55.5975 80.0451 55.5356 80.0877C55.5037 80.1097 55.4848 80.1225 55.476 80.1283C55.4695 80.1325 55.4771 80.1274 55.4911 80.1189C55.493 80.1178 55.5231 80.0994 55.5641 80.0794C55.5713 80.0759 55.6479 80.0371 55.7522 80.0104C55.7785 80.0036 55.9658 79.9513 56.2009 79.9995C56.3315 80.0356 56.6129 80.1888 56.7485 80.3159C56.8656 80.4782 56.987 80.8182 57 80.9799L55 80.978Z" fill="#949494"/>
<path d="M109.5 139.207L110.191 139.556C112.852 140.898 116.03 140.696 118.5 139.029L122.5 136V144.5L118.5 147.029C116.104 148.646 112.948 148.572 110.631 146.844L109.5 146L98.5 133.658L109.5 139.207Z" fill="#B6B6B6"/>
<path d="M118.5 139.029V139.029C116.03 140.696 112.852 140.898 110.191 139.556L109.5 139.207M118.5 139.029V147.029M118.5 139.029L122.5 136V144.5L118.5 147.029M118.5 147.029V147.029C116.104 148.646 112.948 148.572 110.631 146.844L109.5 146M109.5 139.207C109.5 139.625 109.5 143.507 109.5 146M109.5 139.207L98.5 133.658L109.5 146" stroke="#949494" stroke-width="2" stroke-linejoin="round"/>
<path d="M59.5775 57.018L108.101 81.2796C112.602 83.5302 117.741 83.982 122.5 82.633V161.633M59.5775 57.018C58.8596 56.654 58.4992 55.9422 58.5006 55.2291L58.4998 46.3924M59.5775 57.018L59.5775 105.546M58.4998 46.3924C58.5982 45.8022 58.9574 45.2503 59.5775 44.9403L95.2351 27.1115C100.764 24.3469 107.261 24.2945 112.834 26.9695L162.801 50.9536C163.547 51.3117 163.926 52.018 163.935 52.7291M58.4998 46.3924C58.3642 47.2053 58.7235 48.091 59.5775 48.518L108.101 72.7796C113.706 75.5821 120.3 75.5955 125.917 72.8157L162.823 54.5491C163.575 54.1768 163.945 53.4505 163.935 52.7291M58.4998 134.566C58.5982 135.156 58.9574 135.708 59.5775 136.018L108.101 160.28C111.208 161.833 114.62 162.53 118 162.368M58.4998 134.566V144.892C58.3642 145.705 58.7235 146.591 59.5775 147.018L108.101 171.28C113.706 174.082 120.3 174.095 125.917 171.316L162.823 153.049C163.575 152.677 163.945 151.95 163.935 151.229V140.229C163.935 140.229 163.935 87.5997 163.935 61.2851V52.7291M58.4998 134.566L27 93.2291M122.5 161.633C121.026 162.051 119.516 162.296 118 162.368M122.5 161.633L121 159.368C109.667 146.489 86.8 120.429 86 119.229M27 93.2291L30 90.2291L59.5775 105.546M27 93.2291L59.5775 110.1L83 122.229M83 122.229C83.8 123.429 106.667 149.489 118 162.368M83 122.229C83.0534 122.303 85.0223 120.26 86 119.229M86 119.229L59.5775 105.546" stroke="black" stroke-width="2" stroke-linejoin="round"/>
<path d="M89.2982 74.0607C85.7829 70.4524 81.1791 68.5921 76.5631 69.4264C68.2154 70.9352 62.9893 80.685 64.8904 91.2034C66.2695 98.8338 71.0205 104.772 76.7124 106.882M89.2982 74.0607C87.144 73.2622 84.855 73.0122 82.5631 73.4264C74.2154 74.9352 68.9893 84.685 70.8904 95.2034C71.7402 99.9055 73.8705 103.965 76.7124 106.882M89.2982 74.0607C91.8173 74.9945 94.1521 76.6783 96.0919 78.9268M96.0919 78.9268C93.5079 77.6151 90.6672 77.1055 87.8219 77.6198C79.4742 79.1285 74.2481 88.8784 76.1492 99.3967C76.9179 103.65 78.7344 107.378 81.1774 110.21M96.0919 78.9268C101.089 81.4634 105.126 86.9999 106.379 93.933C108.28 104.451 103.054 114.201 94.7063 115.71C89.7341 116.609 84.776 114.381 81.1774 110.21M76.7124 106.882C78.0608 108.266 79.5694 109.393 81.1774 110.21M101.054 94.9371C102.398 102.372 99.1805 109.178 93.8679 110.138C88.5554 111.098 83.1593 105.849 81.8155 98.4143C80.4717 90.9791 83.689 84.1734 89.0015 83.2132C94.3141 82.253 99.7101 87.502 101.054 94.9371Z" stroke="#949494" stroke-width="2"/>
<path d="M106.001 113.529V121.529C103.531 123.196 100.353 123.398 97.692 122.056L97.0008 121.707L52.5008 99.26C50.8787 98.5268 50.111 97.032 50.0711 95.5C50.0671 95.3453 50.0705 95.1901 50.0812 95.0354L50.2503 87.232C50.2462 88.7988 50.9964 90.3622 52.5008 91.229C51.0405 91.9484 50.1892 93.4732 50.0812 95.0354L50.0711 95.5C50.111 97.032 50.8787 98.5268 52.5008 99.26L97.0008 121.707V113.707L97.692 114.056C100.353 115.398 103.531 115.196 106.001 113.529Z" fill="#B6B6B6"/>
<path d="M120.001 104.229L106.001 113.529M57.0008 80.229L56.0008 80.979C56.0008 80.979 55.5015 81.458 52.5008 83.229C51.0046 84.1121 50.2544 85.6737 50.2503 87.232M120.001 112.729L106.001 121.529M52.5008 91.229L56.0008 88.979L57.0008 88.229M52.5008 91.229C50.9964 90.3622 50.2462 88.7988 50.2503 87.232M52.5008 91.229C50.8958 92.0197 50.0265 93.7832 50.0711 95.5M106.001 113.529V113.529C103.531 115.196 100.353 115.398 97.692 114.056L97.0008 113.707C97.0008 114.125 97.0008 119.214 97.0008 121.707M106.001 113.529V121.529M106.001 121.529V121.529C103.531 123.196 100.353 123.398 97.692 122.056L97.0008 121.707M97.0008 121.707L52.5008 99.26C50.8787 98.5268 50.111 97.032 50.0711 95.5M50.2503 87.232L50.0711 95.5" stroke="#949494" stroke-width="2" stroke-linecap="round" stroke-linejoin="round"/>
</svg>
