<svg width="200" height="200" viewBox="0 0 200 200" fill="none" xmlns="http://www.w3.org/2000/svg">
<path d="M130.064 103C126.46 111.928 120.524 119.317 114.064 124C103.87 110.654 98.6889 87.3321 100.064 86C101.439 84.6679 102.356 83.7533 103.064 82C109.14 93.2106 115.293 98.0449 130.064 103Z" fill="#B6B6B6"/>
<path d="M127.064 44C131.746 52.3426 134.401 61.3707 135.064 72C122.113 79.0016 114.926 78.6924 103.064 76C102.951 74.1872 102.863 72.4228 102.064 71C113.034 64.8522 118.712 59.9958 127.064 44Z" fill="#B6B6B6"/>
<path d="M78.064 30.9999C86.9163 24.0405 96.2306 22.3018 106.064 25.9999C107.877 41.1938 106.822 49.4782 99.064 64.9999C96.8064 64.1509 94.0963 64.4022 92.064 65.9999C89.712 50.5624 87.1058 43.232 78.064 30.9999Z" fill="#B6B6B6"/>
<path d="M59.0637 80C58.6375 69.5073 60.3538 59.0687 64.0637 50C76.8178 53.9792 82.6079 58.6984 89.0637 71C88.212 73.082 87.9659 75.5911 88.0637 78C77.744 72.8071 71.1109 72.6684 59.0637 80Z" fill="#B6B6B6"/>
<path d="M84.064 126C77.2025 122.563 71.4571 116.12 67.064 108C74.6413 94.0917 79.6765 89.2142 90.064 84C91.0725 85.8643 92.4887 87.211 94.064 88C86.1224 100.324 83.6147 108.626 84.064 126Z" fill="#B6B6B6"/>
<ellipse cx="96.064" cy="76" rx="11" ry="16" stroke="#949494" stroke-width="2"/>
<ellipse cx="97.064" cy="76" rx="33" ry="46" stroke="#949494" stroke-width="2"/>
<ellipse cx="96.564" cy="76" rx="21.5" ry="33" stroke="#949494" stroke-width="2"/>
<path d="M97.064 128C118.051 128 135.064 104.719 135.064 76C135.064 47.2812 118.051 24 97.064 24M97.064 128C97.0073 128 97.1206 128 97.064 128C76.1553 127.875 59.064 104.641 59.064 76C59.064 47.2812 76.0771 24 97.064 24M97.064 128H99.064M97.064 24H102.064C123.051 24 140.064 47.2812 140.064 76C140.064 104.719 123.051 128 102.064 128M102.064 128H101.064H99.064M102.064 128V138M134.064 156C134.064 165.665 119.289 173 101.064 173C82.8386 173 68.064 165.665 68.064 156M134.064 156V160C134.064 169.665 119.289 177 101.064 177C82.8386 177 68.064 169.665 68.064 160V156M134.064 156C134.064 146.602 119.593 138.416 102.064 138M68.064 156C68.064 146.691 81.7698 138.548 99.064 138M99.064 128V138M99.064 138V154.5C99.064 155.328 99.7355 156 100.564 156V156C101.392 156 102.064 155.328 102.064 154.5V138" stroke="black" stroke-width="2"/>
<ellipse cx="96.064" cy="76" rx="8" ry="12" stroke="black" stroke-width="2"/>
</svg>
