<svg width="200" height="200" viewBox="0 0 200 200" fill="none" xmlns="http://www.w3.org/2000/svg">
<path d="M49.1299 69C44.5088 73.7392 42.1299 79.1945 42.1299 85C42.1299 103.225 69.5486 117.863 100.13 118C130.711 118.137 157.854 104.768 158.13 85C158.13 79.1945 155.751 73.7392 151.13 69M162.13 102C162.083 102.831 162.19 103.23 162.13 104C162.237 103.208 162.13 102.807 162.13 102Z" stroke="#949494" stroke-width="2"/>
<ellipse cx="98.6299" cy="74.5" rx="42.5" ry="22.5" stroke="black" stroke-width="2"/>
<path d="M162.13 102C162.083 102.831 162.19 103.23 162.13 104M162.13 102C162.13 102.807 162.236 103.208 162.13 104M162.13 102C162.966 87.2469 158.717 78.8255 153.13 72M150.13 68C151.261 69.1772 152.09 70.7292 153.13 72M155.13 126C159.452 118.267 161.407 113.267 162.13 104M155.13 126C147.831 139.422 125.943 149 100.13 149C74.7449 149 52.7798 140.078 45.13 127C40.4491 118.624 38.7425 112.837 38.13 102C37.1378 84.5 41.9244 76.5 49.13 69C58.9517 58.8612 78.468 52 100.13 52C121.123 52 140.076 58.3741 150.13 68C151.391 69.2074 152.142 70.6989 153.13 72" stroke="black" stroke-width="2"/>
</svg>
