<svg width="200" height="200" viewBox="0 0 200 200" fill="none" xmlns="http://www.w3.org/2000/svg">
<path d="M144 46C144 58.4264 124.301 68 100 68C75.6995 68 56 58.4264 56 46M144 46C144 33.5736 124.301 23 100 23C75.6995 23 56 33.5736 56 46M144 46V155C144 167.426 124.301 177 100 177C75.6995 177 56 167.426 56 155V46" stroke="black" stroke-width="2"/>
<path fill-rule="evenodd" clip-rule="evenodd" d="M65 114V134.868C65 135.57 65.3686 136.221 65.971 136.583L66.971 137.183C68.3041 137.982 70 137.022 70 135.468V116L65 114Z" fill="#B6B6B6"/>
<path d="M65 114V134.868C65 135.57 65.3686 136.221 65.971 136.583L66.971 137.183C68.3041 137.982 70 137.022 70 135.468V116M65 114V80.5324C65 78.9778 66.6959 78.0176 68.029 78.8174L69.029 79.4174C69.6314 79.7788 70 80.4299 70 81.1324V116M65 114L70 116" stroke="#949494" stroke-width="2" stroke-linejoin="round"/>
<ellipse cx="67.3402" cy="151.22" rx="6" ry="8.5" transform="rotate(-18.0662 67.3402 151.22)" stroke="#949494" stroke-width="2"/>
<path d="M100 58C115.464 58 128 52.9036 128 46C128 42.3017 124.718 38.2886 119 36C121.102 37.686 122 39.8671 122 42C122 48.0751 112.15 53 100 53C87.8497 53 78 48.0751 78 42C78 39.8671 78.8985 37.686 81 36C75.2819 38.2886 72 42.3017 72 46C72 52.9036 84.536 58 100 58Z" fill="#B6B6B6"/>
<path d="M81 36C78.8985 37.686 78 39.8671 78 42C78 48.0751 87.8497 53 100 53C112.15 53 122 48.0751 122 42C122 39.8671 121.102 37.686 119 36M81 36C84.8842 32.8838 92.1156 31 100 31C107.884 31 115.116 32.8838 119 36M81 36C75.2819 38.2886 72 42.3017 72 46C72 52.9036 84.536 58 100 58C115.464 58 128 52.9036 128 46C128 42.3017 124.718 38.2886 119 36" stroke="black" stroke-width="2"/>
</svg>
