<svg width="200" height="200" viewBox="0 0 200 200" fill="none" xmlns="http://www.w3.org/2000/svg">
<path d="M111.164 164.072C137.105 162.409 157.379 131.53 155.164 96.0724C152.949 60.6147 129.105 33.4086 103.164 35.0724C127.121 36.74 148.083 62.7596 150.164 96.0724C152.373 131.445 133.011 162.277 107.164 164.072C107.193 164.074 107.222 164.076 107.251 164.078C108.472 164.09 109.768 164.087 111.164 164.072Z" fill="#B6B6B6"/>
<path d="M86.164 41.0724C110.63 39.5031 133.075 65.6302 135.164 99.0724C137.144 130.776 119.698 157.997 97.164 162.072C95.9278 162.296 95.4363 161.991 94.164 162.072C91.805 162.224 89.4535 162.413 87.164 162.072M86.164 41.0724C86.2645 41.0651 86.0633 41.0789 86.164 41.0724ZM86.164 41.0724C82.6184 41.3323 78.3978 41.7519 75.164 43.0724M111.164 164.072C137.105 162.409 157.379 131.53 155.164 96.0724C152.949 60.6147 129.105 33.4086 103.164 35.0724M111.164 164.072C109.768 164.087 108.472 164.09 107.251 164.078M111.164 164.072C109.625 164.171 108.741 164.179 107.251 164.078M103.164 35.0724C127.121 36.74 148.083 62.7596 150.164 96.0724C152.373 131.445 133.011 162.277 107.164 164.072M103.164 35.0724C103.226 35.0681 103.102 35.0764 103.164 35.0724ZM103.164 35.0724C91.5846 36.2689 85.2375 38.2723 75.164 43.0724M107.164 164.072C107.102 164.077 107.226 164.068 107.164 164.072ZM107.164 164.072C107.193 164.074 107.222 164.076 107.251 164.078M75.164 43.0724C56.2228 50.8074 43.3872 76.6246 45.164 105.072C47.0513 135.29 65.7075 158.881 87.164 162.072M87.164 162.072C95.0954 163.428 99.7821 164.009 107.251 164.078" stroke="black" stroke-width="2"/>
<path d="M145.164 99.0723H141.164C141.635 106.397 140.568 113.476 139.164 120.072H143.164C144.568 113.476 145.635 106.397 145.164 99.0723Z" stroke="#949494" stroke-width="2" stroke-linejoin="round"/>
</svg>
