<svg width="200" height="200" viewBox="0 0 200 200" fill="none" xmlns="http://www.w3.org/2000/svg">
<path fill-rule="evenodd" clip-rule="evenodd" d="M72 68C83.0866 48.3217 90.2375 38.0971 103.641 22.5678C104.221 21.8959 105.315 22.1437 105.549 23C111.427 44.5143 114.092 57.4619 116 81C117.496 103.405 108.711 151.981 104.585 152.986C104.523 153.001 104.47 153.008 104.41 153.025C92.6226 156.284 74.0124 150.41 63.5 139.9C59.7721 136.173 57.0625 131.863 56.0366 127.171C56.0119 127.058 56.0086 126.939 56.0247 126.825C59.2695 103.833 62.2703 90.9116 72 68ZM129.112 58.8687C129.368 60.2733 129.928 61.6023 130.714 62.7942C130.718 62.8007 130.722 62.8072 130.727 62.8137C129.941 61.6216 129.368 60.2733 129.112 58.8687ZM126.958 72.5C135.632 92.5249 136.549 103.902 130.114 124.5C130.837 104.553 129.71 88.5792 126.958 72.5Z" fill="#B6B6B6"/>
<path d="M63.5 139.9C74.0124 150.41 92.6226 156.284 104.41 153.025C104.47 153.008 104.523 153.001 104.585 152.986C108.711 151.981 117.496 103.405 116 81C114.092 57.4619 111.427 44.5143 105.549 23M63.5 139.9C64.2023 147.462 65.7871 151.635 70.4254 158.884M63.5 139.9C59.7721 136.173 57.0625 131.863 56.0366 127.171M105.549 23V23C105.315 22.1437 104.221 21.8959 103.641 22.5678V22.5678M105.549 23C105.315 22.1437 104.221 21.8959 103.641 22.5678M105.549 23L115.764 32.0245M120.41 43C123.131 53.4335 125.329 62.9851 126.958 72.5M120.41 43C119.887 40.9943 119.345 38.956 118.783 36.8791M120.41 43L125.252 47.7807M128.846 145C129.463 137.671 129.883 130.882 130.114 124.5M128.846 145C128.563 148.353 128.24 151.818 127.875 155.409M128.846 145C129.037 144.677 129.244 144.331 129.464 143.963C136.248 132.615 155.5 100.412 130.727 62.8137M126.958 72.5C129.71 88.5792 130.837 104.553 130.114 124.5M126.958 72.5C135.632 92.5249 136.549 103.902 130.114 124.5M103.641 22.5678C90.2375 38.0971 83.0866 48.3217 72 68C62.2703 90.9116 59.2695 103.833 56.0247 126.825M115.764 32.0245C117.223 33.3134 118.275 34.9998 118.783 36.8791M115.764 32.0245V32.0245C117.223 33.3134 118.275 34.9998 118.783 36.8791V36.8791M125.252 47.7807C126.715 49.2251 127.697 51.0852 128.065 53.1078M125.252 47.7807V47.7807C126.715 49.2251 127.697 51.0852 128.065 53.1078V53.1078M128.065 53.1078L129.112 58.8687M129.112 58.8687C129.368 60.2733 129.941 61.6216 130.727 62.8137M129.112 58.8687V58.8687C129.368 60.2733 129.928 61.6023 130.714 62.7942C130.718 62.8007 130.722 62.8072 130.727 62.8137M127.875 155.409C127.633 157.785 126.953 160.094 125.886 162.229M127.875 155.409V155.409C127.633 157.785 126.953 160.094 125.886 162.229V162.229M125.886 162.229L123.954 166.092M123.954 166.092C122.054 169.892 118.797 172.839 114.827 174.351M123.954 166.092V166.092C122.054 169.892 118.797 172.839 114.827 174.351V174.351M114.827 174.351C111.994 175.431 108.919 175.743 105.938 175.194M114.827 174.351V174.351C111.994 175.431 108.919 175.743 105.938 175.194V175.194M105.938 175.194C91.2295 172.491 82.3417 169.548 70.6033 159.092M70.6033 159.092C70.5357 159.032 70.4742 158.96 70.4254 158.884M70.6033 159.092C70.6029 159.092 70.6024 159.091 70.6019 159.091C70.5342 159.031 70.4752 158.961 70.4264 158.885C70.426 158.885 70.4257 158.884 70.4254 158.884M56.0366 127.171C56.0119 127.058 56.0086 126.939 56.0247 126.825M56.0366 127.171V127.171C56.0119 127.058 56.0083 126.941 56.0244 126.827C56.0245 126.826 56.0246 126.825 56.0247 126.825" stroke="#949494" stroke-width="2" stroke-linecap="round" stroke-linejoin="round"/>
<path d="M64.5008 114.5C61.7285 113.731 72.8157 64.8122 101.291 35.7175C101.68 35.3199 102.296 35.3181 102.567 35.8043C107.177 44.0944 114.131 96.6616 102.5 130.5M84 73.5C88.3547 60.0216 98 47 99.5 45.5C101 44 103.179 65.7565 102.001 78.5" stroke="#949494" stroke-width="2" stroke-linecap="round" stroke-linejoin="round" stroke-dasharray="5 5"/>
<path d="M136.307 68.4593C137.071 58.8564 135.131 54.8088 128.068 51.5316C128.024 51.5111 127.975 51.5 127.926 51.5C127.708 51.5 127.548 51.7029 127.598 51.9147L129.467 59.8612C129.489 59.9533 129.524 60.0418 129.57 60.1242L134.497 68.8411C134.973 69.6824 136.23 69.4227 136.307 68.4593Z" fill="#B6B6B6"/>
<path d="M109.5 26.5C125.822 72.2283 122.441 102.809 112.076 152.636C112.028 152.868 112.062 153.114 112.176 153.323L121 169.5M65.0001 146.5C75.8438 157.885 99.1369 162.893 105.905 158.888C106.499 158.536 107.356 158.632 107.694 159.234L116 174M129.467 59.8612L127.598 51.9147C127.548 51.7029 127.708 51.5 127.926 51.5V51.5C127.975 51.5 128.024 51.5111 128.068 51.5316C135.131 54.8088 137.071 58.8564 136.307 68.4593C136.23 69.4227 134.973 69.6824 134.497 68.8411L129.57 60.1242C129.524 60.0418 129.489 59.9533 129.467 59.8612Z" stroke="#949494" stroke-width="2" stroke-linecap="round" stroke-linejoin="round"/>
<path d="M63.5 139.9C59.7721 136.173 57.0625 131.863 56.0366 127.171C56.0119 127.058 56.0086 126.939 56.0247 126.825C59.2695 103.833 62.2703 90.9116 72 68C83.0866 48.3217 90.2375 38.0971 103.641 22.5678C104.221 21.8959 105.315 22.1437 105.549 23V23M63.5 139.9C74.0124 150.41 92.6226 156.284 104.41 153.025C104.47 153.008 104.523 153.001 104.585 152.986C108.711 151.981 117.496 103.405 116 81C114.092 57.4619 111.427 44.5143 105.549 23M63.5 139.9C64.2023 147.462 65.7871 151.635 70.4254 158.884C70.4742 158.96 70.5357 159.032 70.6033 159.092C82.3417 169.548 91.2295 172.491 105.938 175.194C108.919 175.743 111.994 175.431 114.827 174.351V174.351C118.797 172.839 122.054 169.892 123.954 166.092L125.886 162.229C126.953 160.094 127.633 157.785 127.875 155.409C128.24 151.818 128.563 148.353 128.846 145M105.549 23L115.764 32.0245C117.223 33.3134 118.275 34.9998 118.783 36.8791C119.345 38.956 119.887 40.9943 120.41 43M120.41 43L125.252 47.7807C126.715 49.2251 127.697 51.0852 128.065 53.1078L129.112 58.8687C129.368 60.2733 129.941 61.6216 130.727 62.8137C156.303 101.631 134.954 134.697 128.846 145M120.41 43C123.131 53.4335 125.329 62.9851 126.958 72.5M128.846 145C129.463 137.671 129.883 130.882 130.114 124.5M126.958 72.5C129.71 88.5792 130.837 104.553 130.114 124.5M126.958 72.5C135.632 92.5249 136.549 103.902 130.114 124.5" stroke="black" stroke-width="2" stroke-linecap="round" stroke-linejoin="round"/>
</svg>
