<svg width="200" height="200" viewBox="0 0 200 200" fill="none" xmlns="http://www.w3.org/2000/svg">
<path d="M52.1209 78C58.3322 82.8662 61.1487 87.989 64.1209 104M135.121 37C135.925 37 140.948 40.6577 142.121 42L143.121 106L137.121 112" stroke="#949494" stroke-width="2" stroke-linecap="round" stroke-linejoin="round"/>
<ellipse cx="94.1209" cy="49" rx="38" ry="20" stroke="#949494" stroke-width="2"/>
<path fill-rule="evenodd" clip-rule="evenodd" d="M52.1169 49.1401C52.1164 49.0934 52.1161 49.0467 52.1161 49C52.1181 49.0344 52.1184 49.0813 52.1169 49.1401Z" fill="#B6B6B6"/>
<path d="M48.1208 75C47.5897 77.2705 48.8501 77.1077 51.1173 77C57.3379 76.7044 72.2174 70.491 81.0825 71C64.4247 68.0161 52.2281 59.298 52.1169 49.1401C52.0669 51.1291 50.052 66.7439 48.1208 75Z" fill="#B6B6B6"/>
<path d="M136.019 49C136.019 61.7025 117.127 72 94.0674 72C89.5566 72 85.1518 71.7289 81.0825 71M136.019 49L137.017 120M136.019 49C136.019 45.0589 134.196 41.2424 131.024 38M52.1161 49C52.1161 36.2975 71.0073 26 94.0674 26C102.087 26 109.681 26.8413 116.042 29M52.1161 49C52.1161 49.0467 52.1164 49.0934 52.1169 49.1401M52.1161 49C52.1181 49.0344 52.1184 49.0813 52.1169 49.1401M81.0825 71C72.2174 70.491 57.3379 76.7044 51.1173 77M81.0825 71C64.4247 68.0161 52.2281 59.298 52.1169 49.1401M51.1173 77C48.8501 77.1078 47.5897 77.2705 48.1208 75C50.052 66.7439 52.0669 51.1291 52.1169 49.1401M51.1173 77L50.1185 152C50.1185 164.703 69.9092 175 94.0674 175C118.225 175 138.016 164.703 138.016 152L137.017 129M137.017 129V120M137.017 129L150.843 112.39C151.591 111.492 152 110.36 152 109.191V42.7695C152 41.0465 151.113 39.4449 149.652 38.5309L130.207 26.3632C128.839 25.5076 127.145 25.3651 125.644 25.9542C122.475 27.1976 117.144 29.193 116.042 29M137.017 120C138.291 119.607 144.347 112.423 146.883 109.363C147.613 108.482 148.007 107.397 148.011 106.253C148.038 98.1259 148.141 63.576 148.023 43.791C148.013 42.0492 147.094 40.453 145.601 39.5561L140.21 36.318C138.833 35.4904 137.141 35.3755 135.664 36.0092L131.024 38M131.024 38C127.716 34.6173 122.849 32.0979 117.041 30C116.712 29.8815 116.376 29.1135 116.042 29" stroke="black" stroke-width="2"/>
</svg>
