<svg width="200" height="200" viewBox="0 0 200 200" fill="none" xmlns="http://www.w3.org/2000/svg">
<path d="M82 150C82 148.944 82.1036 147.922 83 147C85.8368 149.918 92.9748 152 101 152C109.025 152 115.163 149.918 118 147C118.896 147.922 120 148.944 120 150C120 151.056 118.896 152.078 118 153C118.896 153.922 120 154.944 120 156C120 157.056 118.896 158.078 118 159C118.896 159.922 120 160.944 120 162C120 165.057 116.071 167.666 110 169C110.095 169.297 110 169.687 110 170C110 172.748 105.725 175 101 175C96.2753 175 93 172.748 93 170C93 169.755 92.9413 169.235 93 169C86.4141 167.743 82 165.214 82 162C82 160.944 82.1036 159.922 83 159C82.1036 158.078 82 157.056 82 156C82 154.944 82.1036 153.922 83 153C82.1036 152.078 82 151.056 82 150Z" fill="#B6B6B6"/>
<path d="M83 153C82.1036 153.922 82 154.944 82 156C82 157.056 82.1036 158.078 83 159M83 153C85.8368 155.918 92.9748 158 101 158C109.025 158 115.163 155.918 118 153M83 153C82.1036 152.078 82 151.056 82 150C82 148.944 82.1036 147.922 83 147C85.8368 149.918 92.9748 152 101 152C109.025 152 115.163 149.918 118 147C118.896 147.922 120 148.944 120 150C120 151.056 118.896 152.078 118 153M83 159C82.1036 159.922 82 160.944 82 162C82 165.214 86.4141 167.743 93 169M83 159C85.8368 161.918 92.9748 164 101 164C109.025 164 115.163 161.918 118 159M118 159C118.896 159.922 120 160.944 120 162C120 165.057 116.071 167.666 110 169M118 159C118.896 158.078 120 157.056 120 156C120 154.944 118.896 153.922 118 153M93 169C92.9413 169.235 93 169.755 93 170C93 172.748 96.2753 175 101 175C105.725 175 110 172.748 110 170C110 169.687 110.095 169.297 110 169M93 169C95.4242 169.463 98.1585 170 101 170C104.219 170 107.338 169.585 110 169M62 95C85.4583 120.324 118.01 120.55 140 95" stroke="#949494" stroke-width="2"/>
<path d="M101 25C75.871 25 55 45.871 55 71C55 78.8449 56.5043 85.5575 60 92C65.8228 102.731 73.7243 113.005 76 125L79 140C79.5532 142.916 82.2153 145.954 85 147C89.9753 148.868 95.3719 150 101 150C106.563 150 111.073 149.327 116 147.5C119.46 146.217 121.405 143.736 122 140L124 128C126.101 114.822 134.699 103.764 141 92C144.423 85.6088 146 78.7574 146 71C146 45.871 126.129 25 101 25Z" stroke="black" stroke-width="2"/>
</svg>
