<svg width="200" height="200" viewBox="0 0 200 200" fill="none" xmlns="http://www.w3.org/2000/svg">
<path d="M63 137.535V129.535L71 134.035V142.535L63 137.535Z" fill="#B6B6B6"/>
<path d="M116 57.5C116 58.3284 114.657 59 113 59C111.343 59 110 58.3284 110 57.5C110 56.6716 111.343 56 113 56C114.657 56 116 56.6716 116 57.5Z" fill="#B6B6B6"/>
<path d="M91 45.5C91 46.3284 89.6569 47 88 47C86.3431 47 85 46.3284 85 45.5C85 44.6716 86.3431 44 88 44C89.6569 44 91 44.6716 91 45.5Z" fill="#B6B6B6"/>
<path d="M67.0277 66.2756L67.5305 65.4112H67.5305L67.0277 66.2756ZM81.111 74.4669L80.6082 75.3313L81.111 74.4669ZM134.972 66.2756L134.469 65.4112L134.972 66.2756ZM120.889 74.4669L121.392 75.3313L120.889 74.4669ZM63 129.535L63.4903 128.663C63.1806 128.489 62.8018 128.492 62.4952 128.672C62.1885 128.851 62 129.18 62 129.535H63ZM63 137.535H62C62 137.88 62.1776 138.2 62.47 138.383L63 137.535ZM71 142.535L70.47 143.383C70.7783 143.576 71.1668 143.586 71.4848 143.41C71.8027 143.233 72 142.898 72 142.535H71ZM71 134.035H72C72 133.674 71.8051 133.341 71.4903 133.163L71 134.035ZM66.525 67.14L80.6082 75.3313L81.6137 73.6025L67.5305 65.4112L66.525 67.14ZM100 109.044V166.535H102V109.044H100ZM80.6082 75.3313C92.6138 82.3142 100 95.1549 100 109.044H102C102 94.4427 94.235 80.9434 81.6137 73.6025L80.6082 75.3313ZM53 74.9198C53 67.9788 60.525 63.6503 66.525 67.14L67.5305 65.4112C60.1972 61.1459 51 66.4363 51 74.9198H53ZM134.469 65.4112L120.386 73.6025L121.392 75.3313L135.475 67.14L134.469 65.4112ZM120.386 73.6025C107.765 80.9434 100 94.4427 100 109.044H102C102 95.1549 109.386 82.3142 121.392 75.3313L120.386 73.6025ZM151 74.9198C151 66.4363 141.803 61.1459 134.469 65.4112L135.475 67.14C141.475 63.6503 149 67.9788 149 74.9198H151ZM62 129.535V137.535H64V129.535H62ZM62.47 138.383L70.47 143.383L71.53 141.687L63.53 136.687L62.47 138.383ZM72 142.535V134.035H70V142.535H72ZM71.4903 133.163L63.4903 128.663L62.5097 130.407L70.5097 134.907L71.4903 133.163ZM115 57.5C115 57.3314 115.111 57.4479 114.674 57.6662C114.297 57.8546 113.707 58 113 58V60C113.95 60 114.86 59.8096 115.569 59.4551C116.218 59.1305 117 58.497 117 57.5H115ZM113 58C112.293 58 111.703 57.8546 111.326 57.6662C110.889 57.4479 111 57.3314 111 57.5H109C109 58.497 109.782 59.1305 110.431 59.4551C111.14 59.8096 112.05 60 113 60V58ZM111 57.5C111 57.6686 110.889 57.5521 111.326 57.3338C111.703 57.1454 112.293 57 113 57V55C112.05 55 111.14 55.1904 110.431 55.5449C109.782 55.8695 109 56.503 109 57.5H111ZM113 57C113.707 57 114.297 57.1454 114.674 57.3338C115.111 57.5521 115 57.6686 115 57.5H117C117 56.503 116.218 55.8695 115.569 55.5449C114.86 55.1904 113.95 55 113 55V57ZM90 45.5C90 45.3314 90.1107 45.4479 89.6741 45.6662C89.2973 45.8546 88.7068 46 88 46V48C88.95 48 89.8595 47.8096 90.5685 47.4551C91.2177 47.1305 92 46.497 92 45.5H90ZM88 46C87.2932 46 86.7027 45.8546 86.3259 45.6662C85.8893 45.4479 86 45.3314 86 45.5H84C84 46.497 84.7823 47.1305 85.4315 47.4551C86.1405 47.8096 87.05 48 88 48V46ZM86 45.5C86 45.6686 85.8893 45.5521 86.3259 45.3338C86.7027 45.1454 87.2932 45 88 45V43C87.05 43 86.1405 43.1904 85.4315 43.5449C84.7823 43.8695 84 44.503 84 45.5H86ZM88 45C88.7068 45 89.2973 45.1454 89.6741 45.3338C90.1107 45.5521 90 45.6686 90 45.5H92C92 44.503 91.2177 43.8695 90.5685 43.5449C89.8595 43.1904 88.95 43 88 43V45Z" fill="#949494"/>
<path d="M70.9744 58.351C66.0083 55.3114 65.8491 48.1541 70.6751 44.8967L78.1589 39.8454C90.7016 31.3796 106.948 30.7166 120.139 38.1323L129.267 43.2638C134.379 46.1377 134.764 53.3532 129.986 56.7544L123.035 61.7035C109.976 71.0011 92.6268 71.6038 78.9539 63.235L70.9744 58.351Z" stroke="black" stroke-width="2"/>
<path d="M100 166.535C127.062 166.535 149 147.507 149 124.035L150 75.5349C150 52.0628 128.062 33.0349 101 33.0349C73.938 33.0349 52 52.0628 52 75.5349L51 124.035C51 147.507 72.938 166.535 100 166.535Z" stroke="black" stroke-width="2"/>
<ellipse cx="100" cy="51.5352" rx="4" ry="2" stroke="black" stroke-width="2"/>
</svg>
