<svg width="200" height="200" viewBox="0 0 200 200" fill="none" xmlns="http://www.w3.org/2000/svg">
<path d="M71.8964 144.505V138.574L77.8274 141.91V148.212L71.8964 144.505Z" fill="#B6B6B6"/>
<path d="M111.189 48.8065C111.189 49.4206 110.194 49.9185 108.965 49.9185C107.737 49.9185 106.741 49.4206 106.741 48.8065C106.741 48.1923 107.737 47.6944 108.965 47.6944C110.194 47.6944 111.189 48.1923 111.189 48.8065Z" fill="#B6B6B6"/>
<path d="M92.655 39.9099C92.655 40.5241 91.6592 41.022 90.4308 41.022C89.2025 41.022 88.2067 40.5241 88.2067 39.9099C88.2067 39.2957 89.2025 38.7979 90.4308 38.7979C91.6592 38.7979 92.655 39.2957 92.655 39.9099Z" fill="#B6B6B6"/>
<path d="M74.8825 53.5799L75.3852 52.7155H75.3852L74.8825 53.5799ZM85.3234 59.6527L84.8207 60.5172L85.3234 59.6527ZM125.255 53.5799L124.752 52.7155L125.255 53.5799ZM114.814 59.6527L115.317 60.5172L114.814 59.6527ZM71.8964 138.574L72.3866 137.702C72.077 137.528 71.6982 137.531 71.3915 137.711C71.0849 137.89 70.8964 138.219 70.8964 138.574H71.8964ZM71.8964 144.505H70.8964C70.8964 144.85 71.074 145.17 71.3664 145.353L71.8964 144.505ZM77.8274 148.212L77.2974 149.06C77.6057 149.252 77.9942 149.263 78.3122 149.086C78.6301 148.91 78.8274 148.575 78.8274 148.212H77.8274ZM77.8274 141.91H78.8274C78.8274 141.549 78.6325 141.216 78.3177 141.039L77.8274 141.91ZM74.3797 54.4443L84.8207 60.5172L85.8262 58.7883L75.3852 52.7155L74.3797 54.4443ZM99.0688 85.2872V170.91H101.069V85.2872H99.0688ZM84.8207 60.5172C93.6418 65.6478 99.0688 75.0825 99.0688 85.2872H101.069C101.069 74.3703 95.263 64.2771 85.8262 58.7883L84.8207 60.5172ZM64.7412 59.9885C64.7412 55.0421 70.1039 51.9574 74.3797 54.4443L75.3852 52.7155C69.7761 49.453 62.7412 53.4996 62.7412 59.9885H64.7412ZM124.752 52.7155L114.311 58.7883L115.317 60.5172L125.758 54.4443L124.752 52.7155ZM114.311 58.7883C104.875 64.2771 99.0688 74.3703 99.0688 85.2872H101.069C101.069 75.0825 106.496 65.6478 115.317 60.5172L114.311 58.7883ZM137.396 59.9885C137.396 53.4996 130.361 49.453 124.752 52.7155L125.758 54.4443C130.034 51.9574 135.396 55.0421 135.396 59.9885H137.396ZM70.8964 138.574V144.505H72.8964V138.574H70.8964ZM71.3664 145.353L77.2974 149.06L78.3574 147.364L72.4264 143.657L71.3664 145.353ZM78.8274 148.212V141.91H76.8274V148.212H78.8274ZM78.3177 141.039L72.3866 137.702L71.4061 139.445L77.3371 142.782L78.3177 141.039ZM110.189 48.8065C110.189 48.6731 110.247 48.5984 110.251 48.5935C110.252 48.5922 110.243 48.6038 110.215 48.6244C110.187 48.6448 110.147 48.6704 110.091 48.6984C109.854 48.8166 109.458 48.9185 108.965 48.9185V50.9185C109.701 50.9185 110.417 50.7715 110.985 50.4872C111.494 50.2328 112.189 49.6964 112.189 48.8065H110.189ZM108.965 48.9185C108.473 48.9185 108.076 48.8166 107.84 48.6984C107.784 48.6704 107.743 48.6448 107.716 48.6244C107.688 48.6038 107.678 48.5922 107.679 48.5935C107.684 48.5984 107.741 48.6731 107.741 48.8065H105.741C105.741 49.6964 106.437 50.2328 106.945 50.4872C107.514 50.7715 108.23 50.9185 108.965 50.9185V48.9185ZM107.741 48.8065C107.741 48.9398 107.684 49.0145 107.679 49.0194C107.678 49.0207 107.688 49.0091 107.716 48.9885C107.743 48.9681 107.784 48.9425 107.84 48.9145C108.076 48.7964 108.473 48.6944 108.965 48.6944V46.6944C108.23 46.6944 107.514 46.8414 106.945 47.1257C106.437 47.3801 105.741 47.9165 105.741 48.8065H107.741ZM108.965 48.6944C109.458 48.6944 109.854 48.7964 110.091 48.9145C110.147 48.9425 110.187 48.9681 110.215 48.9885C110.243 49.0091 110.252 49.0207 110.251 49.0194C110.247 49.0145 110.189 48.9398 110.189 48.8065H112.189C112.189 47.9165 111.494 47.3801 110.985 47.1257C110.417 46.8414 109.701 46.6944 108.965 46.6944V48.6944ZM91.655 39.9099C91.655 39.7766 91.7126 39.7018 91.7167 39.6969C91.7178 39.6957 91.7081 39.7073 91.6802 39.7279C91.6527 39.7483 91.6122 39.7739 91.5563 39.8018C91.32 39.92 90.9234 40.022 90.4308 40.022V42.022C91.1666 42.022 91.8821 41.875 92.4508 41.5907C92.9595 41.3363 93.655 40.7998 93.655 39.9099H91.655ZM90.4308 40.022C89.9382 40.022 89.5417 39.92 89.3053 39.8018C89.2495 39.7739 89.209 39.7483 89.1814 39.7279C89.1536 39.7073 89.1439 39.6957 89.145 39.6969C89.1491 39.7018 89.2067 39.7766 89.2067 39.9099H87.2067C87.2067 40.7998 87.9021 41.3363 88.4109 41.5907C88.9795 41.875 89.6951 42.022 90.4308 42.022V40.022ZM89.2067 39.9099C89.2067 40.0432 89.1491 40.118 89.145 40.1229C89.1439 40.1242 89.1536 40.1126 89.1814 40.092C89.209 40.0716 89.2495 40.0459 89.3053 40.018C89.5417 39.8998 89.9382 39.7979 90.4308 39.7979V37.7979C89.6951 37.7979 88.9795 37.9448 88.4109 38.2291C87.9021 38.4835 87.2067 39.02 87.2067 39.9099H89.2067ZM90.4308 39.7979C90.9234 39.7979 91.32 39.8998 91.5563 40.018C91.6122 40.0459 91.6527 40.0716 91.6802 40.092C91.7081 40.1126 91.7178 40.1242 91.7167 40.1229C91.7126 40.118 91.655 40.0432 91.655 39.9099H93.655C93.655 39.02 92.9595 38.4835 92.4508 38.2291C91.8821 37.9448 91.1666 37.7979 90.4308 37.7979V39.7979Z" fill="#949494"/>
<path d="M125.652 37.9244C128.549 41.4173 127.877 47.132 123.741 49.9282L118.216 53.6637C106.752 61.414 92.0085 61.3626 80.5609 53.5882C79.0019 52.5295 77.4259 51.4642 75.8656 50.4172C65.7343 42.1213 74.5194 36.9098 82.9993 32.7924C91.4792 28.675 105.54 27.0307 115.862 32.4099C119.003 33.9416 122.362 35.4099 125.652 37.9244ZM125.652 37.9244C132.283 43.726 136.396 51.7191 136.396 60.4444L135.655 139.401C135.655 156.803 119.391 170.91 99.3275 170.91C79.2644 170.91 63 156.803 63 139.401L63.6178 60.3554C63.6178 51.6301 67.8886 43.7115 74.5194 37.9099" stroke="black" stroke-width="2"/>
<ellipse cx="99.3273" cy="44.3924" rx="2.96551" ry="1.48276" stroke="black" stroke-width="2"/>
</svg>
