<svg width="200" height="200" viewBox="0 0 200 200" fill="none" xmlns="http://www.w3.org/2000/svg">
<path d="M91.0547 92.958C91.8547 94.158 91.388 144.125 91.0547 168.958M114.055 90.958V165.958" stroke="#949494" stroke-width="2" stroke-linejoin="round"/>
<path fill-rule="evenodd" clip-rule="evenodd" d="M79.0546 111.958C84.4692 122.498 83.1375 134.382 76.0546 137.958C68.9717 141.534 58.4692 135.498 53.0546 124.958C47.64 114.418 48.9717 102.534 56.0546 98.9579C63.1375 95.3817 73.64 101.418 79.0546 111.958ZM61.0546 126.958V106.958L74.0546 120.958L61.0546 126.958Z" fill="#B6B6B6"/>
<path d="M41.0546 57.9579L41.5092 58.8487L41.5194 58.8433L41.0546 57.9579ZM81.0546 36.9579L80.6 36.0672L80.5898 36.0725L81.0546 36.9579ZM117.055 36.9579L117.502 36.0634L117.492 36.0586L117.055 36.9579ZM159.055 57.9579L158.607 58.8524L158.617 58.8573L159.055 57.9579ZM159.055 67.9579L158.6 67.067L158.591 67.0721L159.055 67.9579ZM117.055 89.9579L117.509 90.8489L117.519 90.8438L117.055 89.9579ZM80.0546 88.9579L79.5805 89.8384L79.5828 89.8397L80.0546 88.9579ZM41.0546 67.9579L41.5287 67.0775L41.5264 67.0762L41.0546 67.9579ZM159.055 143.958L158.6 143.067L158.591 143.072L159.055 143.958ZM117.055 165.958L117.509 166.849L117.519 166.844L117.055 165.958ZM80.0546 164.958L79.5805 165.838L79.5828 165.84L80.0546 164.958ZM41.0546 143.958L41.5287 143.077L41.5264 143.076L41.0546 143.958ZM38.0546 139.958H37.0546V140.023L37.063 140.087L38.0546 139.958ZM162.055 62.9579L161.055 62.9234L162.055 62.9579ZM162.055 138.958H161.055V138.975L161.055 138.992L162.055 138.958ZM61.0546 106.958L61.7874 106.277C61.5076 105.976 61.0718 105.877 60.6891 106.027C60.3063 106.177 60.0546 106.547 60.0546 106.958H61.0546ZM61.0546 126.958H60.0546C60.0546 127.299 60.2284 127.616 60.5157 127.8C60.8029 127.984 61.164 128.009 61.4737 127.866L61.0546 126.958ZM74.0546 120.958L74.4737 121.866C74.7646 121.732 74.9736 121.466 75.0357 121.152C75.0977 120.837 75.0054 120.512 74.7874 120.277L74.0546 120.958ZM41.5194 58.8433L81.5194 37.8433L80.5898 36.0725L40.5898 57.0725L41.5194 58.8433ZM116.607 37.8524L158.607 58.8524L159.502 57.0635L117.502 36.0635L116.607 37.8524ZM158.591 67.0721L116.591 89.0721L117.519 90.8438L159.519 68.8438L158.591 67.0721ZM80.5287 88.0775L41.5287 67.0775L40.5805 68.8384L79.5805 89.8384L80.5287 88.0775ZM116.6 89.067C105.189 94.8843 91.8849 94.1535 80.5264 88.0762L79.5828 89.8397C91.4506 96.1894 105.449 96.9967 117.509 90.8488L116.6 89.067ZM81.5092 37.8486C92.4617 32.259 105.52 32.4611 116.617 37.8573L117.492 36.0586C105.868 30.4067 92.1483 30.1736 80.6 36.0672L81.5092 37.8486ZM158.591 143.072L116.591 165.072L117.519 166.844L159.519 144.844L158.591 143.072ZM80.5287 164.077L41.5287 143.077L40.5805 144.838L79.5805 165.838L80.5287 164.077ZM116.6 165.067C105.189 170.884 91.8849 170.154 80.5264 164.076L79.5828 165.84C91.4506 172.189 105.449 172.997 117.509 166.849L116.6 165.067ZM40.6 57.0672C39.5571 57.5995 38.7293 58.234 38.1293 59.0432C37.5248 59.8582 37.1991 60.7863 37.063 61.8284L39.0462 62.0874C39.1476 61.3107 39.3737 60.7227 39.7357 60.2345C40.1022 59.7403 40.6556 59.2843 41.5092 58.8486L40.6 57.0672ZM37.063 61.8284C36.7174 64.4747 37.7904 67.3456 40.5828 68.8397L41.5264 67.0762C39.5753 66.0323 38.7915 64.0374 39.0462 62.0874L37.063 61.8284ZM37.063 140.087C37.1988 141.127 37.5461 142.048 38.1533 142.857C38.7549 143.659 39.5742 144.3 40.5828 144.84L41.5264 143.076C40.6983 142.633 40.1339 142.164 39.7529 141.657C39.3774 141.156 39.143 140.569 39.0462 139.828L37.063 140.087ZM37.0546 61.9579V139.958H39.0546V61.9579H37.0546ZM158.617 58.8573C159.63 59.3496 160.227 59.9238 160.578 60.5461C160.933 61.175 161.089 61.9473 161.055 62.9234L163.054 62.9924C163.096 61.7711 162.907 60.6048 162.32 59.5638C161.729 58.5162 160.789 57.6891 159.492 57.0586L158.617 58.8573ZM161.055 62.9234C160.995 64.679 160.299 66.201 158.6 67.067L159.509 68.8488C162.015 67.5713 162.975 65.2765 163.054 62.9924L161.055 62.9234ZM161.055 138.992C161.088 139.934 160.922 140.703 160.557 141.342C160.194 141.978 159.587 142.564 158.6 143.067L159.509 144.849C160.77 144.206 161.7 143.372 162.293 142.334C162.885 141.299 163.096 140.14 163.054 138.923L161.055 138.992ZM161.055 62.9579V138.958H163.055V62.9579H161.055ZM78.1651 112.415C80.7922 117.529 81.7643 122.937 81.2476 127.456C80.7293 131.989 78.7427 135.48 75.6039 137.065L76.5053 138.851C80.4494 136.859 82.6701 132.621 83.2347 127.683C83.801 122.73 82.7316 116.927 79.9441 111.501L78.1651 112.415ZM75.6039 137.065C72.4672 138.649 68.4406 138.165 64.4231 135.882C60.421 133.608 56.5717 129.616 53.9441 124.501L52.1651 125.415C54.9521 130.84 59.0614 135.136 63.435 137.621C67.7931 140.097 72.5591 140.843 76.5053 138.851L75.6039 137.065ZM53.9441 124.501C51.317 119.387 50.3449 113.979 50.8616 109.46C51.3799 104.927 53.3665 101.435 56.5053 99.8506L55.6039 98.0653C51.6599 100.057 49.4391 104.295 48.8745 109.233C48.3082 114.186 49.3776 119.989 52.1651 125.415L53.9441 124.501ZM56.5053 99.8506C59.642 98.2669 63.6686 98.7511 67.6862 101.034C71.6882 103.308 75.5375 107.3 78.1651 112.415L79.9441 111.501C77.1571 106.076 73.0478 101.78 68.6742 99.2951C64.3161 96.8187 59.5501 96.0728 55.6039 98.0653L56.5053 99.8506ZM60.0546 106.958V126.958H62.0546V106.958H60.0546ZM61.4737 127.866L74.4737 121.866L73.6356 120.05L60.6356 126.05L61.4737 127.866ZM74.7874 120.277L61.7874 106.277L60.3218 107.638L73.3218 121.638L74.7874 120.277Z" fill="black"/>
<path d="M44.4442 64.7529C43.0152 63.9962 43.0282 61.9447 44.4666 61.2062L83.848 40.9867C93.8459 35.8536 105.701 35.8337 115.716 40.9333L155.577 61.2306C157.043 61.9771 157.031 64.0755 155.557 64.8053L111.947 86.3913C103.301 90.6709 93.1247 90.5316 84.5992 86.0169L44.4442 64.7529Z" stroke="#949494" stroke-width="2"/>
</svg>
