<svg width="200" height="200" viewBox="0 0 200 200" fill="none" xmlns="http://www.w3.org/2000/svg">
<path d="M145 125V137L149.5 133V121.5L145 125Z" fill="#B6B6B6" stroke="#949494" stroke-width="2" stroke-linejoin="round"/>
<path d="M47 75C47 88.8071 70.7289 100 100 100C116.005 100 130.352 96.6538 140.07 91.3636C144.242 89.0393 146.387 87.3422 149.829 83.5375C151.881 80.8736 153 77.9984 153 75C153 61.1929 129.271 50 100 50C70.7289 50 47 61.1929 47 75Z" stroke="black" stroke-width="2"/>
<path d="M99.5 154C114.75 154 128.421 150.654 137.68 145.364C141.655 143.039 143.699 141.342 146.979 137.538C147.828 136.381 148.509 135.184 149.008 133.955C124.737 156.752 69.3646 151.53 49.4583 132.383C52.7937 144.59 73.927 154 99.5 154Z" fill="#B6B6B6"/>
<path d="M44 74.6773C44 89.9631 69.0721 102.355 100 102.355C118.483 102.355 134.874 97.9292 145.073 91.1053C148.458 88.4497 150.317 86.8837 153.23 83.2981C155.028 80.5851 156 77.6873 156 74.6773M44 74.6773C44 59.3916 69.0721 47 100 47C130.928 47 156 59.3916 156 74.6773M44 74.6773V115.843C44 121.899 45.0941 128.185 49.4583 132.383V132.383M156 74.6773V113.666C156 121.126 154.446 128.848 149.008 133.955V133.955M49.4583 132.383C52.7937 144.59 73.927 154 99.5 154C114.75 154 128.421 150.654 137.68 145.364C141.655 143.039 143.699 141.342 146.979 137.538C147.828 136.381 148.509 135.184 149.008 133.955M49.4583 132.383C69.3646 151.53 124.737 156.752 149.008 133.955" stroke="black" stroke-width="2"/>
<path d="M54 74.5C54 85.8218 74.5949 95 100 95C113.891 95 126.344 92.2561 134.778 87.9182C136.468 86.6592 141.129 83.1153 143.248 81.5008C145.029 79.3163 146 76.9587 146 74.5C146 63.1782 125.405 54 100 54C74.5949 54 54 63.1782 54 74.5Z" stroke="black" stroke-width="2" stroke-linecap="round" stroke-dasharray="4 4"/>
<path d="M97.9885 69.7673L94.8009 74.5486C94.3123 75.2816 94.9415 76.2426 95.8088 76.0877L104.734 74.494C105.66 74.3286 105.866 73.0922 105.044 72.6354L99.3061 69.4479C98.8508 69.1949 98.2774 69.3339 97.9885 69.7673Z" fill="#B6B6B6" stroke="#949494" stroke-width="2" stroke-linejoin="round"/>
</svg>
