<svg width="200" height="200" viewBox="0 0 200 200" fill="none" xmlns="http://www.w3.org/2000/svg">
<path d="M99.1118 70.8838L99.1118 171.884" stroke="#949494" stroke-width="2"/>
<path d="M115.612 70.3838V171.384" stroke="#949494" stroke-width="2"/>
<path d="M82.4959 23.8337L50.4607 42.9852C49.3717 43.6362 48.9002 44.7898 49.0175 45.884C49.1226 46.8639 49.6999 47.7962 50.729 48.2776L97.9915 70.3842C104.007 73.198 111.027 72.8421 116.728 69.4343L148.763 50.2828C149.852 49.6318 150.323 48.4783 150.206 47.384C150.101 46.4042 149.524 45.4718 148.495 44.9905L101.232 22.8838C95.2164 20.07 88.1962 20.4259 82.4959 23.8337Z" fill="#B6B6B6"/>
<path d="M116.728 175.434L143.612 159.362C148.004 156.779 149.534 153.059 150.143 148.4C149.959 149.243 149.412 150.303 149.036 150.897C148.868 151.162 148.626 151.365 148.357 151.525L116.728 170.434C111.027 173.842 104.007 174.198 97.9915 171.384L50.729 149.277C49.7185 148.805 49.1435 147.897 49.0236 146.937C49.5924 151.8 51.0757 153.893 55.6118 156.561L97.9915 176.384C104.007 179.198 111.027 178.842 116.728 175.434Z" fill="#B6B6B6"/>
<path d="M49.0175 45.884C48.9002 44.7898 49.3717 43.6362 50.4607 42.9852L82.4959 23.8337C88.1962 20.4259 95.2164 20.07 101.232 22.8838L148.495 44.9905C149.524 45.4718 150.101 46.4042 150.206 47.384M49.0175 45.884C49.1226 46.8639 49.6999 47.7962 50.729 48.2776L97.9915 70.3842C104.007 73.198 111.027 72.8421 116.728 69.4343L148.763 50.2828C149.852 49.6318 150.323 48.4783 150.206 47.384M49.0175 45.884L49.0175 146.884C49.0195 146.902 49.0216 146.919 49.0236 146.937M150.206 47.384V147.884M150.206 147.884C150.186 148.057 150.165 148.229 150.143 148.4M150.206 147.884C150.206 148.041 150.183 148.215 150.143 148.4M150.143 148.4C149.534 153.059 148.004 156.779 143.612 159.362L116.728 175.434C111.027 178.842 104.007 179.198 97.9915 176.384L55.6118 156.561C51.0757 153.893 49.5924 151.8 49.0236 146.937M150.143 148.4C149.959 149.243 149.412 150.303 149.036 150.897C148.868 151.162 148.626 151.365 148.357 151.525L116.728 170.434C111.027 173.842 104.007 174.198 97.9915 171.384L50.729 149.277C49.7185 148.805 49.1435 147.897 49.0236 146.937" stroke="black" stroke-width="2"/>
</svg>
