<svg width="200" height="200" viewBox="0 0 200 200" fill="none" xmlns="http://www.w3.org/2000/svg">
<path d="M162 74.5C162 57.6553 134.466 44 100.5 44C66.5345 44 39 57.6553 39 74.5M162 74.5V117.087C162 125.557 160.246 134.343 154.03 140.096C127.559 164.594 68.2757 159.253 45.8255 138.868C40.3298 133.878 39 126.149 39 118.726V74.5M162 74.5C162 77.817 160.932 81.0103 158.958 84M39 74.5C39 91.3447 66.5345 105 100.5 105C120.798 105 138.799 100.123 150 92.6033" stroke="black" stroke-width="2"/>
<path d="M155.5 83.8913C157.765 80.9609 159 77.7983 159 74.5C159 59.3122 132.809 47 100.5 47C68.1913 47 42 59.3122 42 74.5C42 89.6878 68.1913 102 100.5 102C118.165 102 134.002 98.3192 144.729 92.5" stroke="black" stroke-width="2"/>
<path d="M50 74.5C50 86.9264 72.6096 97 100.5 97C115.75 97 129.421 93.9884 138.68 89.2273C140.536 87.8455 145.652 83.9559 147.979 82.1838C149.934 79.7862 151 77.1986 151 74.5C151 62.0736 128.39 52 100.5 52C72.6096 52 50 62.0736 50 74.5Z" stroke="black" stroke-width="2" stroke-linecap="round" stroke-dasharray="4 4"/>
<path d="M159 100L151.5 106.5H150V92.5H144.5V91L153 84H159V100Z" fill="#B6B6B6"/>
<path d="M144.5 91H151.5M144.5 91L153 84H159M144.5 91C144.5 91.4 144.5 92.1667 144.5 92.5H150V106.5H151.5M151.5 91V106.5M151.5 91L159 84M151.5 106.5L159 100V84" stroke="#949494" stroke-width="2" stroke-linejoin="round"/>
</svg>
