<svg width="200" height="200" viewBox="0 0 200 200" fill="none" xmlns="http://www.w3.org/2000/svg">
<path d="M162 73.5C162 56.6553 134.466 43 100.5 43C66.5345 43 39 56.6553 39 73.5M162 73.5V116.087C162 124.557 160.246 133.343 154.03 139.096C127.559 163.594 68.2757 158.253 45.8255 137.868C40.3298 132.878 39 125.149 39 117.726V73.5M162 73.5C162 76.817 160.932 80.0103 158.958 83M39 73.5C39 90.3447 66.5345 104 100.5 104C120.798 104 138.799 99.1232 150 91.6033" stroke="black" stroke-width="2"/>
<path d="M155.5 82.8913C157.765 79.9609 159 76.7983 159 73.5C159 58.3122 132.809 46 100.5 46C68.1912 46 41.9999 58.3122 41.9999 73.5C41.9999 88.6878 68.1912 101 100.5 101C118.165 101 134.002 97.3192 144.728 91.5" stroke="black" stroke-width="2"/>
<path d="M49 73.5C49 85.9264 72.0573 96 100.5 96C116.052 96 129.993 92.9884 139.436 88.2273C140.687 87.6455 146.279 83.2892 148.919 81.1838C150.913 78.7862 152 76.1986 152 73.5C152 61.0736 128.943 51 100.5 51C72.0573 51 49 61.0736 49 73.5Z" stroke="black" stroke-width="2" stroke-linecap="round" stroke-dasharray="4 4"/>
<path fill-rule="evenodd" clip-rule="evenodd" d="M101 77C106.523 77 111 74.7614 111 72C111 69.2386 106.523 67 101 67C95.477 67 90.9999 69.2386 90.9999 72C90.9999 74.7614 95.477 77 101 77ZM101 74C104.314 74 107 73.1046 107 72C107 70.8954 104.314 70 101 70C97.6862 70 94.9999 70.8954 94.9999 72C94.9999 73.1046 97.6862 74 101 74Z" fill="#B6B6B6" stroke="#949494" stroke-width="2"/>
<path d="M159 99L151.5 105.5H150V91.5H144.5V90L153 83H159V99Z" fill="#B6B6B6"/>
<path d="M144.5 90H151.5M144.5 90L153 83H159M144.5 90C144.5 90.4 144.5 91.1667 144.5 91.5H150V105.5H151.5M151.5 90V105.5M151.5 90L159 83M151.5 105.5L159 99V83" stroke="#949494" stroke-width="2" stroke-linejoin="round"/>
</svg>
