<svg width="200" height="200" viewBox="0 0 200 200" fill="none" xmlns="http://www.w3.org/2000/svg">
<path d="M157 75.5767C157 59.242 131.704 46 100.5 46C69.2959 46 44 59.242 44 75.5767M157 75.5767V117.084C157 125.172 155.439 133.57 149.648 139.216C125.32 162.935 70.9074 157.758 50.282 138.007C45.1715 133.114 44 125.738 44 118.662V75.5767M157 75.5767C157 78.7933 156.019 81.89 154.205 84.7892M44 75.5767C44 91.9115 69.2959 105.153 100.5 105.153C119.148 105.153 135.686 100.424 145.976 93.1321" stroke="black" stroke-width="2"/>
<path d="M150 85.5C152.071 82.6229 154 78.2383 154 75C154 60.0883 130.047 48 100.5 48C70.9528 48 47 60.0883 47 75C47 89.9117 70.9528 102 100.5 102C116.656 102 131.139 98.3861 140.948 92.6727" stroke="black" stroke-width="2"/>
<path d="M77 116.263V125.263V134.263M83.5 117.608C86.7085 118.151 90.0527 118.544 93.5 118.771V127.771C90.0527 127.544 86.7085 127.151 83.5 126.608V135.608C86.7085 136.151 90.0527 136.544 93.5 136.771M108 118.737C111.63 118.48 115.142 118.039 118.5 117.434V126.434M108 136.737C111.63 136.48 115.142 136.039 118.5 135.434V126.434M124.5 134.137C127.132 133.47 130.639 131.869 133 131V122.5C130.639 123.369 127.132 124.47 124.5 125.137V116.137C127.132 115.47 130.639 114.369 133 113.5M108 127.737C111.63 127.48 115.142 127.039 118.5 126.434M100.5 123.5V125.75M100.5 133.5V135.608" stroke="#949494" stroke-width="2" stroke-linecap="round" stroke-linejoin="round"/>
<path d="M54 75C54 87.1503 74.8188 97 100.5 97C114.542 97 127.13 94.0553 135.656 89.4C137.365 88.0489 142.076 84.2457 144.218 82.513C146.018 80.1687 147 77.6386 147 75C147 62.8497 126.181 53 100.5 53C74.8188 53 54 62.8497 54 75Z" stroke="black" stroke-width="2" stroke-linecap="round" stroke-dasharray="3.67 3.67"/>
<path d="M154 99.9333L147.276 106H145.931V92.9333H141V91.5333L148.621 85H154V99.9333Z" fill="#B6B6B6"/>
<path d="M141 91.5333H147.276M141 91.5333L148.621 85H154M141 91.5333C141 91.9067 141 92.6222 141 92.9333H145.931V106H147.276M147.276 91.5333V106M147.276 91.5333L154 85M147.276 106L154 99.9333V85" stroke="#949494" stroke-width="2" stroke-linejoin="round"/>
</svg>
