<svg width="200" height="200" viewBox="0 0 200 200" fill="none" xmlns="http://www.w3.org/2000/svg">
<path d="M120.519 136V133L131.519 127V130L120.519 136Z" stroke="#949494" stroke-width="2" stroke-linejoin="round"/>
<path d="M55.0185 143.5L48.2053 146.907L45.0031 148.508L48.453 150.416L58.7709 156.124L69.0186 151L58.7709 145.51L55.0185 143.5Z" fill="#B6B6B6"/>
<path d="M69.0186 154V151L58.7709 156.124V159.551L65.434 155.942L69.0186 154Z" fill="#B6B6B6"/>
<path fill-rule="evenodd" clip-rule="evenodd" d="M153.084 113.634L153.235 113.713C153.056 113.615 152.872 113.529 152.682 113.454C152.819 113.508 152.953 113.568 153.084 113.634Z" fill="#B6B6B6"/>
<path d="M78.8967 151.793L148.47 113.716C149.82 112.978 151.358 112.932 152.682 113.454M78.8967 151.793L78.8936 163M78.8967 151.793L45.0031 134.019M78.8936 163L153.235 122.437C155.607 121.143 156.51 118.192 155.269 115.792C154.795 114.876 154.077 114.17 153.235 113.713M78.8936 163L65.434 155.942M45.0031 134.019L45 145.226L48.2053 146.907M45.0031 134.019L92.0186 108.288M153.235 113.713L153.084 113.634M153.235 113.713C153.056 113.615 152.872 113.529 152.682 113.454M153.235 113.713C153.185 113.685 153.135 113.659 153.084 113.634M92.0186 108.288V40.75C92.0186 39.2312 93.2498 38 94.7686 38V38C96.2873 38 97.5186 39.2312 97.5186 40.75V105.278M92.0186 108.288L97.5186 105.278M97.5186 105.278L114.577 95.9421C115.835 95.2532 117.259 95.1666 118.519 95.5821L153.084 113.634M69.0186 151V154L65.434 155.942M69.0186 151L58.7709 156.124M69.0186 151L58.7709 145.51L55.0185 143.5L48.2053 146.907M48.2053 146.907L45.0031 148.508M65.434 155.942L58.7709 159.551M45.0031 148.508L45 152.058M45.0031 148.508L48.453 150.416M58.7709 156.124V159.551M58.7709 156.124L48.453 150.416M58.7709 159.551L45 152.058M45 152.058L48.453 150.416M153.084 113.634C152.953 113.568 152.819 113.508 152.682 113.454" stroke="black" stroke-width="2" stroke-linejoin="round"/>
</svg>
