<svg width="200" height="200" viewBox="0 0 200 200" fill="none" xmlns="http://www.w3.org/2000/svg">
<path d="M112 53.3672L124.5 44.8672M119.5 69.8672L133.5 60.3672" stroke="#949494" stroke-width="2"/>
<path fill-rule="evenodd" clip-rule="evenodd" d="M68.5 32.8968C69.0839 32.5007 69.7186 32.1808 70.3862 31.9476L68.5 32.8968Z" fill="#B6B6B6"/>
<path d="M104.151 47.777L76.9069 32.5304C74.7648 31.3317 72.4224 31.2364 70.3862 31.9476L68.5 32.8968C66.4313 34.3001 65 36.6602 65 39.5116V132.056C65 142.769 70.7126 152.669 79.9877 158.03L107.497 173.929C110.359 175.583 113.605 175.242 116 173.618C118.068 172.216 119.5 169.857 119.5 167.003V73.9563C119.5 63.0947 113.629 53.0814 104.151 47.777Z" fill="#B6B6B6"/>
<path d="M97.5879 33.3668L98.0731 32.4924C97.7582 32.3176 97.3735 32.3258 97.0662 32.5137L97.5879 33.3668ZM107.5 38.8669L108.03 39.7149C108.33 39.5273 108.509 39.1949 108.5 38.841C108.49 38.487 108.295 38.1643 107.985 37.9925L107.5 38.8669ZM103.5 41.3669L103.018 42.2431C103.335 42.4178 103.723 42.407 104.03 42.2149L103.5 41.3669ZM93.4999 35.8669L92.9781 35.0138C92.674 35.1998 92.4919 35.5335 92.5001 35.8899C92.5083 36.2463 92.7056 36.5713 93.018 36.7431L93.4999 35.8669ZM79.9877 158.03L80.4881 157.164L79.9877 158.03ZM107.497 173.929L106.996 174.795L107.497 173.929ZM104.151 47.777L104.639 46.9044L104.151 47.777ZM76.9069 32.5304L76.4185 33.4031L76.9069 32.5304ZM119.151 40.277L119.639 39.4044L119.151 40.277ZM91.9069 25.0304L91.4185 25.9031L91.9069 25.0304ZM68.5 32.8968L67.9386 32.0692H67.9386L68.5 32.8968ZM85 24.5936L84.6226 23.6676L84.5859 23.6825L84.5505 23.7004L85 24.5936ZM130.503 166.429L130.947 167.325L130.976 167.311L131.004 167.295L130.503 166.429ZM97.1027 34.2412L107.015 39.7413L107.985 37.9925L98.0731 32.4924L97.1027 34.2412ZM106.97 38.0189L102.97 40.5189L104.03 42.2149L108.03 39.7149L106.97 38.0189ZM103.982 40.4907L93.9818 34.9907L93.018 36.7431L103.018 42.2431L103.982 40.4907ZM94.0216 36.72L98.1097 34.2199L97.0662 32.5137L92.9781 35.0138L94.0216 36.72ZM113 43.8669C113 43.6983 113.111 43.8149 112.674 44.0332C112.297 44.2216 111.707 44.3669 111 44.3669V46.3669C111.95 46.3669 112.86 46.1765 113.569 45.822C114.218 45.4974 115 44.864 115 43.8669H113ZM111 44.3669C110.293 44.3669 109.703 44.2216 109.326 44.0332C108.889 43.8149 109 43.6983 109 43.8669H107C107 44.864 107.782 45.4974 108.431 45.822C109.14 46.1765 110.05 46.3669 111 46.3669V44.3669ZM109 43.8669C109 44.0356 108.889 43.919 109.326 43.7007C109.703 43.5123 110.293 43.3669 111 43.3669V41.3669C110.05 41.3669 109.14 41.5574 108.431 41.9119C107.782 42.2365 107 42.8699 107 43.8669H109ZM111 43.3669C111.707 43.3669 112.297 43.5123 112.674 43.7007C113.111 43.919 113 44.0356 113 43.8669H115C115 42.8699 114.218 42.2365 113.569 41.9119C112.86 41.5574 111.95 41.3669 111 41.3669V43.3669ZM76.4185 33.4031L103.662 48.6497L104.639 46.9044L77.3952 31.6578L76.4185 33.4031ZM118.5 73.9563V167.003H120.5V73.9563H118.5ZM107.997 173.064L80.4881 157.164L79.4873 158.895L106.996 174.795L107.997 173.064ZM66 132.056V39.5116H64V132.056H66ZM80.4881 157.164C71.5222 151.982 66 142.412 66 132.056H64C64 143.126 69.903 153.356 79.4873 158.895L80.4881 157.164ZM103.662 48.6497C112.825 53.7772 118.5 63.4568 118.5 73.9563H120.5C120.5 62.7327 114.433 52.3856 104.639 46.9044L103.662 48.6497ZM91.4185 25.9031L118.662 41.1497L119.639 39.4044L92.3952 24.1578L91.4185 25.9031ZM133.5 66.4563V159.503H135.5V66.4563H133.5ZM118.662 41.1497C127.825 46.2772 133.5 55.9568 133.5 66.4563H135.5C135.5 55.2327 129.433 44.8856 119.639 39.4044L118.662 41.1497ZM67.9386 32.0692C65.6147 33.6457 64 36.3063 64 39.5116H66C66 37.0141 67.248 34.9545 69.0614 33.7243L67.9386 32.0692ZM92.3952 24.1578C89.8351 22.7251 87.0094 22.6949 84.6226 23.6676L85.3774 25.5197C87.2354 24.7625 89.421 24.7852 91.4185 25.9031L92.3952 24.1578ZM118.5 167.003C118.5 169.503 117.251 171.561 115.439 172.79L116.561 174.446C118.884 172.87 120.5 170.212 120.5 167.003H118.5ZM115.439 172.79C113.336 174.216 110.501 174.511 107.997 173.064L106.996 174.795C110.216 176.656 113.875 176.267 116.561 174.446L115.439 172.79ZM133.5 159.503C133.5 162.197 132.049 164.381 130.003 165.563L131.004 167.295C133.621 165.783 135.5 162.964 135.5 159.503H133.5ZM116.444 174.514L130.947 167.325L130.059 165.533L115.556 172.722L116.444 174.514ZM69.0614 33.7243C69.5738 33.3767 70.1307 33.0961 70.716 32.8917L70.0565 31.0035C69.3065 31.2655 68.594 31.6246 67.9386 32.0692L69.0614 33.7243ZM69.9367 31.0543L68.0505 32.0035L68.9495 33.7901L70.8357 32.8409L69.9367 31.0543ZM70.8357 32.8409L85.4495 25.4869L84.5505 23.7004L69.9367 31.0543L70.8357 32.8409ZM77.3952 31.6578C74.9897 30.3116 72.348 30.2031 70.0565 31.0035L70.716 32.8917C72.4968 32.2697 74.5399 32.3517 76.4185 33.4031L77.3952 31.6578Z" fill="black"/>
</svg>
