<svg width="200" height="200" viewBox="0 0 200 200" fill="none" xmlns="http://www.w3.org/2000/svg">
<path d="M61 52.0085C61.0091 62.8496 78.4665 72 100 72C106.79 72 113.44 70.5362 119 69C122.495 68.0345 126 70.3508 126 74V109C126 114.955 122.752 120.616 117 122C111.914 123.223 106.012 124 100 124C78.905 124 61.7217 115.218 61.0221 104.669L61 52.0085Z" fill="#B6B6B6"/>
<path d="M61 104C61 104.224 61.0074 104.446 61.0221 104.669M61.0221 104.669C61.7217 115.218 78.905 124 100 124C106.012 124 111.914 123.223 117 122C122.752 120.616 126 114.955 126 109V74C126 70.3508 122.495 68.0345 119 69C113.44 70.5362 106.79 72 100 72C78.4609 72 61 62.8449 61 52L61.0221 104.669Z" stroke="#949494" stroke-width="2"/>
<path d="M86 139C85.0376 139.836 84 141.017 84 142C84 145.59 91.1634 148 100 148C108.837 148 116 145.59 116 142C116 141.017 115.962 139.836 115 139M86 139C82.5047 142.01 76.7128 146.8 73 150C71.5901 150.965 69.9865 151.893 69 153C68.4366 153.632 68.4099 154.33 68 155C67.0251 156.594 66 158.243 66 160C66 169.389 81.4985 177 100 177C118.502 177 133 169.389 133 160C133 157.505 131.903 155.135 130 153L115 139M86 139C86.8567 138.256 87.5499 137.558 89 137M115 139C114.143 138.256 112.45 137.558 111 137M139 43C139 53.7696 121.539 62 100 62C78.4609 62 61 53.7696 61 43M139 43C139 32.2304 121.539 23 100 23C78.4609 23 61 32.2304 61 43M139 43V113C139 121.86 127.183 128.626 111 131M61 43C61.022 43.5916 61.0092 89.9131 61 113C61 121.86 72.8169 128.626 89 131M89 131C92.4886 131.512 96.1802 132 100 132C103.82 132 107.511 131.512 111 131M89 131V137M111 131V137M89 137V141C90 143.5 93.9249 145 100 145C106.075 145 110.5 143.5 111 141V137" stroke="black" stroke-width="2"/>
</svg>
