<svg width="200" height="200" viewBox="0 0 200 200" fill="none" xmlns="http://www.w3.org/2000/svg">
<path d="M53.4664 83.7837L57.4771 78.1687C58.3461 76.9521 59.9781 76.561 61.3041 77.2516L79.9966 86.9874C81.5906 87.8175 82.1019 89.8533 81.0895 91.3381L77.0181 97.3096C76.1513 98.5808 74.4634 98.9903 73.1105 98.2575L54.4787 88.1652C52.8926 87.3061 52.4179 85.2515 53.4664 83.7837Z" fill="#B6B6B6"/>
<path d="M61.8245 101.196C60.7331 103.191 58.5909 104.12 57.0397 103.272C55.4886 102.423 55.116 100.118 56.2074 98.1232C57.2989 96.1283 59.4411 95.199 60.9922 96.0477C62.5433 96.8963 62.9159 99.2014 61.8245 101.196Z" fill="#B6B6B6"/>
<path d="M69.7785 105.662C69.0359 107.019 67.5968 107.662 66.5643 107.097C65.5318 106.532 65.2968 104.974 66.0395 103.616C66.7821 102.259 68.2211 101.617 69.2536 102.181C70.2861 102.746 70.5211 104.305 69.7785 105.662Z" fill="#B6B6B6"/>
<path d="M52.5758 95.551C51.8332 96.9083 50.3942 97.5508 49.3617 96.9859C48.3292 96.421 48.0942 94.8627 48.8368 93.5053C49.5795 92.148 51.0185 91.5055 52.051 92.0704C53.0835 92.6353 53.3185 94.1936 52.5758 95.551Z" fill="#B6B6B6"/>
<path d="M163.938 84.5475C163.995 86.3311 163.118 88.1408 161.31 89.1137L114.558 114.261C99.7227 122.241 81.8665 122.215 67.0552 114.191L38.6107 98.7809C36.9589 97.8861 36.089 96.2937 36 94.6638M57.4771 78.1687L53.4664 83.7837C52.4179 85.2515 52.8926 87.3061 54.4787 88.1652L73.1105 98.2575C74.4634 98.9903 76.1513 98.5808 77.0181 97.3096L81.0895 91.3381C82.1019 89.8533 81.5906 87.8175 79.9966 86.9874L61.3041 77.2516C59.9781 76.561 58.3461 76.9521 57.4771 78.1687ZM61.8245 101.196C60.7331 103.191 58.5909 104.12 57.0397 103.272C55.4886 102.423 55.116 100.118 56.2074 98.1232C57.2989 96.1283 59.4411 95.199 60.9922 96.0477C62.5433 96.8963 62.9159 99.2014 61.8245 101.196ZM69.7785 105.662C69.0359 107.019 67.5968 107.662 66.5643 107.097C65.5318 106.532 65.2968 104.974 66.0395 103.616C66.7821 102.259 68.2211 101.617 69.2536 102.181C70.2861 102.746 70.5211 104.305 69.7785 105.662ZM52.5758 95.551C51.8332 96.9083 50.3942 97.5508 49.3617 96.9859C48.3292 96.421 48.0942 94.8627 48.8368 93.5053C49.5795 92.148 51.0185 91.5055 52.051 92.0704C53.0835 92.6353 53.3185 94.1936 52.5758 95.551Z" stroke="#949494" stroke-width="2"/>
<path fill-rule="evenodd" clip-rule="evenodd" d="M164.003 84.2016C163.986 84.4335 163.95 84.6649 163.945 84.8974L163.945 84.9016C163.948 84.7555 163.963 84.6113 163.978 84.4668C163.987 84.3787 163.997 84.2905 164.003 84.2016ZM162.846 119.547L162.414 120.4C162.587 120.128 162.731 119.843 162.846 119.547ZM41.8272 139.305C41.802 139.134 41.773 138.964 41.7272 138.797C41.773 138.964 41.802 139.134 41.8272 139.305Z" fill="#B6B6B6"/>
<path d="M44.3373 142.93L66.8899 155.509C81.9828 163.928 100.353 163.956 115.472 155.583L154.612 133.906C155.638 133.337 156.359 132.497 156.772 131.547L162.414 120.4C161.988 121.07 161.388 121.655 160.612 122.084L116.377 146.583C101.259 154.956 82.8885 154.928 67.7956 146.509L41.3373 131.751C40.1919 131.112 39.4303 130.136 39.0524 129.047L41.7272 138.797C41.773 138.964 41.802 139.134 41.8272 139.305C42.0396 140.75 42.8761 142.115 44.3373 142.93Z" fill="#B6B6B6"/>
<path d="M85.4438 77.9394C86.3896 78.6044 87.6305 78.701 88.6507 78.1569L94.4809 75.0475C87.875 70.3179 77.4441 65.9921 71.4796 63.7197C69.7977 63.1334 68.3198 62.7302 66.8899 62.5049V67.3012C66.8899 68.6328 67.7696 69.802 69.0433 70.1904C75.4825 72.1543 79.6767 73.8845 85.4438 77.9394Z" fill="#B6B6B6"/>
<path d="M39.0524 129.047C39.4303 130.136 40.1919 131.112 41.3373 131.751L67.7956 146.509C82.8885 154.928 101.259 154.956 116.377 146.583L160.612 122.084C161.388 121.655 161.988 121.07 162.414 120.4M39.0524 129.047C38.8289 128.404 38.7395 127.722 38.7841 127.047C38.8305 126.647 36.9569 105.292 36.0144 94.6637C35.478 84.844 50.1076 69.1807 56.4809 63.5475M39.0524 129.047L41.7272 138.797M162.846 119.547C163.033 119.066 163.144 118.559 163.178 118.047L163.945 84.9016M162.846 119.547C162.731 119.843 162.587 120.128 162.414 120.4M162.846 119.547L162.414 120.4M161.677 67.0475C161.591 68.715 160.684 70.337 159.013 71.2172L120.481 91.5109C116.435 92.9787 114.234 92.8192 110.692 90.1427C110.552 90.0367 110.427 89.922 110.308 89.7926C109.027 88.3986 100.867 79.6196 94.4809 75.0475M161.677 67.0475C161.757 65.48 161.113 63.8723 159.696 62.8026L141.537 49.0942C125.451 36.9512 103.647 35.653 86.2344 45.8016L66.9269 57.0545M161.677 67.0475C162.56 71.929 164.183 81.7796 164.003 84.2016M56.4809 63.5475L66.8574 57.0962M56.4809 63.5475C60.8271 62.3752 63.7422 62.009 66.8899 62.5049M56.4809 63.5475C60.3763 61.1256 66.3647 57.4025 66.8574 57.0962M94.4809 75.0475L88.6507 78.1569C87.6305 78.701 86.3896 78.6044 85.4438 77.9394C79.6767 73.8845 75.4825 72.1543 69.0433 70.1904C67.7696 69.802 66.8899 68.6328 66.8899 67.3012V62.5049M94.4809 75.0475C87.875 70.3179 77.4441 65.9921 71.4796 63.7197C69.7977 63.1334 68.3198 62.7302 66.8899 62.5049M164.003 84.2016V84.2016C163.986 84.4335 163.95 84.6649 163.945 84.8974L163.945 84.9016M164.003 84.2016C163.997 84.2905 163.987 84.3787 163.978 84.4668C163.963 84.6113 163.948 84.7555 163.945 84.9016M162.414 120.4L156.772 131.547C156.359 132.497 155.638 133.337 154.612 133.906L115.472 155.583C100.353 163.956 81.9828 163.928 66.8899 155.509L44.3373 142.93C42.8761 142.115 42.0396 140.75 41.8272 139.305M41.8272 139.305C41.802 139.134 41.773 138.964 41.7272 138.797M41.8272 139.305V139.305C41.802 139.134 41.773 138.964 41.7272 138.797V138.797M66.8574 57.0962C66.8817 57.0811 66.9022 57.0688 66.9269 57.0545M66.8574 57.0962V57.0962C66.8791 57.0828 66.9009 57.0696 66.923 57.0568L66.9269 57.0545" stroke="black" stroke-width="2"/>
</svg>
