<svg width="200" height="200" viewBox="0 0 200 200" fill="none" xmlns="http://www.w3.org/2000/svg">
<path d="M58 37C58.4024 37.4 112.669 64.5 140 78V69L58 28V37Z" fill="#B6B6B6"/>
<path d="M58 48L140 87V78C112.669 64.5 58.4024 37.4 58 37V48Z" fill="#B6B6B6"/>
<path d="M58 57C58.4024 57.4 112.669 84.5 140 98V87L58 48V57Z" fill="#B6B6B6"/>
<path d="M140 98C112.669 84.5 58.4024 57.4 58 57V67L140 107V98Z" fill="#B6B6B6"/>
<path d="M58 76C58.4024 76.4 112.669 103.5 140 117V107L58 67V76Z" fill="#B6B6B6"/>
<path d="M58 76C58.4024 76.4 112.669 103.5 140 117V107M58 76C58 74.4 58 43.3333 58 28M58 76V67M58 67L140 107M58 67V57M141 107H140M58 57C58.4024 57.4 112.669 84.5 140 98M58 57V48M140 98V87M140 98V107M58 48L140 87M58 48V37M141 88L140 87M58 37C58.4024 37.4 112.669 64.5 140 78M58 37V28M140 78V69M140 78V87M58 28L140 69M140 69V87M140 87V107" stroke="#949494" stroke-width="2" stroke-linejoin="round"/>
<path d="M50 19V136L55 139M50 19L145 66M50 19L54 16L150 62M55 139V27L58 28M55 139L58 137V28M145 184L140 182V69L58 28M145 184V66M145 184L149 182L150 62M145 66L150 62" stroke="black" stroke-width="2" stroke-linejoin="round"/>
</svg>
