<svg width="200" height="200" viewBox="0 0 200 200" fill="none" xmlns="http://www.w3.org/2000/svg">
<path d="M86.4999 52.8386C87.3133 52.4667 99.121 44.7722 104.923 40.9714" stroke="#949494" stroke-width="2" stroke-linejoin="round"/>
<path d="M121.949 92.568C122.627 92.2577 132.48 85.8375 137.321 82.6662" stroke="#949494" stroke-width="1.66877" stroke-linejoin="round"/>
<path d="M95.4999 64.8386C96.3133 64.4667 108.121 56.7722 113.923 52.9714" stroke="#949494" stroke-width="2" stroke-linejoin="round"/>
<path d="M128.5 103.77C129.179 103.459 139.031 97.0392 143.872 93.8679" stroke="#949494" stroke-width="1.66877" stroke-linejoin="round"/>
<path d="M97.4987 159.525L102 156.846" stroke="#949494" stroke-width="2" stroke-linejoin="round"/>
<path d="M128.5 156.346C129.179 156.036 139.031 149.616 143.872 146.445" stroke="#949494" stroke-width="1.66877" stroke-linejoin="round"/>
<path d="M117.025 78.3897L129.452 83.607C135.267 86.3728 138.972 92.2376 138.972 98.677V151.981C138.972 154.289 137.84 156.226 136.181 157.41L141.058 154.163C142.788 152.987 143.978 151.011 143.978 148.644V95.3395C143.978 88.9001 140.273 83.0352 134.458 80.2694L121.978 75.0013C120.035 74.0769 117.959 74.18 116.242 75.0013L115.5 75.4828C114.072 76.4086 112.347 77.5264 110.576 78.6727C112.413 77.5081 114.809 77.2607 117.025 78.3897Z" fill="#B6B6B6"/>
<path d="M80 35.8461L98.0901 44.4195C105.06 47.7343 109.5 54.7632 109.5 62.4808V79.3687L110.576 78.6727C112.347 77.5264 114.072 76.4086 115.5 75.4828V58.4808C115.5 50.7632 111.06 43.7343 104.09 40.4195L85.936 31.7852C83.6067 30.6774 81.1196 30.801 79.0617 31.7852C77.2053 32.9894 74.7761 34.5637 72.2703 36.1854C74.4719 34.7895 77.3444 34.493 80 35.8461Z" fill="#B6B6B6"/>
<path fill-rule="evenodd" clip-rule="evenodd" d="M59.988 44.0884C59.889 44.1495 59.8214 44.1901 59.7882 44.2083C59.8542 44.1673 59.9208 44.1274 59.988 44.0884ZM93.2434 168.464L93.3907 168.37C93.3419 168.402 93.2928 168.434 93.2434 168.464Z" fill="#B6B6B6"/>
<path fill-rule="evenodd" clip-rule="evenodd" d="M125.408 164.315L125.531 164.236C125.49 164.263 125.449 164.289 125.408 164.315Z" fill="#B6B6B6"/>
<path d="M59.7882 44.2083C57.5602 45.5884 56 48.0435 56 51.0098V142.212C56 149.929 60.4404 156.958 67.4099 160.273L85.564 168.907C87.7303 169.937 90.033 169.903 92 169.101C92.4323 168.925 92.8485 168.712 93.2434 168.464M59.7882 44.2083C59.8214 44.1901 59.889 44.1495 59.988 44.0884M59.7882 44.2083C59.8542 44.1673 59.9208 44.1274 59.988 44.0884M93.2434 168.464L93.3907 168.37M93.2434 168.464C93.2928 168.434 93.3419 168.402 93.3907 168.37M93.2434 168.464C93.254 168.458 93.3047 168.425 93.3907 168.37M105.714 160.483C106.139 160.219 106.539 159.917 106.909 159.58M105.714 160.483L107 159.626M105.714 160.483C105.514 160.611 94.7876 167.475 93.3907 168.37M72.2703 36.1854C74.7761 34.5637 77.2053 32.9894 79.0617 31.7852C81.1196 30.801 83.6067 30.6774 85.936 31.7852L104.09 40.4195C111.06 43.7343 115.5 50.7632 115.5 58.4808V75.4828M72.2703 36.1854C74.4719 34.7895 77.3444 34.493 80 35.8461L98.0901 44.4195C105.06 47.7343 109.5 54.7632 109.5 62.4808V79.3687M72.2703 36.1854C66.8995 39.6612 61.1767 43.3548 59.988 44.0884M100.161 85.3669C98.3018 86.5185 97 88.567 97 91.042V144.346C97 150.786 100.705 156.65 106.52 159.416L106.909 159.58M100.161 85.3669C100.189 85.3517 100.245 85.3179 100.328 85.2669M100.161 85.3669C100.216 85.3328 100.271 85.2994 100.328 85.2669M116.242 75.0013C117.959 74.1801 120.035 74.0769 121.978 75.0013L134.458 80.2694C140.273 83.0352 143.978 88.9001 143.978 95.3395V148.644C143.978 151.011 142.788 152.987 141.058 154.163L136.181 157.41M116.242 75.0013C116.006 75.1549 115.758 75.3157 115.5 75.4828M116.242 75.0013L115.5 75.4828M125.408 164.315C125.078 164.521 124.731 164.699 124.37 164.846C122.729 165.515 120.808 165.544 119 164.684L106.909 159.58M125.408 164.315C125.449 164.289 125.49 164.263 125.531 164.236M125.408 164.315C125.416 164.309 125.459 164.282 125.531 164.236M125.408 164.315L125.531 164.236M135.813 157.655L136.181 157.41M135.813 157.655C135.938 157.578 136.061 157.496 136.181 157.41M135.813 157.655C135.646 157.762 126.698 163.488 125.531 164.236M110.576 78.6727C112.413 77.5081 114.809 77.2607 117.025 78.3897L129.452 83.607C135.267 86.3728 138.972 92.2376 138.972 98.677V151.981C138.972 154.289 137.84 156.226 136.181 157.41M110.576 78.6727C110.218 78.904 109.859 79.1364 109.5 79.3687M110.576 78.6727C112.347 77.5264 114.072 76.4086 115.5 75.4828M110.576 78.6727L109.5 79.3687M109.5 79.3687C105.357 82.0487 101.24 84.7036 100.328 85.2669M59.988 44.0884C62.1462 42.8355 64.8856 42.5722 67.436 43.7852L85.5901 52.4195C92.5596 55.7343 97 62.7632 97 70.4808V161.683C97 164.569 95.5228 166.971 93.3907 168.37M100.328 85.2669C100.504 85.1647 100.684 85.0704 100.869 84.9843C102.574 84.1903 104.622 84.1008 106.542 85.014L119.022 90.2821C124.837 93.0478 128.542 98.9127 128.542 105.352V158.656C128.542 161.064 127.31 163.069 125.531 164.236" stroke="black" stroke-width="2" stroke-linejoin="round"/>
<path d="M72.5 40.3462L75.5426 38.6076C75.8289 38.444 76.1774 38.432 76.4743 38.5757L91.5 45.8462L88.4574 47.5848C88.1711 47.7484 87.8226 47.7603 87.5257 47.6167L72.5 40.3462Z" stroke="#949494" stroke-width="2" stroke-linejoin="round"/>
</svg>
