<svg width="200" height="200" viewBox="0 0 200 200" fill="none" xmlns="http://www.w3.org/2000/svg">
<path fill-rule="evenodd" clip-rule="evenodd" d="M54.498 114.75V143.735C54.498 144.363 54.8345 144.943 55.3798 145.254C56.5465 145.921 57.998 145.08 57.998 143.737V116.75L54.498 114.75Z" fill="#B6B6B6"/>
<path d="M54.498 114.75L57.998 116.75M54.498 114.75V103.266M54.498 114.75V143.735M57.998 116.75V103.263M57.998 116.75V143.737M57.998 116.75C57.998 125.271 57.998 135.877 57.998 143.737M57.998 116.75C57.998 110.493 57.998 105.359 57.998 103.263M87.498 111.25V167.25M111.498 111.25V167.25M54.498 103.266C54.498 101.922 55.9496 101.08 57.1163 101.747M54.498 103.266V103.266C54.498 101.922 55.9496 101.08 57.1163 101.747V101.747M57.1163 101.747C57.6615 102.058 57.998 102.635 57.998 103.263M57.1163 101.747V101.747C57.6599 102.057 57.998 102.637 57.998 103.263V103.263M57.998 143.737C57.998 145.08 56.5465 145.921 55.3798 145.254M57.998 143.737V143.737C57.998 145.08 56.5458 145.921 55.3798 145.254V145.254M55.3798 145.254C54.8345 144.943 54.498 144.363 54.498 143.735M55.3798 145.254V145.254C54.8345 144.943 54.498 144.363 54.498 143.735V143.735" stroke="#949494" stroke-width="2" stroke-linecap="round" stroke-linejoin="round"/>
<path d="M30.0177 77.2503C30.1483 78.8177 31.0038 80.3324 32.5884 81.2049L79.9943 107.306C91.8293 113.822 106.154 113.924 118.08 107.576L167.845 81.0896C169.415 80.2539 170.289 78.7873 170.463 77.2503M30.0177 77.2503V134.25C30.1483 135.818 31.0038 137.332 32.5884 138.205L79.9943 164.306C91.8293 170.822 106.154 170.924 118.08 164.576L167.845 138.09C169.415 137.254 170.289 135.787 170.463 134.25V77.2503M30.0177 77.2503C29.8774 75.5677 30.5727 73.8244 32.0984 72.7503M170.463 77.2503C170.655 75.5622 170.001 73.7892 168.498 72.6744M36 69.8351L82.7765 45.5113C94.5198 39.4048 108.524 39.5029 120.18 45.7734L164.595 69.6656M48.2881 76.4453L82.7765 58.5113C94.5198 52.4048 108.524 52.5029 120.18 58.7734L152.307 76.0554" stroke="black" stroke-width="2" stroke-linecap="round" stroke-linejoin="round"/>
<path fill-rule="evenodd" clip-rule="evenodd" d="M168.304 74.7504L168.272 65.2504C168.096 66.8016 167.208 68.2812 165.611 69.1115L164.571 69.6526L164.546 69.6656L152.258 76.0554L117.769 93.9894C106.026 100.096 92.0223 99.9978 80.3657 93.7273L48.2388 76.4453L35.9507 69.8351L34.8232 69.2286C33.0928 68.2978 32.2177 66.605 32.1925 64.9019V64.7504C32.1917 64.8009 32.1917 64.8514 32.1925 64.9019V74.7504C32.1665 76.504 33.0415 78.2702 34.8232 79.2286L80.3657 103.727C92.0223 109.998 106.026 110.096 117.769 103.989L165.611 79.1115C167.379 78.1923 168.279 76.4774 168.304 74.7504Z" fill="#B6B6B6"/>
<path d="M82.7271 35.5113L34.8851 60.3892C33.1174 61.3084 32.218 63.0233 32.1925 64.7504V64.9019C32.2177 66.605 33.0928 68.2978 34.8232 69.2286L35.9507 69.8351L82.7765 45.5113C94.5198 39.4048 108.524 39.5029 120.18 45.7734L164.571 69.6526L165.611 69.1115C167.208 68.2812 168.096 66.8016 168.272 65.2504C168.488 63.3405 167.625 61.3218 165.673 60.2721L120.131 35.7734C108.474 29.5029 94.4705 29.4048 82.7271 35.5113Z" fill="#B6B6B6"/>
<path d="M32.1925 64.7504C32.218 63.0233 33.1174 61.3084 34.8851 60.3892L82.7271 35.5113C94.4705 29.4048 108.474 29.5029 120.131 35.7734L165.673 60.2721C167.625 61.3218 168.488 63.3405 168.272 65.2504M32.1925 64.7504C32.1917 64.8009 32.1917 64.8514 32.1925 64.9019M32.1925 64.7504V64.9019M168.272 65.2504C168.096 66.8016 167.208 68.2812 165.611 69.1115L164.571 69.6526M168.272 65.2504L168.304 74.7504C168.279 76.4774 167.379 78.1923 165.611 79.1115L117.769 103.989C106.026 110.096 92.0223 109.998 80.3657 103.727L34.8232 79.2286C33.0415 78.2702 32.1665 76.504 32.1925 74.7504V64.9019M35.9507 69.8351L34.8232 69.2286C33.0928 68.2978 32.2177 66.605 32.1925 64.9019M35.9507 69.8351L48.2388 76.4453L80.3657 93.7273C92.0223 99.9978 106.026 100.096 117.769 93.9894L152.258 76.0554L164.546 69.6656L164.571 69.6526M35.9507 69.8351L82.7765 45.5113C94.5198 39.4048 108.524 39.5029 120.18 45.7734L164.571 69.6526M116.633 63.1787L137.5 74.7504M164.595 69.6656L164.571 69.6526" stroke="#949494" stroke-width="2" stroke-linecap="round" stroke-linejoin="round"/>
</svg>
