<svg width="200" height="200" viewBox="0 0 200 200" fill="none" xmlns="http://www.w3.org/2000/svg">
<path fill-rule="evenodd" clip-rule="evenodd" d="M103.289 25.3283C109.374 24.8522 115.506 25.5738 121.435 27.419C121.272 27.3586 121.11 27.2994 120.947 27.2412C115.242 25.2019 109.226 24.5274 103.289 25.3283ZM142.652 45.7412L142.757 46.5832C142.73 46.3052 142.695 46.0245 142.652 45.7412Z" fill="#B6B6B6"/>
<path fill-rule="evenodd" clip-rule="evenodd" d="M92.2377 136.241C99.0971 140.181 100.728 145.347 100.238 152.241L87.677 163.199L87.6284 163.241C85.9253 162.305 84.1137 161.152 82.2348 159.955C81.6031 159.553 80.9638 159.146 80.3185 158.741C78.9975 157.912 78.1464 157.401 77.3337 156.914C76.3566 156.328 75.4349 155.775 73.8185 154.741C70.6733 152.935 68.6275 150.87 67.3813 148.5C65.9096 145.701 65.5531 142.474 65.8184 138.741C65.8184 138.095 65.8855 135.162 66.0293 133.202C66.3065 132.703 66.5122 132.16 66.6459 131.598C69.0228 121.606 75.8099 125.926 83.8213 131.027C84.453 131.429 85.0924 131.836 85.7377 132.241C87.0588 133.071 87.9098 133.581 88.7226 134.068C89.6996 134.654 90.6213 135.207 92.2377 136.241Z" fill="#B6B6B6"/>
<path d="M153 128.794C153.49 135.688 152.077 139.524 145.218 143.463L138.602 147.658C126.991 155.02 113.423 157.952 100.32 156.288C100.316 158.793 100.282 161.964 100.249 164.313C100.242 164.858 100.157 165.404 99.9141 165.892C99.5963 166.531 99.1601 167.181 98.6834 167.597L98.428 167.82C112.596 170.271 127.487 167.412 140.112 159.449L146.863 155.19C153.535 150.254 154.573 146.316 154.43 140.272L153 128.794Z" fill="#B6B6B6"/>
<path d="M100.237 156.278C100.265 156.281 100.292 156.285 100.32 156.288M66.0293 133.202C65.8855 135.162 65.8184 138.095 65.8184 138.741C65.5531 142.474 65.9096 145.701 67.3813 148.5M66.0293 133.202C66.3065 132.703 66.5122 132.16 66.6459 131.598M66.0293 133.202C65.6409 133.901 65.1122 134.514 64.4449 134.972M87.7378 163.301C87.7014 163.281 87.6649 163.261 87.6284 163.241M67.3813 148.5C68.6275 150.87 70.6733 152.935 73.8185 154.741C75.4349 155.775 76.3566 156.328 77.3337 156.914C78.1464 157.401 78.9975 157.912 80.3185 158.741C80.9638 159.146 81.6031 159.553 82.2348 159.955C84.1137 161.152 85.9253 162.305 87.6284 163.241M67.3813 148.5L53 158.46M71.22 153L58.645 161.936M58.5546 162L58.645 161.936M142.652 45.7412C142.955 41.8546 140.626 37.3286 133.158 32.7117C129.396 30.4445 125.462 28.6725 121.435 27.419M142.652 45.7412L142.757 46.5832M142.652 45.7412C142.695 46.0245 142.73 46.3052 142.757 46.5832M142.757 46.5832L154.43 140.272M142.757 46.5832C143.872 57.8833 132.677 64.7558 125.971 62.1139C124.319 61.4628 122.533 60.8519 120.789 61.1884C107.849 63.6842 93.958 60.5176 82.3557 53.1327C78.65 50.7951 74.942 46.684 75.6439 41.7654M154.43 140.272C154.573 146.316 153.535 150.254 146.863 155.19L140.112 159.449C127.487 167.412 112.596 170.271 98.428 167.82M154.43 140.272L153 128.794C153.49 135.688 152.077 139.524 145.218 143.463L138.602 147.658C126.991 155.02 113.423 157.952 100.32 156.288M100.238 152.241C100.728 145.347 99.0971 140.181 92.2377 136.241C90.6213 135.207 89.6996 134.654 88.7226 134.068C87.9098 133.581 87.0588 133.071 85.7377 132.241C85.0924 131.836 84.453 131.429 83.8213 131.027C75.8099 125.926 69.0228 121.606 66.6459 131.598M100.238 152.241L87.677 163.199M100.238 152.241C100.303 152.416 100.323 154.097 100.32 156.288M45.0085 165.241C45.013 165.319 45.0194 165.397 45.0275 165.475M87.677 163.199C87.6608 163.213 87.6446 163.227 87.6284 163.241M87.677 163.199L87.6284 163.241M45.0086 151.241C44.9124 149.586 45.626 147.887 47.1708 146.826L61.2092 137.192M45.0086 151.241C45.0995 152.807 45.9148 154.333 47.4363 155.242L58.645 161.936M45.0086 151.241L45.0275 165.475M45.0275 165.475C45.1824 166.957 45.9906 168.378 47.4363 169.242L64.2748 179.298C71.7077 183.737 81.1529 182.89 87.677 177.198L98.428 167.82M61.2092 137.192L64.4449 134.972M61.2092 137.192C63.2744 123.825 71.5995 69.8221 75.6439 41.7654M98.428 167.82L98.6834 167.597C99.1601 167.181 99.5963 166.531 99.9141 165.892C100.157 165.404 100.242 164.858 100.249 164.313C100.282 161.964 100.316 158.793 100.32 156.288M66.6459 131.598C66.3249 132.948 65.5884 134.187 64.4449 134.972M58.645 161.936L64.2748 165.298C71.6893 169.726 81.1061 168.894 87.6284 163.241M103.289 25.3283C103.105 25.3427 102.921 25.3582 102.738 25.3748C96.7172 25.9178 90.7498 27.6367 85.0778 30.6033C78.7922 34.4893 76.1468 38.311 75.6474 41.7412C75.6462 41.7493 75.6451 41.7573 75.6439 41.7654M103.289 25.3283C109.226 24.5274 115.242 25.2019 120.947 27.2412C121.11 27.2994 121.272 27.3586 121.435 27.419M103.289 25.3283C99.0639 25.8983 94.8787 27.2155 90.8739 29.3198C78.974 36.6802 83.763 43.5718 88.5886 46.5539C101.098 54.3554 117.169 55.7451 129.88 47.7267C134.771 44.6417 139.709 37.647 127.964 30.5372C125.853 29.2922 123.669 28.2506 121.435 27.419M103.289 25.3283C109.374 24.8522 115.506 25.5738 121.435 27.419" stroke="#949494" stroke-width="2"/>
<ellipse cx="81.8919" cy="103.932" rx="8.09772" ry="11.9708" transform="rotate(-23.1661 81.8919 103.932)" fill="#B6B6B6" stroke="#949494" stroke-width="2"/>
<ellipse cx="83.617" cy="74.9833" rx="2.9912" ry="4.42186" transform="rotate(-23.1661 83.617 74.9833)" fill="#B6B6B6" stroke="#949494" stroke-width="2"/>
<path d="M75.6474 41.7412C76.1468 38.311 78.7922 34.4893 85.0778 30.6033C90.7498 27.6367 96.7172 25.9178 102.738 25.3748C113.135 24.437 123.691 27.0059 133.158 32.7117C140.626 37.3286 142.955 41.8546 142.652 45.7412M75.6474 41.7412C74.9298 46.6705 78.6439 50.7913 82.3557 53.1327C93.958 60.5176 107.849 63.6842 120.789 61.1884C122.533 60.8519 124.319 61.4628 125.971 62.1139C132.677 64.7558 143.872 57.8833 142.757 46.5832M75.6474 41.7412C71.6043 69.791 63.275 123.821 61.2092 137.192M142.652 45.7412L142.757 46.5832M142.652 45.7412C142.695 46.0245 142.73 46.3052 142.757 46.5832M142.757 46.5832L154.43 140.272C154.573 146.316 153.535 150.254 146.863 155.19L140.112 159.449C127.487 167.412 112.596 170.271 98.428 167.82M100.238 152.241C100.728 145.347 99.0971 140.181 92.2377 136.241C89.2767 134.347 88.6468 134.068 85.7377 132.241C76.9077 126.697 69.2102 120.818 66.6459 131.598C66.3249 132.948 65.5884 134.187 64.4449 134.972L61.2092 137.192M100.238 152.241L87.677 163.198C81.1529 168.89 71.7077 169.737 64.2748 165.298L47.4363 155.242M100.238 152.241L87.677 163.199C81.1529 168.89 71.7077 169.737 64.2748 165.298L47.4363 155.242M100.238 152.241C100.378 152.617 100.31 159.91 100.249 164.313C100.242 164.858 100.157 165.404 99.9141 165.892C99.5963 166.531 99.1601 167.181 98.6834 167.597L98.428 167.82M45.0085 165.241C45.013 165.319 45.0194 165.397 45.0275 165.475M45.0086 151.241C44.9124 149.586 45.626 147.887 47.1708 146.826L61.2092 137.192M45.0086 151.241C45.0995 152.807 45.9148 154.333 47.4363 155.242M45.0086 151.241L45.0275 165.475M45.0275 165.475C45.1824 166.957 45.9906 168.378 47.4363 169.242L64.2748 179.298C71.7077 183.737 81.1529 182.89 87.677 177.198L98.428 167.82M127.964 30.5372C139.709 37.647 134.771 44.6417 129.88 47.7267C117.169 55.7451 101.098 54.3554 88.5886 46.5539C83.763 43.5718 78.974 36.6802 90.8739 29.3198C100.506 24.2587 111.181 23.7506 120.947 27.2412C123.351 28.1003 125.699 29.2018 127.964 30.5372Z" stroke="black" stroke-width="2"/>
</svg>
