<svg width="200" height="200" viewBox="0 0 200 200" fill="none" xmlns="http://www.w3.org/2000/svg">
<path d="M137.042 74.2266V145.227L133.093 143.91C131.868 143.502 131.042 142.356 131.042 141.064V81.4692C131.042 80.6736 131.358 79.9105 131.92 79.3479L137.042 74.2266Z" fill="#B6B6B6"/>
<path d="M137.042 169.227V145.227M137.042 54.2266V74.2266M137.042 145.227V74.2266M137.042 145.227L133.093 143.91M137.042 74.2266L131.92 79.3479M103.042 62.2266C103.375 100.56 103.842 177.427 103.042 178.227M121.042 62.2266V176.227M133.093 143.91C131.868 143.502 131.042 142.356 131.042 141.064M133.093 143.91V143.91C131.868 143.502 131.042 142.356 131.042 141.064V141.064M131.92 79.3479C131.358 79.9105 131.042 80.6736 131.042 81.4692M131.92 79.3479V79.3479C131.358 79.9105 131.042 80.6736 131.042 81.4692V81.4692M131.042 81.4692V141.064" stroke="#949494" stroke-width="2"/>
<path d="M56.0417 37.2263C56.2961 39.4021 57.778 42.085 60.0417 43.2263L91.0417 59.2263C102.673 65.0909 116.591 64.437 128.042 58.2263L139.042 52.2263C141.243 51.0326 142.832 49.3837 143.042 47.2263M56.0417 37.2263C55.7247 34.5153 57.2301 31.6662 60.0417 30.2263L72.0417 24.2263C83.2199 18.502 95.7736 18.6811 107.042 24.2263L139.042 40.2263C141.864 41.6153 143.306 44.516 143.042 47.2263M56.0417 37.2263V153.226C56.2627 155.117 57.4101 157.389 59.1917 158.702C59.721 159.092 60.3842 159.226 61.0417 159.226V159.226M143.042 47.2263V163.226C142.832 165.384 141.243 167.033 139.042 168.226L128.042 174.226C118.324 179.497 107.374 180.644 97.0417 177.226M61.0417 159.226C62.7942 155.471 66.8943 153.361 71.0417 155.226L81.0417 160.226C88.5868 163.62 94.364 169.697 97.0417 177.226M61.0417 159.226L91.0417 175.226C92.8027 176.114 95.1983 176.617 97.0417 177.226M79.6705 145.458L87.2761 148.26C92.4989 150.184 98.0417 146.319 98.0417 140.753V95.6705C98.0417 83.8414 91.0905 73.1166 80.2927 68.286L71.3086 64.2668C66.0164 61.8992 60.0417 65.7717 60.0417 71.5694V117.308C60.0417 129.877 67.8767 141.113 79.6705 145.458Z" stroke="black" stroke-width="2"/>
</svg>
