<svg width="200" height="200" viewBox="0 0 200 200" fill="none" xmlns="http://www.w3.org/2000/svg">
<path d="M104.074 117.816L168.574 85.3159M109.574 129.316L173.574 96.3159" stroke="#949494" stroke-width="2" stroke-linejoin="round"/>
<path d="M28.719 80.0668C27.1661 80.8745 26.0389 82.4817 26.0304 84.4708C26.0119 88.7979 25.9957 94.2833 26.001 99.4846C26.0085 106.782 30.0822 113.438 36.5319 116.853L103.502 152.307C105.631 153.434 108.027 152.854 109.485 151.316M28.719 80.0668C30.0802 79.3587 31.7685 79.2649 33.317 80.0668L99.6016 114.393C106.063 117.739 110.198 124.331 110.397 131.605L110.839 147.751C110.878 149.17 110.345 150.41 109.485 151.316M28.719 80.0668C29.0031 79.9327 71.2201 58.3443 92.2931 47.5668C93.6543 46.8587 95.3426 46.7649 96.8911 47.5668L163.176 81.8928C169.637 85.239 173.772 91.8309 173.971 99.1049L174.413 111.816C174.413 114.393 172.574 118.195 170.574 119.265C149.996 130.279 110.569 152.109 109.485 151.316" stroke="black" stroke-width="2" stroke-linejoin="round"/>
<path d="M48.5764 107.607C48.5703 104.699 48.5779 101.456 48.5868 98.9626C48.5936 97.07 50.6034 95.8615 52.2803 96.7391L78.7094 110.57C81.347 111.951 83 114.682 83 117.659V126.587C83 128.499 80.9593 129.718 79.2757 128.813L52.754 114.547C50.1938 113.17 48.5825 110.514 48.5764 107.607Z" fill="#B6B6B6" stroke="#949494" stroke-width="2" stroke-linejoin="round"/>
<path d="M34.0503 92.0565C36.7155 91.1565 39.9173 93.5106 41.2017 97.3145C42.2365 100.379 41.711 103.45 40.0741 104.998M34.0503 92.0565C33.1938 92.3457 32.497 92.9357 31.9882 93.7297C30.9139 95.4063 30.6785 97.992 31.5502 100.573C32.8346 104.377 36.0363 106.731 38.7015 105.831C39.2195 105.657 39.6792 105.372 40.0741 104.998M34.0503 92.0565C34.8916 91.6429 36.6786 90.7416 37.0967 90.4451C39.7619 89.5452 42.9637 91.8993 44.2481 95.7032C45.1803 98.4642 44.8462 101.23 43.5737 102.883L40.0741 104.998" stroke="black" stroke-width="2"/>
<path d="M90.6067 122.619C93.2719 121.719 96.4737 124.073 97.7581 127.877C98.7928 130.942 98.2674 134.012 96.6305 135.56M90.6067 122.619C89.7502 122.908 89.0534 123.498 88.5446 124.292C87.4703 125.969 87.2349 128.554 88.1066 131.136C89.3909 134.94 92.5927 137.294 95.2579 136.394C95.7759 136.219 96.2356 135.934 96.6305 135.56M90.6067 122.619C90.6998 122.589 92.6764 121.532 93.6531 121.008C96.3183 120.108 99.5201 122.462 100.804 126.266C101.737 129.027 101.403 131.793 100.13 133.446L96.6305 135.56" stroke="black" stroke-width="2"/>
<path d="M80.5742 62.8159L106.574 75.8159M90.0742 58.3159L116.074 71.3159M85.5742 60.8159L111.574 73.8159M76.0742 65.3159L102.074 78.3159M111.574 78.3159L137.574 91.3159M121.074 73.8159L147.074 86.8159M116.574 76.3159L142.574 89.3159M107.074 80.8159L133.074 93.8159" stroke="#949494" stroke-width="2" stroke-linecap="round" stroke-linejoin="round"/>
</svg>
