<svg width="200" height="200" viewBox="0 0 200 200" fill="none" xmlns="http://www.w3.org/2000/svg">
<path d="M105.594 123.375L89.5939 116.264C89.2327 116.103 89 115.747 89 115.352V99.5381C89 98.8144 89.7449 98.331 90.4061 98.625L106.406 105.736C106.767 105.897 107 106.255 107 106.65V122.461C107 123.185 106.255 123.669 105.594 123.375Z" fill="#B6B6B6"/>
<path d="M106.406 96.7361L90.4061 89.625C89.7449 89.331 89 89.8144 89 90.538V93.9995C89 94.5517 89.4248 95.1339 89.9374 95.3396C92.6395 96.424 100.511 99.8741 105.554 102.295C106.223 102.616 107 102.129 107 101.387V97.6499C107 97.2547 106.767 96.8966 106.406 96.7361Z" fill="#B6B6B6"/>
<path d="M110 72C110.806 72 136.424 58.5 147 53M105 65C105.806 65 130.424 51.5 141 46M85 68C85 68 84.1788 67.6916 83.0559 67.2701M85 68V70.0433M85 68C85 68 85 68.7218 85 70.0433M77.011 148.15C77.0043 149.293 77.6473 150.324 78.6695 150.835M77.011 148.15C77.0286 145.134 77.0468 141.839 77.0647 138.358C77.1986 112.412 77.3199 76.0704 77.106 67.0619M77.011 148.15V148.15C77.0043 149.283 77.6564 150.328 78.6695 150.835V150.835M77.106 67.0619C77.086 66.2218 78.1713 65.4402 78.9587 65.733M77.106 67.0619V67.0619C77.0863 66.2328 78.1585 65.433 78.935 65.7241C78.9429 65.727 78.9508 65.73 78.9587 65.733M83.0559 67.2701C84.2262 67.7094 85 68.7932 85 70.0433M83.0559 67.2701C81.8799 66.8287 80.3723 66.2629 79.1278 65.7964M85 70.0433V150.775M85 70.0433C85 80.1293 85 125.148 85 150.775M85 150.775C85 152.262 83.4365 153.217 82.1071 152.554M85 150.775V150.775C85 152.257 83.4321 153.216 82.1071 152.554V152.554M78.6695 150.835L82.1056 152.553L82.1071 152.554M105.594 123.375L89.5939 116.264M105.594 123.375C106.255 123.669 107 123.185 107 122.461M105.594 123.375V123.375C106.255 123.669 107 123.185 107 122.461V122.461M89.5939 116.264C89.2327 116.103 89 115.747 89 115.352M89.5939 116.264V116.264C89.2337 116.104 89 115.746 89 115.352V115.352M89 115.352V99.5381M89 115.352C89 111.005 89 104.823 89 99.5381M89 99.5381C89 98.8144 89.7449 98.331 90.4061 98.625M89 99.5381V99.5381C89 98.8148 89.7451 98.3312 90.4061 98.625V98.625M90.4061 98.625L106.406 105.736M106.406 105.736C106.767 105.897 107 106.255 107 106.65M106.406 105.736V105.736C106.767 105.897 107 106.255 107 106.65V106.65M107 106.65V122.461M106.406 96.7361L90.4061 89.625M106.406 96.7361C106.767 96.8966 107 97.2547 107 97.6499M106.406 96.7361V96.7361C106.767 96.8966 107 97.2547 107 97.6499V97.6499M90.4061 89.625C89.7449 89.331 89 89.8144 89 90.538M90.4061 89.625V89.625C89.7452 89.3312 89 89.8147 89 90.538V90.538M89 90.538V93.9995M89 90.538C89 91.4031 89 92.5914 89 93.9995M89 93.9995C89 94.5517 89.4248 95.1339 89.9374 95.3396M89 93.9995V93.9995C89 94.5507 89.4258 95.1343 89.9374 95.3396V95.3396M89.9374 95.3396C92.6395 96.424 100.511 99.8741 105.554 102.295M105.554 102.295C106.223 102.616 107 102.129 107 101.387M105.554 102.295V102.295C106.221 102.615 107 102.128 107 101.387V101.387M107 101.387V97.6499M78.9587 65.733L78.9611 65.7339C79.0161 65.7545 79.0717 65.7753 79.1278 65.7964M78.9587 65.733C79.0145 65.7539 79.0709 65.775 79.1278 65.7964" stroke="#949494" stroke-width="2" stroke-linecap="round" stroke-linejoin="round"/>
<path d="M81 52L53.4594 37.7549C52.7938 37.4106 52 37.8937 52 38.6431V39M81 52L104.647 64.2315C107.94 65.9345 110.02 69.3191 110.053 73.0259L110.988 179.586C110.992 180.104 110.366 180.366 110 180V180M81 52V166M81 52L85 50M81 166L57.4058 153.796C54.0852 152.079 52 148.652 52 144.914V39M81 166L110 180M58 34L57 35V35C56.7451 35 56.6618 35.3423 56.8882 35.4594L85 50M58 34L86.7476 20.0899C88.1654 19.4038 89.8235 19.426 91.2225 20.1496L141.647 46.2314C144.94 47.9345 147.02 51.3191 147.053 55.0259L147.973 159.88C147.989 161.789 146.917 163.542 145.209 164.396L116 179M58 34C53.5797 35.7918 52.0697 37.1441 52 39M110 180C111.006 180.612 112.429 180.706 116 179M116 179V179C115.451 179 114.996 178.558 114.991 178.009L114.053 71.0259C114.02 67.3191 111.94 63.9345 108.647 62.2315L85 50" stroke="black" stroke-width="2"/>
</svg>
