<svg width="200" height="200" viewBox="0 0 200 200" fill="none" xmlns="http://www.w3.org/2000/svg">
<path d="M166 83C166 99.2924 136.451 112 100 112C63.5492 112 34 99.2924 34 83M166 83C166 66.7076 136.451 53 100 53C63.5492 53 34 66.7076 34 83M166 83V119C166 135.292 136.451 148 100 148C63.5492 148 34 135.292 34 119V83" stroke="black" stroke-width="2"/>
<path fill-rule="evenodd" clip-rule="evenodd" d="M101 99C119.502 99 134 91.8092 134 83C134 74.1908 119.502 67 101 67C82.4985 67 67 74.1908 67 83C67 83.3726 67.03 83.7559 67.088 84.1449C68.2681 91.801 81.1669 98.103 97 99C98.3116 99.0743 99.6464 99 101 99ZM101 96C116.74 96 129 90.1575 129 83C129 75.8425 116.74 70 101 70C85.2599 70 72 75.8425 72 83C72 84.9356 73.3271 86.3506 75 88H79C77.3043 86.6443 76 84.6254 76 83C76 77.4943 87.469 73 101 73C114.531 73 125 77.4943 125 83C125 88.5057 114.531 93 101 93C100.634 93 100.209 93.0063 99.7634 93.013C98.8071 93.0272 97.7582 93.0428 97 93V96H101ZM101 90C111.77 90 120 86.854 120 83C120 79.146 111.77 76 101 76C90.2304 76 81 79.146 81 83C81 84.1253 82.1435 84.8393 83.5427 85.7131C83.6926 85.8066 83.8454 85.9021 84 86L89 85L88.8472 84.9401C87.2695 84.3213 86 83.8235 86 83C86 80.7977 92.9919 79 101 79C109.008 79 115 80.7977 115 83C115 85.2023 109.008 87 101 87C100.685 87 100.351 87.0053 100.013 87.0106C99.3204 87.0215 98.6082 87.0327 98 87L97 90C97.6982 90.0399 98.8399 90.0246 99.8265 90.0114C100.266 90.0055 100.675 90 101 90ZM108 83C108 83.5506 105.142 84 101 84C100.736 84 100.415 84.0034 100.077 84.0069C99.9851 84.0079 99.8913 84.0088 99.7973 84.0098C99.1389 84.0163 98.4524 84.0203 98 84C97.8407 83.9928 97.6999 83.9904 97.5725 83.991C97.3524 83.9923 97.1675 84.0027 96.9948 84.0124L96.9757 84.0135C96.6657 84.0317 96.3989 84.0475 96 84C94.4656 83.8175 93 83.2952 93 83C93 82.4494 96.8579 82 101 82C105.142 82 108 82.4494 108 83Z" fill="#B6B6B6"/>
<path fill-rule="evenodd" clip-rule="evenodd" d="M97 99C85.0794 98.3247 74.6996 95.027 70 90C68.4479 88.3398 67.3895 86.1644 67.088 84.1449C68.2681 91.801 81.1669 98.103 97 99ZM67.088 84.1449C67.0297 83.7664 67 83.3846 67 83C67 83.3726 67.03 83.7559 67.088 84.1449ZM98 84C97.8423 83.9926 97.7014 83.9902 97.5725 83.991C97.6999 83.9904 97.8407 83.9928 98 84Z" fill="#B6B6B6"/>
<path d="M67 83C67 74.1908 82.4985 67 101 67C119.502 67 134 74.1908 134 83C134 91.8092 119.502 99 101 99C99.6464 99 98.3116 99.0743 97 99M67 83C67 83.3846 67.0297 83.7664 67.088 84.1449M67 83C67 83.3726 67.03 83.7559 67.088 84.1449M96 84C94.4656 83.8175 93 83.2952 93 83C93 82.4494 96.8579 82 101 82C105.142 82 108 82.4494 108 83C108 83.5506 105.142 84 101 84C100.736 84 100.415 84.0034 100.077 84.0069C99.9851 84.0079 99.8913 84.0088 99.7973 84.0098C99.1389 84.0163 98.4524 84.0203 98 84M96 84C96.3989 84.0475 96.6657 84.0317 96.9757 84.0135M96 84C96.3829 84.0456 96.6604 84.0312 96.9757 84.0135M98 84C98.0323 84.0015 97.9675 83.9985 98 84ZM98 84C97.8407 83.9928 97.6999 83.9904 97.5725 83.991M98 84C97.8423 83.9926 97.7014 83.9902 97.5725 83.991M97 99C85.0794 98.3247 74.6996 95.027 70 90C68.4479 88.3398 67.3895 86.1644 67.088 84.1449M97 99C81.1669 98.103 68.2681 91.801 67.088 84.1449M89 85L84 86C83.8454 85.9021 83.6926 85.8066 83.5427 85.7131C82.1435 84.8393 81 84.1253 81 83C81 79.146 90.2304 76 101 76C111.77 76 120 79.146 120 83C120 86.854 111.77 90 101 90C100.675 90 100.266 90.0055 99.8265 90.0114C98.8399 90.0246 97.6982 90.0399 97 90L98 87C98.6082 87.0327 99.3204 87.0215 100.013 87.0106C100.351 87.0053 100.685 87 101 87C109.008 87 115 85.2023 115 83C115 80.7977 109.008 79 101 79C92.9919 79 86 80.7977 86 83C86 83.8235 87.2695 84.3213 88.8472 84.9401M89 85C88.9488 84.9799 88.8979 84.9599 88.8472 84.9401M89 85L88.8472 84.9401M96.9757 84.0135L96.9948 84.0124M96.9757 84.0135C96.982 84.0131 96.9884 84.0128 96.9948 84.0124M97.5725 83.991C97.3524 83.9923 97.1675 84.0027 96.9948 84.0124M97.5725 83.991C97.3474 83.992 97.1642 84.0024 96.9948 84.0124M129 83C129 90.1575 116.74 96 101 96H97V93C97.7582 93.0428 98.8071 93.0272 99.7634 93.013C100.209 93.0063 100.634 93 101 93C114.531 93 125 88.5057 125 83C125 77.4943 114.531 73 101 73C87.469 73 76 77.4943 76 83C76 84.6254 77.3043 86.6443 79 88H75C73.3271 86.3506 72 84.9356 72 83C72 75.8425 85.2599 70 101 70C116.74 70 129 75.8425 129 83Z" stroke="#949494" stroke-width="2"/>
<path d="M45 116C50.7934 120.055 58.6939 123.612 68 126M45 128C50.7934 132.055 58.6939 135.612 68 138M45 122C53.8575 127.201 58.8654 129.793 68 132" stroke="black" stroke-width="2" stroke-linecap="round"/>
<ellipse cx="100" cy="82.5" rx="62" ry="25.5" stroke="#949494" stroke-width="2"/>
</svg>
