<svg width="200" height="200" viewBox="0 0 200 200" fill="none" xmlns="http://www.w3.org/2000/svg">
<path d="M132 46V117.5M71.09 68.1353V174M93.8104 68.1353V174M30 47.9248V153.789" stroke="#949494" stroke-width="2" stroke-linejoin="round"/>
<path d="M108.154 42.1667C108.154 49.9907 96.0035 56.3333 81.0154 56.3333C66.0272 56.3333 53.8769 49.9907 53.8769 42.1667C53.8769 40.0794 54.7417 38.0975 56.2944 36.3133C52.342 38.9964 50 42.331 50 45.9444C50 54.8117 64.103 62 81.5 62C98.897 62 113 54.8117 113 45.9444C113 41.6333 109.666 37.719 104.241 34.8347C106.724 36.9736 108.154 39.483 108.154 42.1667Z" fill="#B6B6B6"/>
<path d="M56.2944 36.3133C52.342 38.9964 50 42.331 50 45.9444C50 54.8117 64.103 62 81.5 62C98.897 62 113 54.8117 113 45.9444C113 41.6333 109.666 37.719 104.241 34.8347M56.2944 36.3133C54.7417 38.0975 53.8769 40.0794 53.8769 42.1667C53.8769 49.9907 66.0272 56.3333 81.0154 56.3333C96.0035 56.3333 108.154 49.9907 108.154 42.1667C108.154 39.483 106.724 36.9736 104.241 34.8347M56.2944 36.3133C60.5619 31.4099 70.0258 28 81.0154 28C90.8626 28 99.4848 30.7378 104.241 34.8347" stroke="black" stroke-width="2"/>
<path d="M74 36C74 36.0386 73.9636 36.2689 73.4787 36.546C73.0222 36.8069 72.3247 37 71.5 37C70.6753 37 69.9778 36.8069 69.5213 36.546C69.0364 36.2689 69 36.0386 69 36C69 35.9614 69.0364 35.7311 69.5213 35.454C69.9778 35.1931 70.6753 35 71.5 35C72.3247 35 73.0222 35.1931 73.4787 35.454C73.9636 35.7311 74 35.9614 74 36Z" stroke="#949494" stroke-width="2"/>
<path d="M94 47C94 47.0386 93.9636 47.2689 93.4787 47.546C93.0222 47.8069 92.3247 48 91.5 48C90.6753 48 89.9778 47.8069 89.5213 47.546C89.0364 47.2689 89 47.0386 89 47C89 46.9614 89.0364 46.7311 89.5213 46.454C89.9778 46.1931 90.6753 46 91.5 46C92.3247 46 93.0222 46.1931 93.4787 46.454C93.9636 46.7311 94 46.9614 94 47Z" stroke="#949494" stroke-width="2"/>
<path d="M43.24 100.245V106.485L46.6 108.04M46.6 101.992V108.04M46.6 113.512V108.04M51.4 116.008L55.24 118.005V112.5L51.4 110.517C51.4 107.573 51.4 104.81 51.4 104.488L55.24 106.485M58.054 114.069C58.0746 110.963 58.0724 108.078 58 108.04L61.84 110.037V115.797M58.054 114.069C58.3948 114.069 60.72 115.221 61.84 115.797M58.054 114.069L58 119.56L61.84 121.557V115.797M49 106.5V107M49 111V111.5M37 97V108.52L40.84 110.517C40.84 106.811 40.84 99.3194 40.84 98.9968L37 97Z" stroke="#949494" stroke-width="2" stroke-linecap="round" stroke-linejoin="round"/>
<path d="M28.0322 45.8906C27.8551 44.7012 28.4086 43.4166 29.6817 42.8301L69.1214 24.6596C76.4628 21.2774 84.8867 21.1141 92.3541 24.2094L132.215 40.7324C133.598 41.3055 134.196 42.7129 133.943 43.981M28.0322 45.8906C28.1623 46.7639 28.6863 47.5859 29.6087 48.0425L69.4854 67.7835C78.2494 72.1221 88.6156 71.7488 97.0437 66.7911L132.575 45.8906C133.341 45.4396 133.793 44.7349 133.943 43.981M28.0322 45.8906V152.098C28.1623 152.972 28.6863 153.794 29.6087 154.25L69.4854 173.991C78.2494 178.33 88.6156 177.957 97.0437 172.999L108.404 166.317M133.943 43.981V117.223M106.359 133.39C106.359 142.442 121.155 149.78 139.407 149.78C150.315 149.78 159.988 147.159 166.007 143.118M106.359 133.39V159.488C106.359 161.941 106.808 164.453 108.404 166.317V166.317M106.359 133.39C106.359 125.261 118.291 118.514 133.943 117.223M172.456 133.39C172.456 124.338 157.66 117 139.407 117C137.546 117 135.721 117.076 133.943 117.223M172.456 133.39V155.467C172.456 160.548 171.415 165.853 167.572 169.178C152.351 182.345 118.795 178.453 108.404 166.317M172.456 133.39C172.456 135.172 171.882 136.888 170.821 138.495" stroke="black" stroke-width="2"/>
<path d="M112.27 133.39C112.27 140.067 124.42 145.481 139.407 145.481C147.602 145.481 154.949 143.862 159.924 141.304C160.922 140.561 163.671 138.471 164.921 137.519C165.972 136.23 166.545 134.84 166.545 133.39C166.545 126.712 154.395 121.299 139.407 121.299C124.42 121.299 112.27 126.712 112.27 133.39Z" stroke="black" stroke-width="2" stroke-linecap="round" stroke-dasharray="2.15 2.15"/>
<path d="M170.844 147.093L166.813 150.586H166.007V143.063H163.052V142.257L167.619 138.495H170.844V147.093Z" fill="#B6B6B6"/>
<path d="M163.052 142.257H166.813M163.052 142.257L167.619 138.495H170.844M163.052 142.257C163.052 142.472 163.052 142.884 163.052 143.063H166.007V150.586H166.813M166.813 142.257V150.586M166.813 142.257L170.844 138.495M166.813 150.586L170.844 147.093V138.495" stroke="#949494" stroke-width="2" stroke-linejoin="round"/>
</svg>
