<svg width="200" height="200" viewBox="0 0 200 200" fill="none" xmlns="http://www.w3.org/2000/svg">
<path d="M104.442 59.0999C104.607 59.3302 104.683 59.7082 104.506 60.2285C104.33 60.7466 103.922 61.3205 103.287 61.777C102.652 62.2334 101.978 62.4371 101.431 62.4387C100.881 62.4403 100.547 62.2481 100.381 62.0178C100.216 61.7876 100.14 61.4095 100.317 60.8892C100.493 60.3712 100.901 59.7972 101.536 59.3408C102.171 58.8844 102.845 58.6806 103.392 58.6791C103.942 58.6775 104.276 58.8696 104.442 59.0999Z" fill="#B6B6B6" stroke="#949494" stroke-width="2"/>
<path d="M94.5257 56.8611C94.7332 57.1498 94.7424 57.9368 93.8912 58.5485C93.04 59.1602 92.2971 58.9006 92.0896 58.6118C91.8821 58.3231 91.8729 57.5361 92.7241 56.9244C93.5753 56.3127 94.3182 56.5723 94.5257 56.8611Z" stroke="#949494" stroke-width="2"/>
<path d="M101.442 46.0999C101.607 46.3302 101.683 46.7082 101.506 47.2285C101.33 47.7466 100.922 48.3205 100.287 48.777C99.6518 49.2334 98.9776 49.4371 98.4305 49.4387C97.881 49.4403 97.5469 49.2481 97.3814 49.0178C97.2159 48.7876 97.1403 48.4095 97.317 47.8892C97.493 47.3712 97.901 46.7972 98.5361 46.3408C99.1712 45.8844 99.8453 45.6806 100.392 45.6791C100.942 45.6775 101.276 45.8696 101.442 46.0999Z" fill="#B6B6B6" stroke="#949494" stroke-width="2"/>
<path d="M88.4416 65.0999C88.6071 65.3302 88.6827 65.7082 88.506 66.2285C88.33 66.7466 87.922 67.3205 87.2869 67.777C86.6518 68.2334 85.9776 68.4371 85.4305 68.4387C84.881 68.4403 84.5469 68.2481 84.3814 68.0178C84.2159 67.7876 84.1403 67.4095 84.317 66.8892C84.493 66.3712 84.901 65.7972 85.5361 65.3408C86.1712 64.8844 86.8453 64.6806 87.3925 64.6791C87.942 64.6775 88.2761 64.8696 88.4416 65.0999Z" fill="#B6B6B6" stroke="#949494" stroke-width="2"/>
<path d="M74.1104 139.571C74.5535 139.571 75.0308 139.808 75.4317 140.343C75.8327 140.878 76.1104 141.662 76.1104 142.571C76.1104 143.48 75.8327 144.265 75.4317 144.8C75.0308 145.334 74.5535 145.571 74.1104 145.571C73.6673 145.571 73.1899 145.334 72.789 144.8C72.388 144.265 72.1104 143.48 72.1104 142.571C72.1104 141.662 72.388 140.878 72.789 140.343C73.1899 139.808 73.6673 139.571 74.1104 139.571Z" stroke="#949494" stroke-width="2"/>
<path d="M74.1104 93.5713L70.1104 91.5713V106.571L74.1104 108.571V93.5713Z" stroke="#949494" stroke-width="2" stroke-linecap="round" stroke-linejoin="round"/>
<path d="M85.4416 52.0999C85.6071 52.3302 85.6827 52.7082 85.506 53.2285C85.33 53.7466 84.922 54.3205 84.2869 54.777C83.6518 55.2334 82.9776 55.4371 82.4305 55.4387C81.881 55.4403 81.5469 55.2481 81.3814 55.0178C81.2159 54.7876 81.1403 54.4095 81.317 53.8892C81.493 53.3712 81.901 52.7972 82.5361 52.3408C83.1712 51.8844 83.8453 51.6806 84.3925 51.6791C84.942 51.6775 85.2761 51.8696 85.4416 52.0999Z" fill="#B6B6B6" stroke="#949494" stroke-width="2"/>
<path d="M100.11 92.5713C118.835 92.5713 134.534 84.8208 137.11 70.5713C134.534 81.3813 118.835 89.5713 100.11 89.5713C81.3851 89.5713 64.6868 81.3813 62.1102 70.5713C64.6868 84.8208 81.3851 92.5713 100.11 92.5713Z" fill="#B6B6B6"/>
<path d="M137.11 66.5713C137.11 67.9975 137.358 69.1994 137.11 70.5713M137.11 70.5713C134.534 84.8208 118.835 92.5713 100.11 92.5713C81.3851 92.5713 64.6868 84.8208 62.1102 70.5713M137.11 70.5713C137.358 69.5305 137.11 68.6532 137.11 67.5713M137.11 70.5713C134.534 81.3813 118.835 89.5713 100.11 89.5713C81.3851 89.5713 64.6868 81.3813 62.1102 70.5713M62.1102 70.5713C61.8622 69.1994 62.1102 67.9975 62.1102 66.5713M62.1102 70.5713C61.8622 69.5305 62.1102 68.6532 62.1102 67.5713" stroke="#949494" stroke-width="2"/>
<path d="M100.11 33.5713C120.638 33.5713 137.11 50.8632 137.11 71.5713V138.571C137.11 139.978 137.358 141.218 137.11 142.571M100.11 33.5713C90.3592 33.5713 80.7403 37.3747 74.1103 43.5713M100.11 33.5713V33.5713C108.864 33.6182 115.756 37.8028 119.11 44.5713C124.48 55.4045 117.642 69.2416 103.11 76.5713C88.6228 83.8784 71.5291 81.3219 66.1103 70.5713M137.11 142.571C134.534 156.623 118.835 167.571 100.11 167.571C81.3851 167.571 64.6868 156.623 62.1103 142.571M137.11 142.571C137.358 141.545 137.11 140.638 137.11 139.571M137.11 142.571C134.534 153.231 118.835 161.571 100.11 161.571C81.3851 161.571 64.6868 153.231 62.1103 142.571M62.1103 142.571C61.8622 141.218 62.1103 139.978 62.1103 138.571V71.5713C62.1103 60.6998 66.7827 50.4198 74.1103 43.5713M62.1103 142.571C61.8622 141.545 62.1103 140.638 62.1103 139.571M66.1103 70.5713C66.1268 70.6047 66.0935 70.5381 66.1103 70.5713M74.1103 43.5713C63.1873 53.0844 62.971 66.0933 66.1103 70.5713" stroke="black" stroke-width="2"/>
<ellipse cx="93.0612" cy="57.0437" rx="23" ry="16.5" transform="rotate(-26.5645 93.0612 57.0437)" stroke="#949494" stroke-width="2"/>
</svg>
