<svg width="200" height="200" viewBox="0 0 200 200" fill="none" xmlns="http://www.w3.org/2000/svg">
<path d="M90.0044 117.527V148.027" stroke="#949494" stroke-width="2" stroke-linecap="round" stroke-linejoin="round"/>
<path d="M111.004 117.527V148.027" stroke="#949494" stroke-width="2" stroke-linecap="round" stroke-linejoin="round"/>
<path d="M35.0009 83.0276C35.0371 85.3268 36.1818 87.6143 38.46 88.9497L80.9912 113.882C92.8279 120.821 107.401 121.221 119.326 114.435C134.675 105.701 151.755 95.4522 162.438 88.9743C164.361 87.8079 165.448 85.9651 165.72 84.0276C165.766 83.6961 165.789 83.3617 165.788 83.0276M35.0009 83.0276C34.9616 80.5272 36.2333 78.0127 38.7841 76.6933L81.7503 54.4694C93.2079 48.5431 106.818 48.5036 118.295 54.3913C133.601 62.2427 151.013 71.2023 162.001 76.8602C164.504 78.1486 165.78 80.5842 165.788 83.0276M35.0009 83.0276V113.028C35.0371 115.327 36.1818 117.614 38.46 118.95L80.9912 143.882C92.8279 150.821 107.401 151.221 119.326 144.435C134.675 135.701 151.755 125.452 162.438 118.974C164.855 117.509 165.95 114.975 165.769 112.528L165.788 83.0276" stroke="black" stroke-width="2" stroke-linejoin="round"/>
<path d="M69.0044 99.5273L88.0044 89.394L88.0784 89.3545M129.004 67.5273L112.873 76.1305M69.0044 66.0273L88.0044 76.1305M132.004 99.5273L112.873 89.3545" stroke="#949494" stroke-width="2" stroke-linecap="round" stroke-linejoin="round"/>
<path d="M108.004 82.5273C108.004 83.2807 107.49 84.1336 106.293 84.8518C105.116 85.5581 103.425 86.0273 101.504 86.0273C99.5834 86.0273 97.8927 85.5581 96.7156 84.8518C95.5186 84.1336 95.0044 83.2807 95.0044 82.5273C95.0044 81.774 95.5186 80.9211 96.7156 80.2029C97.8927 79.4966 99.5834 79.0273 101.504 79.0273C103.425 79.0273 105.116 79.4966 106.293 80.2029C107.49 80.9211 108.004 81.774 108.004 82.5273Z" fill="#B6B6B6" stroke="#949494" stroke-width="2"/>
</svg>
