<svg width="200" height="200" viewBox="0 0 200 200" fill="none" xmlns="http://www.w3.org/2000/svg">
<path d="M156 100C156 134.494 135.59 162.513 109.678 162.994C112.385 162.996 114.907 162.998 117 163C143.234 163 164 134.794 164 100C164 65.2061 143.234 37 117 37H109C135.234 37 156 65.2061 156 100Z" fill="#B6B6B6"/>
<path fill-rule="evenodd" clip-rule="evenodd" d="M84.5997 162.995C84.4001 162.998 84.2002 163 84 163C84.0904 162.998 84.2947 162.997 84.5997 162.995Z" fill="#B6B6B6"/>
<path d="M84 163C57.7665 163 36 134.794 36 100C36 65.2061 57.7665 37 84 37M84 163C84.2002 163 84.4001 162.998 84.5997 162.995M84 163C84.0904 162.998 84.2947 162.997 84.5997 162.995M84 37C110.234 37 131 65.2061 131 100C131 134.528 110.549 162.569 84.5997 162.995M84 37H117M109 163C109.226 163 109.452 162.998 109.678 162.994M117 37C143.234 37 164 65.2061 164 100C164 134.794 143.234 163 117 163C114.907 162.998 112.385 162.996 109.678 162.994M117 37H109C135.234 37 156 65.2061 156 100C156 134.494 135.59 162.513 109.678 162.994M109.678 162.994C99.8291 162.986 87.5386 162.981 84.5997 162.995" stroke="black" stroke-width="2"/>
<path d="M113 101C113 127.51 98.0538 149 79 149C59.9462 149 44 127.51 44 101C44 74.4903 59.9462 53 79 53C98.0538 53 113 74.4903 113 101Z" stroke="#949494" stroke-width="2" stroke-linecap="round" stroke-dasharray="5 5"/>
<path d="M105 102C105 123.815 92.464 141 77 141C61.536 141 49 123.815 49 102C49 80.1848 61.536 62 77 62C92.464 62 105 80.1848 105 102Z" stroke="#949494" stroke-width="2" stroke-linecap="round" stroke-dasharray="5 5"/>
<path d="M97 101C97 118.121 87.8741 132 76 132C64.1259 132 54 118.121 54 101C54 83.8792 64.1259 70 76 70C87.8741 70 97 83.8792 97 101Z" stroke="#949494" stroke-width="2" stroke-linecap="round" stroke-dasharray="5 5"/>
<path d="M89 102C89 114.979 82.2843 125 74 125C65.7157 125 59 114.979 59 102C59 89.0213 65.7157 78 74 78C82.2843 78 89 89.0213 89 102Z" stroke="#949494" stroke-width="2" stroke-linecap="round" stroke-dasharray="3 3"/>
</svg>
