<svg width="200" height="200" viewBox="0 0 200 200" fill="none" xmlns="http://www.w3.org/2000/svg">
<path d="M63.7509 104.389C67.0528 104.11 69.3152 98.9763 68.804 92.9227C68.2928 86.8691 65.2016 82.1877 61.8997 82.4666C58.5977 82.7454 56.3354 87.8788 56.8466 93.9324C57.3578 99.986 60.4489 104.667 63.7509 104.389Z" fill="#B6B6B6"/>
<path d="M76 131V77M105 80V134M51 60V114M148 62V116M68.804 92.9227C69.3152 98.9763 67.0528 104.11 63.7509 104.389C60.4489 104.667 57.3578 99.986 56.8466 93.9324C56.3354 87.8788 58.5977 82.7454 61.8997 82.4666C65.2016 82.1877 68.2928 86.8691 68.804 92.9227Z" stroke="#949494" stroke-width="2"/>
<path d="M108 152V164C108 165.648 109.339 167 111 167H112C113.661 167 115 165.648 115 164V151C112.831 151.654 110.494 151.635 108 152Z" fill="#B6B6B6"/>
<path d="M85 151V155C85 156.648 86.3386 158 88 158H89C90.6613 158 92 156.648 92 155V153C89.518 152.683 87.1823 151.602 85 151Z" fill="#B6B6B6"/>
<path d="M152 56.9999C152.072 55.2035 150.873 53.9732 149 52.9999L118 35.9999C110.277 31.9872 101.116 31.8437 93 34.9999L52 50.9999C49.8434 51.8385 48.918 54.0073 49 55.9999M152 56.9999C151.928 58.7957 150.944 61.1773 149 61.9999L106 79.9999C96.5709 83.9889 85.4732 82.7227 77 76.9999L51 59.9999C49.5832 59.043 49.0607 57.4743 49 55.9999M152 56.9999V112C151.928 113.796 150.944 115.177 149 116L129 124M49 55.9999V110C49.0607 111.474 49.5832 113.043 51 114L70 127M70 127L77 132C85.4732 137.723 96.5709 137.989 106 134L129 124M70 127V139C70 144.389 76.0204 148.524 85 151M129 124V139C129 144.186 123.425 148.458 115 151M85 151V155C85 156.648 86.3386 158 88 158M85 151C87.1823 151.602 89.518 152.683 92 153M92 153C94.4013 153.307 97.4013 153 100 153C102.963 153 105.301 152.395 108 152M92 153V155C92 156.648 90.6613 158 89 158M108 152V164C108 165.648 109.339 167 111 167H112C113.661 167 115 165.648 115 164V151M108 152C110.494 151.635 112.831 151.654 115 151M89 158C88.6643 158 88.3357 158 88 158M89 158H88M77 65.9999C82.4237 62.5236 90.7334 59.9999 100 59.9999C109.188 59.9999 116.575 62.5743 122 65.9999M77 65.9999C82.4255 69.2029 90.8148 70.9999 100 70.9999C109.269 70.9999 116.576 69.2536 122 65.9999M77 65.9999C72.7758 63.5061 70 60.4868 70 56.9999C70 49.0344 83.6634 41.9999 100 41.9999C116.337 41.9999 129 49.0344 129 56.9999C129 60.4458 126.135 63.5192 122 65.9999" stroke="black" stroke-width="2"/>
</svg>
