<svg width="200" height="200" viewBox="0 0 200 200" fill="none" xmlns="http://www.w3.org/2000/svg">
<path d="M153 46V156M90 69V179M113 69V179M47 48V158" stroke="#949494" stroke-width="2" stroke-linejoin="round"/>
<path d="M128 41C128 49.2843 115.464 56 100 56C84.536 56 72 49.2843 72 41C72 38.7899 72.398 36.8891 74 35C69.9221 37.8408 68 41.174 68 45C68 54.3888 83.0507 62 101 62C118.949 62 133 54.3888 133 45C133 40.4352 129.597 36.0539 124 33C126.562 35.2647 128 38.1585 128 41Z" fill="#B6B6B6"/>
<path d="M74 35C69.9221 37.8408 68 41.174 68 45C68 54.3888 83.0507 62 101 62C118.949 62 133 54.3888 133 45C133 40.4352 129.597 36.0539 124 33M74 35C72.398 36.8891 72 38.7899 72 41C72 49.2843 84.536 56 100 56C115.464 56 128 49.2843 128 41C128 38.1585 126.562 35.2647 124 33M74 35C78.4029 29.8081 88.6615 26 100 26C110.16 26 119.093 28.6621 124 33" stroke="black" stroke-width="2"/>
<path d="M45 45.0001C44.8169 43.7691 45.6838 42.6071 47 42.0001L88 23.0001C95.59 19.4996 104.28 18.7966 112 22.0001L153 39.0001C154.429 39.5932 155.262 41.6876 155 43.0001M45 45.0001C45.1345 45.9039 46.0464 46.5275 47 47.0001L88 68.0001C97.0608 72.4903 108.287 72.131 117 67.0001L154 45.0001C154.793 44.5333 154.844 43.7803 155 43.0001M45 45.0001V155C45.1345 155.904 46.0464 156.528 47 157L88 178C97.0608 182.49 108.287 182.131 117 177L154 155C155.192 154.298 155.232 153.17 155 152V43.0001" stroke="black" stroke-width="2"/>
<path d="M112 46C112 46.0011 112 46.0026 111.999 46.0054C111.999 46.0084 111.997 46.0146 111.993 46.0243C111.985 46.044 111.966 46.0811 111.922 46.1326C111.831 46.2405 111.66 46.3805 111.381 46.5198C110.823 46.7987 109.983 47 109 47C108.017 47 107.177 46.7987 106.619 46.5198C106.34 46.3805 106.169 46.2405 106.078 46.1326C106.034 46.0811 106.015 46.044 106.007 46.0243C106.003 46.0146 106.001 46.0084 106.001 46.0054C106 46.0026 106 46.0011 106 46C106 45.9989 106 45.9974 106.001 45.9946C106.001 45.9916 106.003 45.9854 106.007 45.9757C106.015 45.956 106.034 45.9189 106.078 45.8674C106.169 45.7595 106.34 45.6195 106.619 45.4802C107.177 45.2013 108.017 45 109 45C109.983 45 110.823 45.2013 111.381 45.4802C111.66 45.6195 111.831 45.7595 111.922 45.8674C111.966 45.9189 111.985 45.956 111.993 45.9757C111.997 45.9854 111.999 45.9916 111.999 45.9946C112 45.9974 112 45.9989 112 46Z" stroke="#949494" stroke-width="2"/>
<path d="M93 35C93 35.0011 92.9999 35.0026 92.9994 35.0054C92.9988 35.0084 92.9972 35.0146 92.9932 35.0243C92.9852 35.044 92.9658 35.0811 92.9222 35.1326C92.831 35.2405 92.6598 35.3805 92.3812 35.5198C91.8235 35.7987 90.983 36 90 36C89.017 36 88.1765 35.7987 87.6188 35.5198C87.3402 35.3805 87.169 35.2405 87.0778 35.1326C87.0342 35.0811 87.0148 35.044 87.0068 35.0243C87.0028 35.0146 87.0012 35.0084 87.0006 35.0054C87.0001 35.0026 87 35.0011 87 35C87 34.9989 87.0001 34.9974 87.0006 34.9946C87.0012 34.9916 87.0028 34.9854 87.0068 34.9757C87.0148 34.956 87.0342 34.9189 87.0778 34.8674C87.169 34.7595 87.3402 34.6195 87.6188 34.4802C88.1765 34.2013 89.017 34 90 34C90.983 34 91.8235 34.2013 92.3812 34.4802C92.6598 34.6195 92.831 34.7595 92.9222 34.8674C92.9658 34.9189 92.9852 34.956 92.9932 34.9757C92.9972 34.9854 92.9988 34.9916 92.9994 34.9946C92.9999 34.9974 93 34.9989 93 35Z" stroke="#949494" stroke-width="2"/>
<path d="M81 112.5L77 110.5C77.0754 110.539 77.0214 113.264 77 116.5C77 116.5 79.3333 117.4 80.5 118V124L76.5 122M62 102V109L65 111M65 104V111M65 116V111M67.5 109V110M67.5 114V115M55 99V111L59 113C59 109.14 59 101.336 59 101L55 99ZM70 107C70 107.56 70 115.233 70 119L74 121V109L70 107Z" stroke="#949494" stroke-width="2" stroke-linecap="round" stroke-linejoin="round"/>
</svg>
