<svg width="200" height="200" viewBox="0 0 200 200" fill="none" xmlns="http://www.w3.org/2000/svg">
<rect x="38" y="38" width="125" height="125" rx="15" stroke="black" stroke-width="2"/>
<path d="M159 147V54C159 47.3726 153.627 42 147 42H106C104.343 42 103 43.3431 103 45V156C103 157.657 104.343 159 106 159H147C153.627 159 159 153.627 159 147Z" stroke="black" stroke-width="2"/>
<path d="M42 54V147C42 153.627 47.3726 159 54 159H95C96.6569 159 98 157.657 98 156V45C98 43.3431 96.6569 42 95 42H54C47.3726 42 42 47.3726 42 54Z" stroke="black" stroke-width="2"/>
<rect x="111" y="148" width="26" height="5" rx="2.5" fill="#B6B6B6" stroke="#949494" stroke-width="2"/>
<rect x="64" y="148" width="26" height="5" rx="2.5" fill="#B6B6B6" stroke="#949494" stroke-width="2"/>
</svg>
