<svg width="200" height="200" viewBox="0 0 200 200" fill="none" xmlns="http://www.w3.org/2000/svg">
<path fill-rule="evenodd" clip-rule="evenodd" d="M100 151C128.167 151 151 128.167 151 100C151 71.8335 128.167 49 100 49C71.8335 49 49 71.8335 49 100C49 128.167 71.8335 151 100 151ZM100 145C124.853 145 145 124.853 145 100C145 75.1472 124.853 55 100 55C75.1472 55 55 75.1472 55 100C55 124.853 75.1472 145 100 145Z" fill="#B6B6B6" stroke="#949494" stroke-width="2"/>
<rect x="36" y="36" width="128" height="128" rx="7" stroke="black" stroke-width="2"/>
<circle cx="100" cy="100" r="45" stroke="black" stroke-width="2"/>
<path d="M129.374 85.5823C129.865 85.3288 130.058 84.7247 129.79 84.2419C129.587 83.8761 129.377 83.5142 129.161 83.1562C128.875 82.6837 128.254 82.5517 127.791 82.8516L123.85 85.4C123.386 85.6999 123.255 86.3181 123.537 86.7927C123.64 86.9659 123.742 87.1403 123.841 87.3158C124.112 87.7966 124.714 87.9899 125.205 87.7364L129.374 85.5823Z" fill="#B6B6B6"/>
<path d="M124.529 78.6175C124.938 78.2456 124.968 77.612 124.584 77.2149C124.294 76.9142 123.997 76.6189 123.695 76.3292C123.297 75.9468 122.663 75.9799 122.293 76.3896L119.146 79.8711C118.776 80.2808 118.809 80.9118 119.205 81.2972C119.349 81.4378 119.492 81.5801 119.633 81.724C120.02 82.1182 120.651 82.1491 121.059 81.7773L124.529 78.6175Z" fill="#B6B6B6"/>
<path d="M118.047 73.1439C118.345 72.679 118.211 72.059 117.737 71.7749C117.378 71.5596 117.016 71.3511 116.649 71.1494C116.165 70.8832 115.562 71.0791 115.31 71.5707L113.172 75.7481C112.92 76.2397 113.115 76.8405 113.597 77.1104C113.773 77.2089 113.948 77.3093 114.122 77.4117C114.597 77.6924 115.215 77.559 115.513 77.0941L118.047 73.1439Z" fill="#B6B6B6"/>
<path d="M110.369 69.5345C110.536 69.0083 110.246 68.4443 109.715 68.2924C109.313 68.1773 108.909 68.0698 108.502 67.9698C107.966 67.8379 107.434 68.1832 107.318 68.7232L106.334 73.3118C106.218 73.8518 106.562 74.3816 107.097 74.5175C107.293 74.5671 107.487 74.6189 107.682 74.6729C108.214 74.8209 108.776 74.5322 108.944 74.0059L110.369 69.5345Z" fill="#B6B6B6"/>
<path d="M102.018 68.0355C102.044 67.4838 101.617 67.0141 101.065 67.0048C100.647 66.9977 100.228 66.9985 99.8102 67.0071C99.258 67.0185 98.8335 67.4898 98.8613 68.0413L99.0979 72.7284C99.1258 73.2799 99.5956 73.7026 100.148 73.6953C100.349 73.6927 100.551 73.6923 100.752 73.6942C101.305 73.6994 101.773 73.275 101.799 72.7233L102.018 68.0355Z" fill="#B6B6B6"/>
<path d="M93.5637 68.7488C93.4458 68.2093 92.9124 67.8659 92.3766 67.9998C91.9708 68.1013 91.5669 68.2103 91.1651 68.3269C90.6347 68.4808 90.3465 69.0459 90.5162 69.5715L91.9578 74.0376C92.1275 74.5631 92.6907 74.8498 93.2222 74.6998C93.4162 74.6451 93.6108 74.5926 93.806 74.5423C94.3407 74.4043 94.6832 73.8733 94.5653 73.3337L93.5637 68.7488Z" fill="#B6B6B6"/>
<path d="M85.5822 71.6259C85.3287 71.1353 84.7246 70.9417 84.2417 71.2097C83.876 71.4127 83.514 71.6226 83.1561 71.8392C82.6836 72.1251 82.5515 72.7456 82.8515 73.2093L85.3999 77.1501C85.6998 77.6138 86.3179 77.745 86.7926 77.4626C86.9658 77.3595 87.1402 77.2584 87.3156 77.1593C87.7965 76.8876 87.9898 76.286 87.7363 75.7954L85.5822 71.6259Z" fill="#B6B6B6"/>
<path d="M78.6174 76.4708C78.2455 76.0625 77.6119 76.0318 77.2149 76.4157C76.9141 76.7065 76.6188 77.0029 76.3292 77.3047C75.9468 77.7032 75.9798 78.3367 76.3895 78.707L79.871 81.8539C80.2808 82.2242 80.9118 82.1909 81.2971 81.7953C81.4378 81.6509 81.58 81.5081 81.7239 81.3669C82.1181 80.9801 82.1491 80.349 81.7772 79.9406L78.6174 76.4708Z" fill="#B6B6B6"/>
<path d="M73.1438 82.9532C72.6789 82.6551 72.059 82.7894 71.7748 83.263C71.5596 83.6217 71.351 83.9844 71.1494 84.3509C70.8831 84.8348 71.079 85.4382 71.5706 85.6898L75.748 87.8284C76.2396 88.0801 76.8405 87.8846 77.1103 87.4027C77.2088 87.2268 77.3092 87.0521 77.4117 86.8785C77.6923 86.4028 77.5589 85.7852 77.094 85.487L73.1438 82.9532Z" fill="#B6B6B6"/>
<path d="M69.5345 90.6314C69.0083 90.4637 68.4442 90.754 68.2923 91.2849C68.1772 91.6871 68.0697 92.0915 67.9698 92.4977C67.8378 93.034 68.1832 93.5661 68.7232 93.6819L73.3117 94.6665C73.8517 94.7823 74.3815 94.4379 74.5175 93.9026C74.5671 93.7073 74.6189 93.5125 74.6729 93.3183C74.8208 92.7862 74.5321 92.2241 74.0059 92.0564L69.5345 90.6314Z" fill="#B6B6B6"/>
<path d="M68.0355 98.9821C67.4838 98.9563 67.0141 99.3827 67.0048 99.9349C66.9977 100.353 66.9985 100.772 67.0071 101.19C67.0185 101.742 67.4898 102.167 68.0413 102.139L72.7284 101.902C73.2799 101.874 73.7026 101.404 73.6953 100.852C73.6927 100.651 73.6923 100.449 73.6942 100.248C73.6994 99.6953 73.275 99.2271 72.7233 99.2013L68.0355 98.9821Z" fill="#B6B6B6"/>
<path d="M68.7488 107.436C68.2092 107.554 67.8659 108.088 67.9998 108.623C68.1012 109.029 68.2103 109.433 68.3268 109.835C68.4807 110.365 69.0458 110.653 69.5714 110.484L74.0375 109.042C74.5631 108.872 74.8497 108.309 74.6998 107.778C74.645 107.584 74.5925 107.389 74.5422 107.194C74.4043 106.659 73.8732 106.317 73.3336 106.435L68.7488 107.436Z" fill="#B6B6B6"/>
<path d="M71.6259 115.418C71.1352 115.671 70.9416 116.275 71.2097 116.758C71.4127 117.124 71.6225 117.486 71.8391 117.844C72.1251 118.316 72.7455 118.448 73.2093 118.148L77.15 115.6C77.6138 115.3 77.7449 114.682 77.4625 114.207C77.3594 114.034 77.2583 113.86 77.1592 113.684C76.8876 113.203 76.286 113.01 75.7953 113.264L71.6259 115.418Z" fill="#B6B6B6"/>
<path d="M76.4708 122.383C76.0624 122.754 76.0318 123.388 76.4156 123.785C76.7064 124.086 77.0028 124.381 77.3046 124.671C77.7031 125.053 78.3366 125.02 78.7069 124.61L81.8538 121.129C82.2242 120.719 82.1908 120.088 81.7952 119.703C81.6508 119.562 81.508 119.42 81.3669 119.276C80.98 118.882 80.3489 118.851 79.9406 119.223L76.4708 122.383Z" fill="#B6B6B6"/>
<path d="M76.4708 122.383C76.0624 122.754 76.0318 123.388 76.4156 123.785C76.7064 124.086 77.0028 124.381 77.3046 124.671C77.7031 125.053 78.3366 125.02 78.7069 124.61L81.8538 121.129C82.2242 120.719 82.1908 120.088 81.7952 119.703C81.6508 119.562 81.508 119.42 81.3669 119.276C80.98 118.882 80.3489 118.851 79.9406 119.223L76.4708 122.383Z" fill="#B6B6B6"/>
<path d="M122.383 124.529C122.755 124.938 123.388 124.968 123.785 124.584C124.086 124.294 124.381 123.997 124.671 123.695C125.053 123.297 125.02 122.663 124.611 122.293L121.129 119.146C120.719 118.776 120.088 118.809 119.703 119.205C119.562 119.349 119.42 119.492 119.276 119.633C118.882 120.02 118.851 120.651 119.223 121.059L122.383 124.529Z" fill="#B6B6B6"/>
<path d="M127.856 118.047C128.321 118.345 128.941 118.211 129.225 117.737C129.44 117.378 129.649 117.016 129.851 116.649C130.117 116.165 129.921 115.562 129.429 115.31L125.252 113.172C124.76 112.92 124.16 113.115 123.89 113.597C123.791 113.773 123.691 113.948 123.588 114.122C123.308 114.597 123.441 115.215 123.906 115.513L127.856 118.047Z" fill="#B6B6B6"/>
<path d="M131.466 110.369C131.992 110.536 132.556 110.246 132.708 109.715C132.823 109.313 132.93 108.909 133.03 108.502C133.162 107.966 132.817 107.434 132.277 107.318L127.688 106.334C127.148 106.218 126.619 106.562 126.483 107.097C126.433 107.293 126.381 107.488 126.327 107.682C126.179 108.214 126.468 108.776 126.994 108.944L131.466 110.369Z" fill="#B6B6B6"/>
<path d="M132.965 102.018C133.516 102.044 133.986 101.617 133.995 101.065C134.002 100.647 134.002 100.229 133.993 99.8103C133.982 99.2581 133.51 98.8335 132.959 98.8614L128.272 99.098C127.72 99.1258 127.297 99.5956 127.305 100.148C127.307 100.349 127.308 100.551 127.306 100.753C127.301 101.305 127.725 101.773 128.277 101.799L132.965 102.018Z" fill="#B6B6B6"/>
<path d="M132.251 93.5638C132.791 93.4459 133.134 92.9125 133 92.3767C132.899 91.9708 132.79 91.5669 132.673 91.1652C132.519 90.6347 131.954 90.3466 131.429 90.5163L126.963 91.9579C126.437 92.1276 126.15 92.6907 126.3 93.2223C126.355 93.4162 126.408 93.6108 126.458 93.806C126.596 94.3408 127.127 94.6832 127.666 94.5653L132.251 93.5638Z" fill="#B6B6B6"/>
<path d="M129.374 85.5823C129.865 85.3288 130.058 84.7247 129.79 84.2419C129.587 83.8761 129.377 83.5142 129.161 83.1562C128.875 82.6837 128.254 82.5517 127.791 82.8516L123.85 85.4C123.386 85.6999 123.255 86.3181 123.537 86.7927C123.64 86.9659 123.742 87.1403 123.841 87.3158C124.112 87.7966 124.714 87.9899 125.205 87.7364L129.374 85.5823Z" fill="#B6B6B6"/>
<path d="M124.529 78.6175C124.938 78.2456 124.968 77.612 124.584 77.2149C124.294 76.9142 123.997 76.6189 123.695 76.3292C123.297 75.9468 122.663 75.9799 122.293 76.3896L119.146 79.8711C118.776 80.2808 118.809 80.9118 119.205 81.2972C119.349 81.4378 119.492 81.5801 119.633 81.724C120.02 82.1182 120.651 82.1491 121.059 81.7773L124.529 78.6175Z" fill="#B6B6B6"/>
<path d="M132.251 93.5638C132.791 93.4459 133.134 92.9125 133 92.3767C132.899 91.9708 132.79 91.5669 132.673 91.1652C132.519 90.6347 131.954 90.3466 131.429 90.5163L126.963 91.9579C126.437 92.1276 126.15 92.6907 126.3 93.2223C126.355 93.4162 126.408 93.6108 126.458 93.806C126.596 94.3408 127.127 94.6832 127.666 94.5653L132.251 93.5638Z" fill="#B6B6B6"/>
</svg>
