<svg width="200" height="200" viewBox="0 0 200 200" fill="none" xmlns="http://www.w3.org/2000/svg">
<path d="M73.0728 136.28C73.6788 135.977 78.3758 132.366 80.6485 130.598M136.33 167.719L132.542 174.537M139.739 168.098C140.042 168.401 139.866 172.265 139.739 174.159M156.027 79.0829L157.542 77.189M157.542 82.1132C157.845 81.8102 159.436 81.4819 160.194 81.3556" stroke="#949494" stroke-width="2" stroke-linejoin="round"/>
<path d="M157.164 168.098L158.679 166.962C159.633 166.246 160.194 165.124 160.194 163.931L160.194 81.0489C160.194 79.6123 159.381 78.2993 158.095 77.6586L53.4463 25.5163C52.2313 24.9109 50.7853 25.002 49.6559 25.7549L48.0728 26.8103M76.8607 128.351L71.8321 132.166C70.487 133.187 70.6848 135.266 72.1982 136.014L136.995 168.06C138.013 168.564 139.203 168.584 140.237 168.116L147.694 164.738M147.694 164.738L151.482 166.684M147.694 164.738L74.9668 127.378M151.482 166.684L154.61 168.291C156.123 169.068 157.921 167.97 157.921 166.27L157.921 82.5604C157.921 81.1257 157.111 79.8141 155.827 79.1724L50.6044 26.5609C49.0933 25.8053 47.3153 26.9042 47.3153 28.5937L47.3153 110.861C47.3153 112.281 48.1094 113.582 49.3723 114.231L74.9668 127.378M151.482 166.684L137.768 175.292C136.641 175.999 135.226 176.063 134.04 175.461L63.8301 139.827C62.3288 139.065 62.1482 136.992 63.495 135.982L74.9668 127.378" stroke="black" stroke-width="2"/>
<path d="M50.6016 31.1733C50.5994 30.7885 51.0047 30.5373 51.3484 30.7103L152.357 81.578C153.298 82.0516 153.891 83.0148 153.891 84.0679L153.891 162.957C153.891 163.343 153.482 163.592 153.139 163.415L52.5394 111.398C51.6184 110.922 51.0378 109.974 51.0321 108.937L50.6016 31.1733Z" stroke="#949494" stroke-width="2"/>
</svg>
