<svg width="200" height="200" viewBox="0 0 200 200" fill="none" xmlns="http://www.w3.org/2000/svg">
<path d="M43.2932 74.2666V80.7666M130.793 95V102.267M142.5 92V99M82.7932 147.267C82.7932 147.267 82.6265 129.433 82.7932 121.767M113.293 122.767V148.267" stroke="#949494" stroke-width="2" stroke-linejoin="round"/>
<path d="M148.293 120.267L137.793 126.267V130.767L148.293 124.767V120.267Z" fill="#B6B6B6"/>
<path d="M162.293 113.267L155.293 117.267V120.767L162.293 116.767V113.267Z" fill="#B6B6B6"/>
<path d="M131.293 130.767L127.293 132.933V135.267L131.293 133.267V130.767Z" fill="#B6B6B6"/>
<path d="M148.293 120.267L137.793 126.267V130.767L148.293 124.767V120.267Z" stroke="#949494" stroke-width="2" stroke-linecap="round" stroke-linejoin="round"/>
<path d="M162.293 113.267L155.293 117.267V120.767L162.293 116.767V113.267Z" stroke="#949494" stroke-width="2" stroke-linecap="round" stroke-linejoin="round"/>
<path d="M131.293 130.767L127.293 132.933V135.267L131.293 133.267V130.767Z" stroke="#949494" stroke-width="2" stroke-linecap="round" stroke-linejoin="round"/>
<path d="M23.0225 85.2666C23.1732 83.6636 24.0817 82.125 25.7377 81.2848C26.1674 81.1338 32.9574 77.7106 42 73.1208M23.0225 85.2666C22.9928 85.5822 22.9925 85.9004 23.0217 86.2161M23.0225 85.2666L23.0217 86.2161M23.0217 86.2161C23.1649 87.7674 24.0191 89.2621 25.5936 90.1266L79.7015 119.835C91.5535 126.342 105.891 126.422 117.814 120.047L173.719 90.154C175.321 89.2972 176.191 87.7915 176.339 86.2269M23.0217 86.2161L23 111.767C23.007 113.473 23.8674 115.179 25.5936 116.127L79.7015 145.835C91.5535 152.342 105.891 152.422 117.814 146.047L173.719 116.154C175.321 115.297 176.191 113.792 176.339 112.227V86.2269M176.339 85.2666C176.186 83.6479 175.262 82.0951 173.576 81.2621L116.657 53.1386C105.355 47.5544 92.0816 47.6248 80.8395 53.3285L73.52 57.0422M176.339 85.2666C176.369 85.5858 176.369 85.9076 176.339 86.2269M176.339 85.2666V86.2269M42 71.5C41.775 69.9895 42.2274 68.3682 43.4977 67.1571L50.4278 58.8089C51.0021 58.1171 51.6612 57.4963 52.42 57.0139C56.0043 54.7352 58.7153 54.2188 63.7932 54.7665L73.52 57.0422M42 71.5C42.283 73.4 43.6377 75.1249 45.7847 75.6386L130.793 95C137.867 96.6923 141.739 92.8619 142.238 92.3275C142.277 92.2862 142.311 92.2449 142.347 92.2014L150.507 82.3582C151.18 81.5012 151.521 80.5213 151.572 79.546M42 71.5V73.1208M41.96 77.6472C42.1191 79.6829 43.5055 81.5933 45.7847 82.1386L130.793 101.805C136.788 103.239 141.106 100.206 142.66 98.8634C143.1 98.4829 143.471 98.0354 143.825 97.5735L150.507 88.8582C151.314 87.8765 151.518 87.1918 151.579 85.8055L151.572 79.546M151.572 79.546C151.692 77.2714 150.239 75.0219 147.771 74.4141L73.52 57.0422M42 77.6472V73.1208" stroke="black" stroke-width="2" stroke-linecap="round" stroke-linejoin="round"/>
<ellipse cx="50.1854" cy="70.1931" rx="3" ry="1.68389" transform="rotate(9.96179 50.1854 70.1931)" stroke="#949494" stroke-width="2"/>
<path fill-rule="evenodd" clip-rule="evenodd" d="M93.7503 81.3086C101.344 82.7619 108.194 80.6545 109.049 76.6016C109.904 72.5486 104.44 68.0849 96.8463 66.6316C89.2521 65.1782 82.4028 67.2856 81.5478 71.3385C80.6929 75.3915 86.1561 79.8552 93.7503 81.3086ZM94.5476 77.3785C99.0227 78.2349 103.02 77.1769 103.476 75.0153C103.932 72.8538 100.674 70.4072 96.1988 69.5508C91.7237 68.6943 87.7262 69.7523 87.2702 71.9139C86.8143 74.0755 90.0724 76.5221 94.5476 77.3785Z" fill="#B6B6B6" stroke="#949494" stroke-width="2"/>
</svg>
