<svg width="200" height="200" viewBox="0 0 200 200" fill="none" xmlns="http://www.w3.org/2000/svg">
<path d="M85.0911 141L75.166 146.61C74.1483 147.185 72.9613 147.385 71.8112 147.176L69.4109 146.74C68.9554 146.657 68.8474 146.053 69.246 145.818L79.0911 140L85.0911 141Z" fill="#B6B6B6"/>
<path d="M110.5 142L120.516 147.61C121.534 148.185 122.721 148.385 123.871 148.176L126.271 147.74C126.727 147.657 126.835 147.053 126.436 146.818L118 141C118 141 111.227 142 110.5 142Z" fill="#B6B6B6"/>
<path d="M30.8112 126.176L28.4108 125.74C27.9553 125.657 27.8473 125.053 28.2459 124.818L36.091 120.182L38.7833 123L34.1659 125.61C33.1483 126.185 31.9613 126.386 30.8112 126.176Z" fill="#B6B6B6"/>
<path d="M142.091 115C142.091 114.448 141.643 114 141.091 114C140.539 114 140.091 114.448 140.091 115H142.091ZM110.5 142V141H106.668L110.011 142.872L110.5 142ZM120.516 147.61L121.008 146.739L121.005 146.737L120.516 147.61ZM123.871 148.176L123.692 147.193L123.871 148.176ZM126.271 147.74L126.45 148.724L126.271 147.74ZM126.436 146.818L125.868 147.641C125.888 147.654 125.907 147.667 125.927 147.678L126.436 146.818ZM118 141L118.568 140.177L118.244 139.953L117.854 140.011L118 141ZM85.0911 141L85.5831 141.871L88.0458 140.479L85.2555 140.014L85.0911 141ZM75.166 146.61L75.658 147.48L75.166 146.61ZM71.8112 147.176L71.9901 146.193L71.8112 147.176ZM69.4109 146.74L69.232 147.724L69.4109 146.74ZM69.246 145.818L68.7372 144.957H68.7372L69.246 145.818ZM79.0911 140L79.2555 139.014L78.8961 138.954L78.5824 139.139L79.0911 140ZM30.8112 126.176L30.9901 125.193H30.9901L30.8112 126.176ZM28.4108 125.74L28.232 126.724H28.232L28.4108 125.74ZM28.2459 124.818L27.7372 123.957H27.7372L28.2459 124.818ZM36.091 120.182L36.8141 119.491L36.2657 118.917L35.5823 119.321L36.091 120.182ZM38.7833 123L39.2754 123.871L40.394 123.238L39.5064 122.309L38.7833 123ZM34.1659 125.61L33.6739 124.739L34.1659 125.61ZM165.091 85.5C165.091 93.3059 158.31 100.68 146.628 106.161C135.026 111.606 118.927 115 101.091 115V117C119.153 117 135.555 113.567 147.478 107.972C159.322 102.415 167.091 94.5387 167.091 85.5H165.091ZM101.091 115C83.255 115 67.1562 111.606 55.5539 106.161C43.8723 100.68 37.0911 93.3059 37.0911 85.5H35.0911C35.0911 94.5387 42.8607 102.415 54.7044 107.972C66.6274 113.567 83.0287 117 101.091 117V115ZM37.0911 85.5C37.0911 77.6941 43.8723 70.3199 55.5539 64.8385C67.1562 59.3944 83.255 56 101.091 56V54C83.0287 54 66.6274 57.4333 54.7044 63.028C42.8607 68.5854 35.0911 76.4613 35.0911 85.5H37.0911ZM101.091 56C118.927 56 135.026 59.3944 146.628 64.8385C158.31 70.3199 165.091 77.6941 165.091 85.5H167.091C167.091 76.4613 159.322 68.5854 147.478 63.028C135.555 57.4333 119.153 54 101.091 54V56ZM140.091 115V136H142.091V115H140.091ZM110.011 142.872L120.028 148.482L121.005 146.737L110.989 141.128L110.011 142.872ZM124.05 149.16L126.45 148.724L126.092 146.756L123.692 147.193L124.05 149.16ZM127.004 145.994L118.568 140.177L117.432 141.823L125.868 147.641L127.004 145.994ZM126.45 148.724C127.817 148.475 128.141 146.663 126.945 145.957L125.927 147.678C125.529 147.443 125.637 146.839 126.092 146.756L126.45 148.724ZM120.024 148.48C121.245 149.171 122.67 149.411 124.05 149.16L123.692 147.193C122.772 147.36 121.822 147.199 121.008 146.739L120.024 148.48ZM84.599 140.129L74.6739 145.739L75.658 147.48L85.5831 141.871L84.599 140.129ZM71.9901 146.193L69.5898 145.756L69.232 147.724L71.6324 148.16L71.9901 146.193ZM69.7547 146.678L79.5998 140.861L78.5824 139.139L68.7372 144.957L69.7547 146.678ZM69.5898 145.756C70.0453 145.839 70.1533 146.443 69.7547 146.678L68.7372 144.957C67.5415 145.663 67.8655 147.475 69.232 147.724L69.5898 145.756ZM74.6739 145.739C73.8598 146.199 72.9102 146.36 71.9901 146.193L71.6324 148.16C73.0125 148.411 74.4369 148.171 75.658 147.48L74.6739 145.739ZM30.9901 125.193L28.5897 124.756L28.232 126.724L30.6323 127.16L30.9901 125.193ZM28.7547 125.678L36.5998 121.043L35.5823 119.321L27.7372 123.957L28.7547 125.678ZM38.2913 122.129L33.6739 124.739L34.658 126.48L39.2754 123.871L38.2913 122.129ZM28.5897 124.756C29.0452 124.839 29.1533 125.443 28.7547 125.678L27.7372 123.957C26.5414 124.663 26.8654 126.475 28.232 126.724L28.5897 124.756ZM30.6323 127.16C32.0124 127.411 33.4368 127.171 34.658 126.48L33.6739 124.739C32.8597 125.199 31.9101 125.36 30.9901 125.193L30.6323 127.16ZM35.368 120.873L38.0603 123.691L39.5064 122.309L36.8141 119.491L35.368 120.873ZM78.9267 140.986L84.9267 141.986L85.2555 140.014L79.2555 139.014L78.9267 140.986ZM110.5 143C110.762 143 111.404 142.925 112.105 142.836C112.848 142.741 113.768 142.616 114.661 142.49C115.556 142.365 116.427 142.24 117.074 142.146C117.398 142.099 117.666 142.06 117.853 142.032C117.946 142.019 118.019 142.008 118.069 142.001C118.094 141.997 118.113 141.994 118.126 141.992C118.133 141.991 118.138 141.991 118.141 141.99C118.143 141.99 118.144 141.99 118.145 141.989C118.145 141.989 118.146 141.989 118.146 141.989C118.146 141.989 118.146 141.989 118.146 141.989C118.146 141.989 118.146 141.989 118 141C117.854 140.011 117.854 140.011 117.854 140.011C117.854 140.011 117.854 140.011 117.854 140.011C117.853 140.011 117.853 140.011 117.853 140.011C117.852 140.011 117.851 140.011 117.849 140.011C117.846 140.012 117.841 140.013 117.835 140.014C117.822 140.015 117.803 140.018 117.778 140.022C117.729 140.029 117.656 140.04 117.563 140.054C117.376 140.081 117.109 140.12 116.787 140.167C116.141 140.26 115.274 140.385 114.384 140.51C113.493 140.634 112.583 140.759 111.852 140.852C111.487 140.898 111.17 140.936 110.924 140.963C110.801 140.976 110.701 140.986 110.623 140.992C110.584 140.995 110.553 140.997 110.53 140.999C110.506 141 110.497 141 110.5 141V143Z" fill="#949494"/>
<path d="M31.0911 91.5V102.5C31.0911 121.83 62.655 137.5 101.591 137.5C112.521 137.5 122.87 136.265 132.102 134.061C133.43 133.744 134.35 132.548 134.35 131.182V126.383C134.35 124.419 132.493 122.985 130.576 123.415C121.735 125.397 111.922 126.5 101.591 126.5C62.655 126.5 31.0911 110.83 31.0911 91.5Z" fill="#B6B6B6"/>
<path d="M70.0911 101C63.4636 101 58.0911 98.0899 58.0911 94.5V98.5C58.0911 102.09 63.4636 105 70.0911 105C76.6412 105 81.9656 102.157 82.0889 98.6253L82.0911 94.5038C82.0873 98.0919 76.7161 101 70.0911 101Z" fill="#B6B6B6"/>
<path d="M172.091 86C172.091 105.33 140.527 121 101.591 121C62.655 121 31.0911 105.33 31.0911 86M172.091 86C172.091 66.67 140.527 51 101.591 51C62.655 51 31.0911 66.67 31.0911 86M172.091 86V107C172.091 126.33 140.527 142 101.591 142C62.655 142 31.0911 126.33 31.0911 107V86M58.0911 94.5C58.0911 98.0899 63.4636 101 70.0911 101C76.7161 101 82.0873 98.0919 82.0911 94.5038M58.0911 94.5C58.0911 90.9101 63.4636 88 70.0911 88C76.7185 88 82.0911 90.9101 82.0911 94.5L82.0911 94.5038M58.0911 94.5V98.5C58.0911 102.09 63.4636 105 70.0911 105C76.6412 105 81.9656 102.157 82.0889 98.6253M82.0911 98.5C82.0911 98.5419 82.0903 98.5836 82.0889 98.6253M82.0889 98.6253L82.0911 94.5038M101.591 137.5C62.655 137.5 31.0911 121.83 31.0911 102.5V91.5C31.0911 110.83 62.655 126.5 101.591 126.5C111.922 126.5 121.735 125.397 130.576 123.415C132.493 122.985 134.35 124.419 134.35 126.383V131.182C134.35 132.548 133.43 133.744 132.102 134.061C122.87 136.265 112.521 137.5 101.591 137.5Z" stroke="black" stroke-width="2"/>
</svg>
