<svg width="200" height="200" viewBox="0 0 200 200" fill="none" xmlns="http://www.w3.org/2000/svg">
<path fill-rule="evenodd" clip-rule="evenodd" d="M54.0983 44.5343L54 44.6148C54.0324 44.5877 54.0651 44.5609 54.0983 44.5343ZM73 33.6148C71.0468 32.6325 68.6714 32.6638 67 33.6148L71 30.6148C72.7558 29.0774 75.6283 28.422 78 29.6148L137 59.6148C143.736 63.0022 148 69.1536 148 76.6148V150.615C148 152.181 146.94 153.584 146 154.615C144.5 156.094 141 158.615 141 158.615C142.215 157.549 143 156.432 143 154.615V80.6148C143 73.1536 138.736 67.0022 132 63.6148L73 33.6148Z" fill="#B6B6B6"/>
<path d="M129 168.615C127.244 170.155 124.372 170.807 122 169.615L63 139.615C56.2641 136.227 52 130.076 52 122.615V48.6148C52 47.3857 52.3889 46.5325 53 45.6148C53.2656 45.2159 53.4803 45.0405 53.7975 44.7815C53.8605 44.7301 53.9276 44.6753 54 44.6148M129 168.615C130.215 167.549 131 166.432 131 164.615V91.6148C131 84.1536 126.736 77.0022 120 73.6148L61 43.6148C58.7178 42.467 55.8622 43.1221 54.0983 44.5343M129 168.615L141 158.615M141 158.615C142.215 157.549 143 156.432 143 154.615V80.6148C143 73.1536 138.736 67.0022 132 63.6148L73 33.6148C71.0468 32.6325 68.6714 32.6638 67 33.6148M141 158.615C141 158.615 144.5 156.094 146 154.615C146.94 153.584 148 152.181 148 150.615V76.6148C148 69.1536 143.736 63.0022 137 59.6148L78 29.6148C75.6283 28.422 72.7558 29.0774 71 30.6148L67 33.6148M54 44.6148C54.0324 44.5877 54.0651 44.5609 54.0983 44.5343M54 44.6148C54.0063 44.6096 54.0399 44.5822 54.0983 44.5343M54 44.6148L54.0983 44.5343M67 33.6148C66.5612 33.8644 66.3642 34.265 66 34.6148C62.3543 37.762 55.0348 43.7672 54.0983 44.5343" stroke="black" stroke-width="2" stroke-linejoin="round"/>
<path d="M90 140.615V141.615" stroke="#949494" stroke-width="2" stroke-linecap="round" stroke-linejoin="round"/>
<path d="M77.9999 80.6147C75.6708 83.1237 75.0901 84.604 77.9999 87.6147C80.9097 90.6255 80.329 92.1058 77.9999 94.6147C75.6707 97.1237 75.6722 99.1058 77.9999 101.615C80.3275 104.124 80.3292 106.106 77.9999 108.615C75.6705 111.124 75.6723 113.106 77.9999 115.615C79.845 117.604 78.5269 118.268 77.9999 118.615M77.9999 80.6147C78.9809 79.5573 78.8458 78.5691 78.9999 77.6147M82.9999 121.615C84.361 119.604 83.968 117.736 81.9999 115.615C79.6723 113.106 79.6705 111.124 81.9999 108.615C84.3292 106.106 84.3275 104.124 81.9999 101.615C79.6722 99.1058 79.6707 97.1237 81.9999 94.6147C84.329 92.1058 84.9097 90.6255 81.9999 87.6147C79.0901 84.604 79.6708 83.1237 81.9999 80.6147C82.3595 80.2274 82.7513 79.9819 82.9999 79.6147" stroke="#949494" stroke-width="2" stroke-linecap="round" stroke-linejoin="round"/>
<path d="M102 126.615C104.329 124.106 104.91 122.625 102 119.615C99.0903 116.604 99.671 115.124 102 112.615C104.329 110.106 104.328 108.124 102 105.615C99.6725 103.106 99.6708 101.124 102 98.6147C104.329 96.1058 104.328 94.1237 102 91.6147C100.155 89.6258 101.473 88.9616 102 88.6147M102 126.615C101.019 127.672 101.154 128.66 101 129.615M97.0001 85.6147C95.639 87.6254 96.032 89.4933 98.0001 91.6147C100.328 94.1237 100.329 96.1058 98.0001 98.6147C95.6708 101.124 95.6725 103.106 98.0001 105.615C100.328 108.124 100.329 110.106 98.0001 112.615C95.671 115.124 95.0903 116.604 98.0001 119.615C100.91 122.625 100.329 124.106 98.0001 126.615C97.6405 127.002 97.2487 127.248 97.0001 127.615" stroke="#949494" stroke-width="2" stroke-linecap="round" stroke-linejoin="round"/>
</svg>
