<svg width="200" height="200" viewBox="0 0 200 200" fill="none" xmlns="http://www.w3.org/2000/svg">
<path d="M87.4476 139.738C96.2306 136.545 98.8679 121.626 93.3382 106.415C89.138 94.8618 81.4339 86.4633 74.1231 84.4921C77.9855 90.1829 81.4525 99.2511 83.3921 109.761C85.6097 121.777 85.2896 132.745 82.9794 139.36C82.8704 139.672 82.7569 139.975 82.639 140.267C84.2963 140.458 85.9149 140.295 87.4476 139.738Z" fill="#B6B6B6"/>
<path d="M71.2313 134.893C67.2368 135.63 62.0866 125.867 59.7279 113.087C57.4581 100.788 58.6006 90.1765 62.2497 88.7373C62.3926 88.681 62.5393 88.6387 62.6898 88.6109C66.6843 87.8737 71.8345 97.6367 74.1932 110.417C76.396 122.353 75.3849 132.7 71.9877 134.615C71.7474 134.751 71.4952 134.844 71.2313 134.893Z" fill="#B6B6B6"/>
<path d="M61.9009 78.1701C61.6339 78.1725 61.3687 78.1976 61.1059 78.2461C54.3702 79.4892 51.6998 95.6143 55.1414 114.262C58.4697 132.297 66.2958 146.087 72.8996 145.85M61.9009 78.1701C64.5288 78.1466 67.3435 80.324 69.9872 84.0903C73.9605 89.7508 77.5475 99.0002 79.5334 109.761C81.7511 121.777 81.431 132.745 79.1208 139.36C77.8457 143.011 75.9644 145.335 73.5689 145.777C73.5342 145.783 73.4994 145.789 73.4646 145.795C73.2774 145.825 73.089 145.843 72.8996 145.85M61.9009 78.1701L64.9645 78.2461C67.8135 77.7204 70.9334 79.9412 73.8459 84.0903C73.9385 84.2223 74.0309 84.3562 74.1231 84.4921M72.8996 145.85L76.561 145.853C76.8522 145.855 77.1413 145.83 77.4276 145.777C79.6182 145.373 81.3788 143.394 82.639 140.267M74.1231 84.4921C77.9855 90.1829 81.4525 99.2511 83.3921 109.761C85.6097 121.777 85.2896 132.745 82.9794 139.36C82.8704 139.672 82.7569 139.975 82.639 140.267M74.1231 84.4921C81.4339 86.4633 89.138 94.8618 93.3382 106.415C98.8679 121.626 96.2306 136.545 87.4476 139.738C85.9149 140.295 84.2963 140.458 82.639 140.267M74.1932 110.417C71.8345 97.6367 66.6843 87.8737 62.6898 88.6109C62.5393 88.6387 62.3926 88.681 62.2497 88.7373C58.6006 90.1765 57.4581 100.788 59.7279 113.087C62.0866 125.867 67.2368 135.63 71.2313 134.893C71.4952 134.844 71.7474 134.751 71.9877 134.615C75.3849 132.7 76.396 122.353 74.1932 110.417Z" stroke="black" stroke-width="2"/>
<path d="M52 40.8745L111.5 72.8745M48.5 44.3745L108.5 76.8745" stroke="#949494" stroke-width="2" stroke-linejoin="round"/>
<path d="M150.821 55.1852C151.494 55.4968 151.989 56.1745 151.985 57.0119L151.524 153.27C151.509 156.383 149.69 159.205 146.861 160.503L111.819 176.581C111.253 176.841 110.652 176.813 110.15 176.581M150.821 55.1852C150.319 54.9528 149.717 54.9242 149.15 55.1852L113.183 71.7217C110.331 73.0327 108.51 75.8902 108.525 79.0287L108.577 93.3747L108.985 174.773C108.989 175.603 109.482 176.273 110.15 176.581M150.821 55.1852L90.5 24.2791C89.9659 23.964 89.2865 23.8924 88.6495 24.1852L52.6828 40.7217C49.8312 42.0327 48.0097 44.8902 48.0248 48.0287L48.0793 59.3747L48.0889 61.3747L48.4851 143.773C48.4891 144.603 48.982 145.273 49.6503 145.581C69.1002 155.679 108.43 176.016 110.15 176.581" stroke="black" stroke-width="2" stroke-linejoin="round"/>
<path d="M104.5 79.3745L89.5 71.3745V81.3745L104.5 88.8745V79.3745Z" stroke="#949494" stroke-width="2" stroke-linejoin="round"/>
<path d="M63 56.8745L48 48.8745V58.8745L63 66.3745V56.8745Z" stroke="black" stroke-width="2" stroke-linejoin="round"/>
<path d="M78.6016 67.8346C79.1856 70.1377 78.1259 71.9405 76.8326 72.2685C75.5394 72.5964 73.7487 71.5164 73.1646 69.2132C72.5806 66.9101 73.6403 65.1073 74.9336 64.7793C76.2268 64.4514 78.0175 65.5314 78.6016 67.8346Z" stroke="#949494" stroke-width="2"/>
</svg>
