<svg width="200" height="200" viewBox="0 0 200 200" fill="none" xmlns="http://www.w3.org/2000/svg">
<path d="M102.053 116C101.373 116 100.726 116.014 100.053 116M100.053 116C70.6008 115.383 47.0527 101.17 47.0527 84C47.0527 79.3529 48.1586 75.4677 51.0527 72M100.053 116C99.379 116.014 98.7324 116 98.0527 116M100.053 116C129.505 115.383 153.053 101.17 153.053 84C153.053 79.3529 151.947 75.4677 149.053 72" stroke="#949494" stroke-width="2"/>
<path fill-rule="evenodd" clip-rule="evenodd" d="M100.053 97C113.308 97 124.053 91.4036 124.053 84.5C124.053 77.5964 113.308 72 100.053 72C86.7979 72 76.0527 77.5964 76.0527 84.5C76.0527 91.4036 86.7979 97 100.053 97ZM97.9542 91.6066C102.912 91.963 107.124 89.5725 107.361 86.2673C106.541 82.3372 106.625 80.2975 107.009 77.2188C102.631 78.7667 99.911 79.4898 94.7531 80.3482C91.9955 81.1901 89.5667 82.7617 89.4075 84.9768C89.1699 88.282 92.9964 91.2503 97.9542 91.6066Z" fill="#B6B6B6" stroke="#949494" stroke-width="2" stroke-linejoin="round"/>
<path d="M102.053 143C63.2227 143 31.0528 128.776 31.0528 111C30.4223 110.347 35.5795 93.9146 39.0528 88C41.4957 82.3303 45.9816 76.711 52.0528 72C63.2781 63.2896 79.7331 57 100.053 57M98.0528 143C136.883 143 169.053 128.776 169.053 111C169.683 110.347 164.526 93.9146 161.053 88C158.61 82.3303 154.124 76.711 148.053 72C136.827 63.2896 120.373 57 100.053 57" stroke="black" stroke-width="2"/>
</svg>
