<svg width="200" height="200" viewBox="0 0 200 200" fill="none" xmlns="http://www.w3.org/2000/svg">
<path fill-rule="evenodd" clip-rule="evenodd" d="M100.5 59C106.299 59 111 56.3137 111 53C111 49.6863 106.299 47 100.5 47C94.701 47 90 49.6863 90 53C90 56.3137 94.701 59 100.5 59ZM100.5 55C102.985 55 105 54.1046 105 53C105 51.8954 102.985 51 100.5 51C98.0147 51 96 51.8954 96 53C96 54.1046 98.0147 55 100.5 55Z" fill="#B6B6B6" stroke="#949494" stroke-width="2"/>
<path d="M62 53.5V140.5C62 141.869 62.2487 143.206 62.723 144.5M138 53.5V140.5C138 141.519 137.862 142.521 137.596 143.5M62.723 144.5C66.1719 153.907 81.5505 161 100 161C118.355 161 133.671 153.979 137.223 144.644M62.723 144.5L64.8701 151C68.4718 160.157 82.8326 167 100 167C117.478 167 132.048 159.907 135.315 150.5L137.223 144.644M137.596 143.5C137.491 143.885 137.367 144.266 137.223 144.644M137.596 143.5L137.223 144.644M100 34C79.0132 34 62 42.9543 62 54C62 65.0457 79.0132 74 100 74C120.987 74 138 65.0457 138 54C138 42.9543 120.987 34 100 34ZM100 34C80.1177 34 64 42.0589 64 52C64 61.9411 80.1177 70 100 70C119.882 70 136 61.9411 136 52C136 42.0589 119.882 34 100 34Z" stroke="black" stroke-width="2"/>
</svg>
